<?xml version="1.0" encoding="UTF-8"?>
<svg xmlns="http://www.w3.org/2000/svg" xmlns:xlink="http://www.w3.org/1999/xlink" width="720pt" height="504pt" viewBox="0 0 720 504" version="1.1">
<g id="surface217">
<rect x="0" y="0" width="720" height="504" style="fill:rgb(100%,100%,100%);fill-opacity:1;stroke:none;"/>
<path style=" stroke:none;fill-rule:nonzero;fill:rgb(0.784314%,24.705882%,64.705882%);fill-opacity:1;" d="M 90 126 L 90 59.332031 L 90.421875 59.335938 L 90.847656 59.339844 L 91.269531 59.34375 L 92.113281 59.367188 L 92.539062 59.382812 L 92.960938 59.398438 L 93.382812 59.417969 L 93.804688 59.441406 L 94.226562 59.46875 L 94.652344 59.496094 L 95.496094 59.558594 L 95.914062 59.597656 L 96.757812 59.675781 L 97.179688 59.722656 L 97.597656 59.769531 L 98.019531 59.816406 L 98.441406 59.871094 L 99.277344 59.980469 L 99.695312 60.042969 L 100.117188 60.105469 L 100.535156 60.171875 L 100.949219 60.238281 L 101.367188 60.308594 L 101.785156 60.382812 L 102.199219 60.460938 L 102.617188 60.539062 L 103.445312 60.703125 L 103.859375 60.789062 L 104.273438 60.878906 L 105.101562 61.066406 L 105.921875 61.261719 L 106.332031 61.363281 L 106.742188 61.46875 L 107.5625 61.6875 L 108.375 61.914062 L 108.78125 62.035156 L 109.1875 62.152344 L 109.59375 62.277344 L 109.996094 62.402344 L 110.800781 62.660156 L 111.203125 62.796875 L 111.605469 62.929688 L 112.402344 63.210938 L 113.199219 63.5 L 113.59375 63.648438 L 114.382812 63.953125 L 114.777344 64.109375 L 115.167969 64.265625 L 115.5625 64.429688 L 115.953125 64.589844 L 116.339844 64.757812 L 116.730469 64.925781 L 117.117188 65.097656 L 117.5 65.269531 L 117.886719 65.445312 L 118.652344 65.804688 L 119.035156 65.988281 L 119.414062 66.171875 L 119.792969 66.359375 L 120.171875 66.550781 L 120.546875 66.746094 L 120.925781 66.9375 L 121.296875 67.136719 L 121.671875 67.335938 L 122.414062 67.742188 L 122.78125 67.949219 L 123.515625 68.371094 L 123.882812 68.585938 L 124.246094 68.800781 L 124.609375 69.019531 L 125.6875 69.6875 L 126.042969 69.917969 L 126.398438 70.144531 L 126.75 70.378906 L 127.105469 70.613281 L 127.453125 70.847656 L 127.804688 71.089844 L 128.152344 71.328125 L 128.496094 71.574219 L 128.84375 71.816406 L 129.1875 72.066406 L 129.867188 72.566406 L 130.207031 72.820312 L 130.878906 73.335938 L 131.542969 73.859375 L 132.199219 74.390625 L 132.527344 74.660156 L 132.851562 74.929688 Z M 90 126 "/>
<path style=" stroke:none;fill-rule:nonzero;fill:rgb(49.019608%,52.941176%,72.54902%);fill-opacity:1;" d="M 90 126 L 132.851562 74.929688 L 133.175781 75.203125 L 133.492188 75.476562 L 133.8125 75.75 L 134.128906 76.027344 L 135.066406 76.871094 L 135.375 77.15625 L 135.683594 77.445312 L 135.988281 77.734375 L 136.292969 78.027344 L 136.894531 78.613281 L 137.191406 78.910156 L 137.488281 79.210938 L 138.074219 79.8125 L 138.652344 80.421875 L 138.941406 80.730469 L 139.226562 81.039062 L 139.789062 81.664062 L 140.34375 82.296875 L 141.164062 83.257812 L 141.429688 83.582031 L 141.699219 83.90625 L 141.960938 84.234375 L 142.226562 84.5625 L 143 85.558594 L 143.507812 86.230469 L 143.757812 86.570312 L 144.25 87.25 L 144.492188 87.59375 L 144.734375 87.941406 L 144.972656 88.285156 L 145.210938 88.632812 L 145.445312 88.984375 L 145.675781 89.332031 L 145.90625 89.683594 L 146.136719 90.039062 L 146.363281 90.394531 L 146.585938 90.75 L 146.804688 91.109375 L 147.027344 91.46875 L 147.242188 91.828125 L 147.457031 92.191406 L 147.878906 92.917969 L 148.292969 93.652344 L 148.496094 94.019531 L 148.894531 94.761719 L 149.285156 95.503906 L 149.476562 95.878906 L 149.664062 96.257812 L 149.851562 96.632812 L 150.035156 97.011719 L 150.214844 97.390625 L 150.394531 97.773438 L 150.574219 98.152344 L 150.746094 98.535156 L 150.917969 98.921875 L 151.089844 99.304688 L 151.257812 99.691406 L 151.421875 100.078125 L 151.582031 100.464844 L 151.902344 101.246094 L 152.207031 102.027344 L 152.359375 102.421875 L 152.503906 102.816406 L 152.652344 103.210938 L 152.792969 103.605469 L 152.933594 104.003906 L 153.207031 104.800781 L 153.339844 105.199219 L 153.46875 105.597656 L 153.597656 106 L 153.722656 106.402344 L 153.964844 107.207031 L 154.082031 107.613281 L 154.195312 108.015625 L 154.308594 108.421875 L 154.417969 108.828125 L 154.628906 109.640625 L 154.730469 110.050781 L 154.828125 110.460938 L 154.925781 110.867188 L 155.113281 111.6875 L 155.203125 112.101562 L 155.289062 112.511719 L 155.371094 112.925781 L 155.453125 113.335938 L 155.609375 114.164062 L 155.75 114.992188 L 155.820312 115.410156 L 155.886719 115.824219 L 155.949219 116.242188 L 156.007812 116.65625 L 156.066406 117.074219 L 156.121094 117.492188 L 156.171875 117.90625 L 156.222656 118.324219 L 156.269531 118.742188 L 156.316406 119.164062 L 156.433594 120.417969 L 156.464844 120.839844 L 156.527344 121.675781 L 156.550781 122.097656 L 156.574219 122.515625 L 156.597656 122.9375 L 156.613281 123.359375 L 156.628906 123.777344 L 156.652344 124.621094 L 156.660156 125.039062 L 156.667969 125.882812 L 156.664062 126.300781 L 156.664062 126.722656 L 156.65625 127.144531 L 156.648438 127.5625 L 156.625 128.40625 L 156.605469 128.824219 L 156.566406 129.667969 L 156.542969 130.085938 L 156.515625 130.507812 L 156.453125 131.34375 L 156.417969 131.765625 L 156.339844 132.601562 L 156.296875 133.019531 L 156.203125 133.855469 L 156.152344 134.273438 L 156.042969 135.109375 L 155.984375 135.527344 L 155.921875 135.941406 L 155.855469 136.359375 L 155.722656 137.1875 L 155.574219 138.015625 L 155.417969 138.84375 L 155.335938 139.253906 L 155.25 139.667969 L 155.164062 140.078125 L 155.074219 140.492188 L 154.980469 140.902344 L 154.886719 141.308594 L 154.785156 141.71875 L 154.6875 142.128906 L 154.476562 142.941406 L 154.371094 143.351562 L 154.257812 143.753906 L 154.03125 144.566406 L 153.667969 145.773438 L 153.539062 146.175781 L 153.410156 146.574219 L 153.28125 146.976562 L 153.148438 147.375 L 153.011719 147.773438 L 152.871094 148.171875 L 152.730469 148.566406 L 152.441406 149.355469 L 152.292969 149.75 L 152.140625 150.144531 L 151.988281 150.535156 L 151.832031 150.925781 L 151.671875 151.316406 L 151.511719 151.703125 L 151.183594 152.476562 L 151.015625 152.863281 L 150.84375 153.246094 L 150.671875 153.632812 L 150.496094 154.011719 L 150.316406 154.394531 L 150.136719 154.773438 L 149.769531 155.53125 L 149.582031 155.90625 L 149.390625 156.285156 L 149.199219 156.65625 L 149.003906 157.03125 L 148.808594 157.402344 L 148.609375 157.773438 L 148.40625 158.140625 L 148.203125 158.511719 L 147.996094 158.875 L 147.789062 159.242188 L 147.578125 159.605469 L 147.148438 160.332031 L 146.929688 160.691406 L 146.710938 161.046875 L 146.488281 161.40625 L 146.035156 162.117188 L 145.808594 162.46875 L 145.574219 162.820312 L 145.34375 163.171875 L 144.867188 163.867188 L 144.628906 164.210938 L 144.386719 164.554688 L 144.140625 164.898438 L 143.648438 165.578125 L 143.394531 165.914062 L 143.144531 166.253906 L 142.886719 166.585938 L 142.632812 166.917969 L 142.109375 167.582031 L 141.847656 167.910156 L 141.582031 168.234375 L 141.042969 168.882812 L 140.773438 169.203125 L 140.5 169.523438 L 139.945312 170.15625 L 139.664062 170.472656 L 139.382812 170.785156 L 139.101562 171.09375 L 138.816406 171.402344 L 138.527344 171.710938 L 138.238281 172.015625 L 137.945312 172.320312 L 137.359375 172.921875 L 137.0625 173.21875 L 136.761719 173.515625 L 136.160156 174.101562 L 135.855469 174.390625 L 135.238281 174.96875 L 134.929688 175.25 L 134.617188 175.535156 L 134.304688 175.816406 L 133.671875 176.371094 L 133.355469 176.644531 L 133.035156 176.917969 L 132.386719 177.457031 L 132.0625 177.722656 L 131.734375 177.988281 L 131.40625 178.25 L 131.074219 178.507812 L 130.742188 178.769531 L 130.410156 179.023438 L 129.738281 179.53125 L 129.398438 179.78125 L 129.058594 180.027344 L 128.714844 180.273438 L 128.027344 180.757812 L 127.683594 180.996094 L 127.335938 181.230469 L 126.984375 181.46875 L 126.632812 181.699219 Z M 90 126 "/>
<path style=" stroke:none;fill-rule:nonzero;fill:rgb(74.509804%,75.686275%,83.137255%);fill-opacity:1;" d="M 90 126 L 126.632812 181.699219 L 126.28125 181.929688 L 125.925781 182.15625 L 125.574219 182.382812 L 125.214844 182.605469 L 124.859375 182.828125 L 124.5 183.046875 L 123.410156 183.691406 L 123.046875 183.898438 L 122.3125 184.3125 L 121.945312 184.515625 L 121.203125 184.914062 L 120.828125 185.109375 L 120.457031 185.304688 L 120.082031 185.496094 L 119.703125 185.683594 L 119.328125 185.871094 L 118.949219 186.054688 L 118.570312 186.234375 L 118.1875 186.414062 L 117.421875 186.765625 L 117.039062 186.9375 L 116.265625 187.273438 L 115.492188 187.601562 L 115.101562 187.761719 L 114.320312 188.074219 L 113.925781 188.226562 L 113.535156 188.375 L 113.140625 188.523438 L 112.746094 188.667969 L 112.347656 188.808594 L 111.953125 188.949219 L 111.15625 189.222656 L 110.753906 189.351562 L 110.355469 189.484375 L 109.550781 189.734375 L 108.746094 189.976562 L 108.339844 190.09375 L 107.9375 190.207031 L 107.53125 190.320312 L 107.125 190.429688 L 106.714844 190.535156 L 106.308594 190.640625 L 105.902344 190.742188 L 105.492188 190.84375 L 104.261719 191.125 L 103.847656 191.210938 L 103.4375 191.296875 L 103.023438 191.382812 L 102.613281 191.464844 L 102.199219 191.542969 L 101.371094 191.691406 L 100.953125 191.761719 L 100.539062 191.828125 L 100.121094 191.894531 L 99.707031 191.957031 L 99.289062 192.015625 L 98.875 192.074219 L 98.457031 192.128906 L 97.621094 192.230469 L 97.203125 192.277344 L 96.78125 192.320312 L 96.363281 192.363281 L 95.945312 192.402344 L 95.527344 192.4375 L 95.105469 192.472656 L 94.6875 192.5 L 94.265625 192.53125 L 93.847656 192.554688 L 93.425781 192.578125 L 93.003906 192.597656 L 92.585938 192.617188 L 92.164062 192.632812 L 91.742188 192.644531 L 91.324219 192.652344 L 90.902344 192.660156 L 90.058594 192.667969 L 89.640625 192.664062 L 88.796875 192.65625 L 88.375 192.648438 L 87.957031 192.636719 L 87.113281 192.605469 L 86.695312 192.585938 L 86.273438 192.5625 L 85.855469 192.539062 L 85.433594 192.511719 L 85.015625 192.480469 L 84.59375 192.445312 L 84.175781 192.410156 L 83.753906 192.375 L 82.917969 192.289062 L 82.082031 192.195312 L 81.664062 192.144531 L 81.246094 192.089844 L 80.828125 192.03125 L 80.414062 191.972656 L 79.578125 191.847656 L 79.164062 191.78125 L 78.75 191.710938 L 77.921875 191.5625 L 77.09375 191.40625 L 76.679688 191.324219 L 76.269531 191.238281 L 75.855469 191.148438 L 75.445312 191.058594 L 74.625 190.871094 L 74.214844 190.769531 L 73.808594 190.671875 L 73.398438 190.566406 L 72.992188 190.460938 L 72.179688 190.242188 L 71.773438 190.128906 L 71.371094 190.011719 L 70.964844 189.890625 L 70.5625 189.769531 L 69.757812 189.519531 L 69.359375 189.390625 L 68.960938 189.257812 L 68.558594 189.125 L 68.160156 188.988281 L 67.765625 188.847656 L 67.367188 188.707031 L 66.578125 188.417969 L 66.183594 188.269531 L 65.792969 188.117188 L 65.398438 187.960938 L 65.007812 187.804688 L 64.621094 187.644531 L 64.230469 187.484375 L 63.457031 187.15625 L 63.070312 186.984375 L 62.6875 186.816406 L 61.921875 186.464844 L 61.539062 186.285156 L 61.160156 186.105469 L 60.402344 185.738281 L 60.027344 185.546875 L 59.652344 185.359375 L 58.902344 184.96875 L 58.53125 184.773438 L 58.160156 184.574219 L 57.425781 184.167969 L 57.058594 183.960938 L 56.691406 183.75 L 56.328125 183.539062 L 55.964844 183.324219 L 55.605469 183.109375 L 54.886719 182.671875 L 54.53125 182.445312 L 54.171875 182.222656 L 53.820312 181.996094 L 53.464844 181.765625 L 53.117188 181.535156 L 52.765625 181.300781 L 52.070312 180.824219 L 51.726562 180.585938 L 51.378906 180.339844 L 51.039062 180.097656 L 50.699219 179.847656 L 50.359375 179.601562 L 50.019531 179.347656 L 49.683594 179.09375 L 49.351562 178.839844 L 49.015625 178.582031 L 48.6875 178.324219 L 48.355469 178.058594 L 48.027344 177.796875 L 47.703125 177.53125 L 47.054688 176.992188 L 46.414062 176.445312 L 45.78125 175.890625 L 45.46875 175.613281 L 45.15625 175.328125 L 44.84375 175.046875 L 44.535156 174.757812 L 44.230469 174.472656 L 43.921875 174.179688 L 43.621094 173.890625 L 43.320312 173.59375 L 43.019531 173.300781 L 42.722656 173.003906 L 42.425781 172.703125 L 42.132812 172.402344 L 41.839844 172.097656 L 41.261719 171.488281 L 40.976562 171.175781 L 40.691406 170.867188 L 40.128906 170.242188 L 39.574219 169.609375 L 39.027344 168.96875 L 38.488281 168.320312 L 38.222656 167.996094 L 37.957031 167.667969 L 37.695312 167.335938 L 37.4375 167.007812 L 37.179688 166.671875 L 36.921875 166.339844 L 36.667969 166.003906 L 36.417969 165.664062 L 36.167969 165.328125 L 35.921875 164.984375 L 35.675781 164.644531 L 35.433594 164.300781 L 35.191406 163.953125 L 34.953125 163.609375 L 34.71875 163.257812 L 34.484375 162.910156 L 34.25 162.558594 L 34.023438 162.207031 L 33.792969 161.851562 L 33.347656 161.140625 L 33.125 160.78125 L 32.90625 160.421875 L 32.476562 159.695312 L 32.265625 159.332031 Z M 90 126 "/>
<path style=" stroke:none;fill-rule:nonzero;fill:rgb(83.921569%,73.72549%,75.294118%);fill-opacity:1;" d="M 90 126 L 32.265625 159.332031 L 32.054688 158.96875 L 31.847656 158.597656 L 31.640625 158.230469 L 31.4375 157.859375 L 31.039062 157.117188 L 30.84375 156.742188 L 30.460938 155.992188 L 30.269531 155.613281 L 29.902344 154.855469 L 29.71875 154.472656 L 29.539062 154.089844 L 29.363281 153.707031 L 29.191406 153.324219 L 28.847656 152.550781 L 28.679688 152.164062 L 28.515625 151.773438 L 28.195312 150.992188 L 28.039062 150.601562 L 27.882812 150.207031 L 27.730469 149.816406 L 27.582031 149.421875 L 27.433594 149.023438 L 27.289062 148.628906 L 27.007812 147.832031 L 26.871094 147.433594 L 26.738281 147.03125 L 26.605469 146.632812 L 26.476562 146.230469 L 26.351562 145.828125 L 26.226562 145.421875 L 26.105469 145.019531 L 25.984375 144.613281 L 25.867188 144.207031 L 25.753906 143.800781 L 25.535156 142.988281 L 25.425781 142.578125 L 25.222656 141.757812 L 25.027344 140.9375 L 24.933594 140.527344 L 24.84375 140.113281 L 24.757812 139.699219 L 24.671875 139.289062 L 24.589844 138.875 L 24.507812 138.457031 L 24.429688 138.042969 L 24.355469 137.628906 L 24.28125 137.210938 L 24.214844 136.796875 L 24.144531 136.378906 L 24.019531 135.542969 L 23.960938 135.125 L 23.851562 134.289062 L 23.75 133.453125 L 23.707031 133.03125 L 23.660156 132.613281 L 23.582031 131.769531 L 23.546875 131.351562 L 23.484375 130.507812 L 23.457031 130.085938 L 23.433594 129.664062 L 23.414062 129.242188 L 23.394531 128.824219 L 23.375 128.402344 L 23.363281 127.980469 L 23.351562 127.554688 L 23.335938 126.710938 L 23.332031 126.289062 L 23.332031 125.867188 L 23.339844 125.023438 L 23.347656 124.601562 L 23.371094 123.757812 L 23.386719 123.335938 L 23.425781 122.492188 L 23.449219 122.070312 L 23.503906 121.226562 L 23.535156 120.808594 L 23.605469 119.964844 L 23.644531 119.546875 L 23.6875 119.125 L 23.734375 118.707031 L 23.78125 118.285156 L 23.882812 117.449219 L 23.941406 117.03125 L 23.996094 116.613281 L 24.121094 115.777344 L 24.1875 115.359375 L 24.257812 114.945312 L 24.328125 114.527344 L 24.402344 114.113281 L 24.476562 113.695312 L 24.722656 112.453125 L 24.8125 112.042969 L 24.992188 111.214844 L 25.089844 110.804688 L 25.183594 110.394531 L 25.386719 109.574219 L 25.492188 109.167969 L 25.601562 108.757812 L 25.710938 108.351562 L 25.824219 107.945312 L 26.058594 107.132812 L 26.179688 106.726562 L 26.429688 105.921875 L 26.6875 105.117188 L 26.820312 104.71875 L 26.957031 104.316406 L 27.238281 103.519531 L 27.382812 103.125 L 27.527344 102.726562 L 27.675781 102.332031 L 27.828125 101.9375 L 27.980469 101.546875 L 28.136719 101.152344 L 28.457031 100.371094 L 28.621094 99.984375 L 28.785156 99.59375 Z M 90 126 "/>
<path style=" stroke:none;fill-rule:nonzero;fill:rgb(73.333333%,46.666667%,51.764706%);fill-opacity:1;" d="M 90 126 L 28.785156 99.59375 L 28.953125 99.207031 L 29.125 98.824219 L 29.296875 98.4375 L 29.472656 98.054688 L 29.652344 97.671875 L 29.832031 97.292969 L 30.015625 96.910156 L 30.199219 96.53125 L 30.386719 96.15625 L 30.578125 95.777344 L 30.769531 95.402344 L 30.964844 95.03125 L 31.160156 94.65625 L 31.359375 94.285156 L 31.5625 93.914062 L 31.765625 93.546875 L 32.179688 92.8125 L 32.390625 92.449219 L 32.820312 91.722656 L 33.039062 91.359375 L 33.257812 91 L 33.480469 90.644531 L 33.707031 90.285156 L 33.933594 89.929688 L 34.394531 89.226562 L 34.863281 88.523438 L 35.101562 88.175781 L 35.339844 87.832031 L 35.585938 87.484375 L 35.828125 87.140625 L 36.074219 86.800781 L 36.574219 86.121094 L 36.828125 85.785156 L 37.085938 85.449219 L 37.339844 85.117188 L 37.863281 84.453125 L 38.125 84.125 L 38.390625 83.796875 L 38.929688 83.148438 L 39.203125 82.824219 L 39.476562 82.503906 L 40.03125 81.871094 L 40.3125 81.554688 L 40.875 80.929688 L 41.164062 80.621094 L 41.449219 80.3125 L 41.742188 80.003906 L 42.03125 79.703125 L 42.324219 79.398438 L 42.621094 79.097656 L 42.917969 78.800781 L 43.519531 78.207031 L 43.824219 77.914062 L 44.433594 77.335938 L 44.742188 77.046875 L 45.054688 76.761719 L 45.679688 76.199219 L 45.996094 75.917969 L 46.3125 75.640625 L 46.953125 75.09375 L 47.277344 74.820312 L 47.601562 74.554688 L 47.925781 74.285156 L 48.253906 74.019531 L 48.917969 73.496094 L 49.582031 72.980469 L 49.917969 72.726562 L 50.257812 72.476562 L 50.597656 72.222656 L 50.9375 71.976562 L 51.28125 71.730469 L 51.96875 71.246094 L 52.316406 71.003906 L 52.664062 70.769531 L 53.367188 70.300781 L 53.71875 70.070312 L 54.785156 69.390625 L 55.503906 68.953125 L 55.867188 68.734375 L 56.230469 68.519531 L 56.59375 68.308594 L 56.960938 68.097656 L 57.324219 67.890625 L 57.695312 67.683594 L 58.0625 67.480469 L 58.804688 67.082031 L 59.554688 66.691406 L 59.929688 66.5 L 60.304688 66.3125 L 60.683594 66.125 L 61.0625 65.941406 L 61.445312 65.757812 L 61.824219 65.578125 L 62.207031 65.402344 L 62.59375 65.226562 L 62.976562 65.054688 L 63.75 64.71875 L 64.136719 64.554688 L 64.527344 64.390625 L 64.917969 64.230469 L 65.699219 63.917969 L 66.09375 63.765625 L 66.882812 63.46875 L 67.277344 63.324219 L 68.074219 63.042969 L 68.871094 62.769531 L 69.269531 62.636719 L 69.671875 62.507812 L 70.878906 62.132812 L 71.285156 62.015625 L 71.6875 61.898438 L 72.09375 61.78125 L 72.5 61.671875 L 72.910156 61.5625 L 73.316406 61.453125 L 73.726562 61.351562 L 74.132812 61.25 L 74.542969 61.148438 L 75.363281 60.960938 L 75.777344 60.867188 L 76.1875 60.78125 L 77.015625 60.609375 L 78.257812 60.375 L 78.671875 60.300781 L 79.089844 60.230469 L 79.503906 60.164062 L 79.921875 60.101562 L 80.335938 60.039062 L 80.753906 59.976562 L 82.007812 59.8125 L 82.429688 59.765625 L 82.847656 59.71875 L 83.265625 59.675781 L 83.6875 59.632812 L 84.105469 59.59375 L 84.527344 59.558594 L 84.945312 59.523438 L 85.367188 59.496094 L 85.785156 59.464844 L 86.628906 59.417969 L 87.050781 59.398438 L 87.472656 59.382812 L 87.890625 59.367188 L 88.734375 59.34375 L 90 59.332031 Z M 90 126 "/>
</g>
</svg>
