<?xml version="1.0" encoding="UTF-8"?>
<svg xmlns="http://www.w3.org/2000/svg" xmlns:xlink="http://www.w3.org/1999/xlink" width="720pt" height="504pt" viewBox="0 0 720 504" version="1.1">
<g id="surface743">
<rect x="0" y="0" width="720" height="504" style="fill:rgb(100%,100%,100%);fill-opacity:1;stroke:none;"/>
<path style=" stroke:none;fill-rule:nonzero;fill:rgb(0.784314%,24.705882%,64.705882%);fill-opacity:1;" d="M 90 126 L 90 59.332031 L 90.421875 59.335938 L 90.847656 59.339844 L 91.269531 59.34375 L 92.113281 59.367188 L 92.539062 59.382812 L 92.960938 59.398438 L 93.382812 59.417969 L 93.804688 59.441406 L 94.226562 59.46875 L 94.652344 59.496094 L 95.496094 59.558594 L 95.914062 59.597656 L 96.757812 59.675781 L 97.179688 59.722656 L 97.597656 59.769531 L 98.019531 59.816406 L 98.441406 59.871094 L 99.277344 59.980469 L 99.695312 60.042969 L 100.117188 60.105469 L 100.535156 60.171875 L 100.949219 60.238281 L 101.367188 60.308594 L 101.785156 60.382812 L 102.199219 60.460938 L 102.617188 60.539062 L 103.445312 60.703125 L 103.859375 60.789062 L 104.273438 60.878906 L 105.101562 61.066406 L 105.921875 61.261719 L 106.332031 61.363281 L 106.742188 61.46875 L 107.5625 61.6875 L 108.375 61.914062 L 108.78125 62.035156 L 109.1875 62.152344 L 109.59375 62.277344 L 109.996094 62.402344 L 110.800781 62.660156 L 111.203125 62.796875 L 111.605469 62.929688 L 112.402344 63.210938 L 113.199219 63.5 L 113.59375 63.648438 L 114.382812 63.953125 L 114.777344 64.109375 L 115.167969 64.265625 L 115.5625 64.429688 L 115.953125 64.589844 L 116.339844 64.757812 L 116.730469 64.925781 L 117.117188 65.097656 L 117.5 65.269531 L 117.886719 65.445312 L 118.652344 65.804688 L 119.035156 65.988281 L 119.414062 66.171875 L 119.792969 66.359375 L 120.171875 66.550781 L 120.546875 66.746094 L 120.925781 66.9375 L 121.296875 67.136719 L 121.671875 67.335938 L 122.414062 67.742188 L 122.78125 67.949219 L 123.515625 68.371094 L 123.882812 68.585938 L 124.246094 68.800781 L 124.609375 69.019531 L 125.6875 69.6875 L 126.042969 69.917969 L 126.398438 70.144531 L 126.75 70.378906 L 127.105469 70.613281 L 127.453125 70.847656 L 127.804688 71.089844 L 128.152344 71.328125 L 128.496094 71.574219 L 128.84375 71.816406 L 129.1875 72.066406 L 129.867188 72.566406 L 130.207031 72.820312 L 130.878906 73.335938 L 131.542969 73.859375 L 132.199219 74.390625 L 132.527344 74.660156 L 132.851562 74.929688 Z M 90 126 "/>
<path style=" stroke:none;fill-rule:nonzero;fill:rgb(49.019608%,52.941176%,72.54902%);fill-opacity:1;" d="M 90 126 L 132.851562 74.929688 L 133.175781 75.203125 L 133.492188 75.476562 L 133.8125 75.75 L 134.128906 76.027344 L 135.066406 76.871094 L 135.375 77.15625 L 135.683594 77.445312 L 135.988281 77.734375 L 136.292969 78.027344 L 136.894531 78.613281 L 137.191406 78.910156 L 137.488281 79.210938 L 138.074219 79.8125 L 138.652344 80.421875 L 138.941406 80.730469 L 139.226562 81.039062 L 139.789062 81.664062 L 140.34375 82.296875 L 141.164062 83.257812 L 141.429688 83.582031 L 141.699219 83.90625 L 141.960938 84.234375 L 142.226562 84.5625 L 143 85.558594 L 143.507812 86.230469 L 143.757812 86.570312 L 144.25 87.25 L 144.492188 87.59375 L 144.734375 87.941406 L 144.972656 88.285156 L 145.210938 88.632812 L 145.445312 88.984375 L 145.675781 89.332031 L 145.90625 89.683594 L 146.136719 90.039062 L 146.363281 90.394531 L 146.585938 90.75 L 146.804688 91.109375 L 147.027344 91.46875 L 147.242188 91.828125 L 147.457031 92.191406 L 147.878906 92.917969 L 148.292969 93.652344 L 148.496094 94.019531 L 148.894531 94.761719 L 149.285156 95.503906 L 149.476562 95.878906 L 149.664062 96.257812 L 149.851562 96.632812 L 150.035156 97.011719 L 150.214844 97.390625 L 150.394531 97.773438 L 150.574219 98.152344 L 150.746094 98.535156 L 150.917969 98.921875 L 151.089844 99.304688 L 151.257812 99.691406 L 151.421875 100.078125 L 151.582031 100.464844 L 151.902344 101.246094 L 152.207031 102.027344 L 152.359375 102.421875 L 152.503906 102.816406 L 152.652344 103.210938 L 152.792969 103.605469 L 152.933594 104.003906 L 153.207031 104.800781 L 153.339844 105.199219 L 153.46875 105.597656 L 153.597656 106 L 153.722656 106.402344 L 153.964844 107.207031 L 154.082031 107.613281 L 154.195312 108.015625 L 154.308594 108.421875 L 154.417969 108.828125 L 154.628906 109.640625 L 154.730469 110.050781 L 154.828125 110.460938 L 154.925781 110.867188 L 155.113281 111.6875 L 155.203125 112.101562 L 155.289062 112.511719 L 155.371094 112.925781 L 155.453125 113.335938 L 155.609375 114.164062 L 155.75 114.992188 L 155.820312 115.410156 L 155.886719 115.824219 L 155.949219 116.242188 L 156.007812 116.65625 L 156.066406 117.074219 L 156.121094 117.492188 L 156.171875 117.90625 L 156.222656 118.324219 L 156.269531 118.742188 L 156.316406 119.164062 L 156.433594 120.417969 L 156.464844 120.839844 L 156.527344 121.675781 L 156.550781 122.097656 L 156.574219 122.515625 L 156.597656 122.9375 L 156.613281 123.359375 L 156.628906 123.777344 L 156.652344 124.621094 L 156.660156 125.039062 L 156.667969 125.882812 L 156.664062 126.300781 L 156.664062 126.722656 L 156.65625 127.144531 L 156.648438 127.5625 L 156.625 128.40625 L 156.605469 128.824219 L 156.566406 129.667969 L 156.542969 130.085938 L 156.515625 130.507812 L 156.453125 131.34375 L 156.417969 131.765625 L 156.339844 132.601562 L 156.296875 133.019531 L 156.203125 133.855469 L 156.152344 134.273438 L 156.042969 135.109375 L 155.984375 135.527344 L 155.921875 135.941406 L 155.855469 136.359375 L 155.722656 137.1875 L 155.574219 138.015625 L 155.417969 138.84375 L 155.335938 139.253906 L 155.25 139.667969 L 155.164062 140.078125 L 155.074219 140.492188 L 154.980469 140.902344 L 154.886719 141.308594 L 154.785156 141.71875 L 154.6875 142.128906 L 154.476562 142.941406 L 154.371094 143.351562 L 154.257812 143.753906 L 154.03125 144.566406 L 153.667969 145.773438 L 153.539062 146.175781 L 153.410156 146.574219 L 153.28125 146.976562 L 153.148438 147.375 L 153.011719 147.773438 L 152.871094 148.171875 L 152.730469 148.566406 L 152.441406 149.355469 L 152.292969 149.75 L 152.140625 150.144531 L 151.988281 150.535156 L 151.832031 150.925781 L 151.671875 151.316406 L 151.511719 151.703125 L 151.183594 152.476562 L 151.015625 152.863281 L 150.84375 153.246094 L 150.671875 153.632812 L 150.496094 154.011719 L 150.316406 154.394531 L 150.136719 154.773438 L 149.769531 155.53125 L 149.582031 155.90625 L 149.390625 156.285156 L 149.199219 156.65625 L 149.003906 157.03125 L 148.808594 157.402344 L 148.609375 157.773438 L 148.40625 158.140625 L 148.203125 158.511719 L 147.996094 158.875 L 147.789062 159.242188 L 147.578125 159.605469 L 147.148438 160.332031 L 146.929688 160.691406 L 146.710938 161.046875 L 146.488281 161.40625 L 146.035156 162.117188 L 145.808594 162.46875 L 145.574219 162.820312 L 145.34375 163.171875 L 144.867188 163.867188 L 144.628906 164.210938 L 144.386719 164.554688 L 144.140625 164.898438 L 143.648438 165.578125 L 143.394531 165.914062 L 143.144531 166.253906 L 142.886719 166.585938 L 142.632812 166.917969 L 142.109375 167.582031 L 141.847656 167.910156 L 141.582031 168.234375 L 141.042969 168.882812 L 140.773438 169.203125 L 140.5 169.523438 L 139.945312 170.15625 L 139.664062 170.472656 L 139.382812 170.785156 L 139.101562 171.09375 L 138.816406 171.402344 L 138.527344 171.710938 L 138.238281 172.015625 L 137.945312 172.320312 L 137.359375 172.921875 L 137.0625 173.21875 L 136.761719 173.515625 L 136.160156 174.101562 L 135.855469 174.390625 L 135.238281 174.96875 L 134.929688 175.25 L 134.617188 175.535156 L 134.304688 175.816406 L 133.671875 176.371094 L 133.355469 176.644531 L 133.035156 176.917969 L 132.386719 177.457031 L 132.0625 177.722656 L 131.734375 177.988281 L 131.40625 178.25 L 131.074219 178.507812 L 130.742188 178.769531 L 130.410156 179.023438 L 129.738281 179.53125 L 129.398438 179.78125 L 129.058594 180.027344 L 128.714844 180.273438 L 128.027344 180.757812 L 127.683594 180.996094 L 127.335938 181.230469 L 126.984375 181.46875 L 126.632812 181.699219 Z M 90 126 "/>
<path style=" stroke:none;fill-rule:nonzero;fill:rgb(74.509804%,75.686275%,83.137255%);fill-opacity:1;" d="M 90 126 L 126.632812 181.699219 L 126.28125 181.929688 L 125.925781 182.15625 L 125.574219 182.382812 L 125.214844 182.605469 L 124.859375 182.828125 L 124.5 183.046875 L 123.410156 183.691406 L 123.046875 183.898438 L 122.3125 184.3125 L 121.945312 184.515625 L 121.203125 184.914062 L 120.828125 185.109375 L 120.457031 185.304688 L 120.082031 185.496094 L 119.703125 185.683594 L 119.328125 185.871094 L 118.949219 186.054688 L 118.570312 186.234375 L 118.1875 186.414062 L 117.421875 186.765625 L 117.039062 186.9375 L 116.265625 187.273438 L 115.492188 187.601562 L 115.101562 187.761719 L 114.320312 188.074219 L 113.925781 188.226562 L 113.535156 188.375 L 113.140625 188.523438 L 112.746094 188.667969 L 112.347656 188.808594 L 111.953125 188.949219 L 111.15625 189.222656 L 110.753906 189.351562 L 110.355469 189.484375 L 109.550781 189.734375 L 108.746094 189.976562 L 108.339844 190.09375 L 107.9375 190.207031 L 107.53125 190.320312 L 107.125 190.429688 L 106.714844 190.535156 L 106.308594 190.640625 L 105.902344 190.742188 L 105.492188 190.84375 L 104.261719 191.125 L 103.847656 191.210938 L 103.4375 191.296875 L 103.023438 191.382812 L 102.613281 191.464844 L 102.199219 191.542969 L 101.371094 191.691406 L 100.953125 191.761719 L 100.539062 191.828125 L 100.121094 191.894531 L 99.707031 191.957031 L 99.289062 192.015625 L 98.875 192.074219 L 98.457031 192.128906 L 97.621094 192.230469 L 97.203125 192.277344 L 96.78125 192.320312 L 96.363281 192.363281 L 95.945312 192.402344 L 95.527344 192.4375 L 95.105469 192.472656 L 94.6875 192.5 L 94.265625 192.53125 L 93.847656 192.554688 L 93.425781 192.578125 L 93.003906 192.597656 L 92.585938 192.617188 L 92.164062 192.632812 L 91.742188 192.644531 L 91.324219 192.652344 L 90.902344 192.660156 L 90.058594 192.667969 L 89.640625 192.664062 L 88.796875 192.65625 L 88.375 192.648438 L 87.957031 192.636719 L 87.113281 192.605469 L 86.695312 192.585938 L 86.273438 192.5625 L 85.855469 192.539062 L 85.433594 192.511719 L 85.015625 192.480469 L 84.59375 192.445312 L 84.175781 192.410156 L 83.753906 192.375 L 82.917969 192.289062 L 82.082031 192.195312 L 81.664062 192.144531 L 81.246094 192.089844 L 80.828125 192.03125 L 80.414062 191.972656 L 79.578125 191.847656 L 79.164062 191.78125 L 78.75 191.710938 L 77.921875 191.5625 L 77.09375 191.40625 L 76.679688 191.324219 L 76.269531 191.238281 L 75.855469 191.148438 L 75.445312 191.058594 L 74.625 190.871094 L 74.214844 190.769531 L 73.808594 190.671875 L 73.398438 190.566406 L 72.992188 190.460938 L 72.179688 190.242188 L 71.773438 190.128906 L 71.371094 190.011719 L 70.964844 189.890625 L 70.5625 189.769531 L 69.757812 189.519531 L 69.359375 189.390625 L 68.960938 189.257812 L 68.558594 189.125 L 68.160156 188.988281 L 67.765625 188.847656 L 67.367188 188.707031 L 66.578125 188.417969 L 66.183594 188.269531 L 65.792969 188.117188 L 65.398438 187.960938 L 65.007812 187.804688 L 64.621094 187.644531 L 64.230469 187.484375 L 63.457031 187.15625 L 63.070312 186.984375 L 62.6875 186.816406 L 61.921875 186.464844 L 61.539062 186.285156 L 61.160156 186.105469 L 60.402344 185.738281 L 60.027344 185.546875 L 59.652344 185.359375 L 58.902344 184.96875 L 58.53125 184.773438 L 58.160156 184.574219 L 57.425781 184.167969 L 57.058594 183.960938 L 56.691406 183.75 L 56.328125 183.539062 L 55.964844 183.324219 L 55.605469 183.109375 L 54.886719 182.671875 L 54.53125 182.445312 L 54.171875 182.222656 L 53.820312 181.996094 L 53.464844 181.765625 L 53.117188 181.535156 L 52.765625 181.300781 L 52.070312 180.824219 L 51.726562 180.585938 L 51.378906 180.339844 L 51.039062 180.097656 L 50.699219 179.847656 L 50.359375 179.601562 L 50.019531 179.347656 L 49.683594 179.09375 L 49.351562 178.839844 L 49.015625 178.582031 L 48.6875 178.324219 L 48.355469 178.058594 L 48.027344 177.796875 L 47.703125 177.53125 L 47.054688 176.992188 L 46.414062 176.445312 L 45.78125 175.890625 L 45.46875 175.613281 L 45.15625 175.328125 L 44.84375 175.046875 L 44.535156 174.757812 L 44.230469 174.472656 L 43.921875 174.179688 L 43.621094 173.890625 L 43.320312 173.59375 L 43.019531 173.300781 L 42.722656 173.003906 L 42.425781 172.703125 L 42.132812 172.402344 L 41.839844 172.097656 L 41.261719 171.488281 L 40.976562 171.175781 L 40.691406 170.867188 L 40.128906 170.242188 L 39.574219 169.609375 L 39.027344 168.96875 L 38.488281 168.320312 L 38.222656 167.996094 L 37.957031 167.667969 L 37.695312 167.335938 L 37.4375 167.007812 L 37.179688 166.671875 L 36.921875 166.339844 L 36.667969 166.003906 L 36.417969 165.664062 L 36.167969 165.328125 L 35.921875 164.984375 L 35.675781 164.644531 L 35.433594 164.300781 L 35.191406 163.953125 L 34.953125 163.609375 L 34.71875 163.257812 L 34.484375 162.910156 L 34.25 162.558594 L 34.023438 162.207031 L 33.792969 161.851562 L 33.347656 161.140625 L 33.125 160.78125 L 32.90625 160.421875 L 32.476562 159.695312 L 32.265625 159.332031 Z M 90 126 "/>
<path style=" stroke:none;fill-rule:nonzero;fill:rgb(83.921569%,73.72549%,75.294118%);fill-opacity:1;" d="M 90 126 L 32.265625 159.332031 L 32.054688 158.96875 L 31.847656 158.597656 L 31.640625 158.230469 L 31.4375 157.859375 L 31.039062 157.117188 L 30.84375 156.742188 L 30.460938 155.992188 L 30.269531 155.613281 L 29.902344 154.855469 L 29.71875 154.472656 L 29.539062 154.089844 L 29.363281 153.707031 L 29.191406 153.324219 L 28.847656 152.550781 L 28.679688 152.164062 L 28.515625 151.773438 L 28.195312 150.992188 L 28.039062 150.601562 L 27.882812 150.207031 L 27.730469 149.816406 L 27.582031 149.421875 L 27.433594 149.023438 L 27.289062 148.628906 L 27.007812 147.832031 L 26.871094 147.433594 L 26.738281 147.03125 L 26.605469 146.632812 L 26.476562 146.230469 L 26.351562 145.828125 L 26.226562 145.421875 L 26.105469 145.019531 L 25.984375 144.613281 L 25.867188 144.207031 L 25.753906 143.800781 L 25.535156 142.988281 L 25.425781 142.578125 L 25.222656 141.757812 L 25.027344 140.9375 L 24.933594 140.527344 L 24.84375 140.113281 L 24.757812 139.699219 L 24.671875 139.289062 L 24.589844 138.875 L 24.507812 138.457031 L 24.429688 138.042969 L 24.355469 137.628906 L 24.28125 137.210938 L 24.214844 136.796875 L 24.144531 136.378906 L 24.019531 135.542969 L 23.960938 135.125 L 23.851562 134.289062 L 23.75 133.453125 L 23.707031 133.03125 L 23.660156 132.613281 L 23.582031 131.769531 L 23.546875 131.351562 L 23.484375 130.507812 L 23.457031 130.085938 L 23.433594 129.664062 L 23.414062 129.242188 L 23.394531 128.824219 L 23.375 128.402344 L 23.363281 127.980469 L 23.351562 127.554688 L 23.335938 126.710938 L 23.332031 126.289062 L 23.332031 125.867188 L 23.339844 125.023438 L 23.347656 124.601562 L 23.371094 123.757812 L 23.386719 123.335938 L 23.425781 122.492188 L 23.449219 122.070312 L 23.503906 121.226562 L 23.535156 120.808594 L 23.605469 119.964844 L 23.644531 119.546875 L 23.6875 119.125 L 23.734375 118.707031 L 23.78125 118.285156 L 23.882812 117.449219 L 23.941406 117.03125 L 23.996094 116.613281 L 24.121094 115.777344 L 24.1875 115.359375 L 24.257812 114.945312 L 24.328125 114.527344 L 24.402344 114.113281 L 24.476562 113.695312 L 24.722656 112.453125 L 24.8125 112.042969 L 24.992188 111.214844 L 25.089844 110.804688 L 25.183594 110.394531 L 25.386719 109.574219 L 25.492188 109.167969 L 25.601562 108.757812 L 25.710938 108.351562 L 25.824219 107.945312 L 26.058594 107.132812 L 26.179688 106.726562 L 26.429688 105.921875 L 26.6875 105.117188 L 26.820312 104.71875 L 26.957031 104.316406 L 27.238281 103.519531 L 27.382812 103.125 L 27.527344 102.726562 L 27.675781 102.332031 L 27.828125 101.9375 L 27.980469 101.546875 L 28.136719 101.152344 L 28.457031 100.371094 L 28.621094 99.984375 L 28.785156 99.59375 Z M 90 126 "/>
<path style=" stroke:none;fill-rule:nonzero;fill:rgb(73.333333%,46.666667%,51.764706%);fill-opacity:1;" d="M 90 126 L 28.785156 99.59375 L 28.953125 99.207031 L 29.125 98.824219 L 29.296875 98.4375 L 29.472656 98.054688 L 29.652344 97.671875 L 29.832031 97.292969 L 30.015625 96.910156 L 30.199219 96.53125 L 30.386719 96.15625 L 30.578125 95.777344 L 30.769531 95.402344 L 30.964844 95.03125 L 31.160156 94.65625 L 31.359375 94.285156 L 31.5625 93.914062 L 31.765625 93.546875 L 32.179688 92.8125 L 32.390625 92.449219 L 32.820312 91.722656 L 33.039062 91.359375 L 33.257812 91 L 33.480469 90.644531 L 33.707031 90.285156 L 33.933594 89.929688 L 34.394531 89.226562 L 34.863281 88.523438 L 35.101562 88.175781 L 35.339844 87.832031 L 35.585938 87.484375 L 35.828125 87.140625 L 36.074219 86.800781 L 36.574219 86.121094 L 36.828125 85.785156 L 37.085938 85.449219 L 37.339844 85.117188 L 37.863281 84.453125 L 38.125 84.125 L 38.390625 83.796875 L 38.929688 83.148438 L 39.203125 82.824219 L 39.476562 82.503906 L 40.03125 81.871094 L 40.3125 81.554688 L 40.875 80.929688 L 41.164062 80.621094 L 41.449219 80.3125 L 41.742188 80.003906 L 42.03125 79.703125 L 42.324219 79.398438 L 42.621094 79.097656 L 42.917969 78.800781 L 43.519531 78.207031 L 43.824219 77.914062 L 44.433594 77.335938 L 44.742188 77.046875 L 45.054688 76.761719 L 45.679688 76.199219 L 45.996094 75.917969 L 46.3125 75.640625 L 46.953125 75.09375 L 47.277344 74.820312 L 47.601562 74.554688 L 47.925781 74.285156 L 48.253906 74.019531 L 48.917969 73.496094 L 49.582031 72.980469 L 49.917969 72.726562 L 50.257812 72.476562 L 50.597656 72.222656 L 50.9375 71.976562 L 51.28125 71.730469 L 51.96875 71.246094 L 52.316406 71.003906 L 52.664062 70.769531 L 53.367188 70.300781 L 53.71875 70.070312 L 54.785156 69.390625 L 55.503906 68.953125 L 55.867188 68.734375 L 56.230469 68.519531 L 56.59375 68.308594 L 56.960938 68.097656 L 57.324219 67.890625 L 57.695312 67.683594 L 58.0625 67.480469 L 58.804688 67.082031 L 59.554688 66.691406 L 59.929688 66.5 L 60.304688 66.3125 L 60.683594 66.125 L 61.0625 65.941406 L 61.445312 65.757812 L 61.824219 65.578125 L 62.207031 65.402344 L 62.59375 65.226562 L 62.976562 65.054688 L 63.75 64.71875 L 64.136719 64.554688 L 64.527344 64.390625 L 64.917969 64.230469 L 65.699219 63.917969 L 66.09375 63.765625 L 66.882812 63.46875 L 67.277344 63.324219 L 68.074219 63.042969 L 68.871094 62.769531 L 69.269531 62.636719 L 69.671875 62.507812 L 70.878906 62.132812 L 71.285156 62.015625 L 71.6875 61.898438 L 72.09375 61.78125 L 72.5 61.671875 L 72.910156 61.5625 L 73.316406 61.453125 L 73.726562 61.351562 L 74.132812 61.25 L 74.542969 61.148438 L 75.363281 60.960938 L 75.777344 60.867188 L 76.1875 60.78125 L 77.015625 60.609375 L 78.257812 60.375 L 78.671875 60.300781 L 79.089844 60.230469 L 79.503906 60.164062 L 79.921875 60.101562 L 80.335938 60.039062 L 80.753906 59.976562 L 82.007812 59.8125 L 82.429688 59.765625 L 82.847656 59.71875 L 83.265625 59.675781 L 83.6875 59.632812 L 84.105469 59.59375 L 84.527344 59.558594 L 84.945312 59.523438 L 85.367188 59.496094 L 85.785156 59.464844 L 86.628906 59.417969 L 87.050781 59.398438 L 87.472656 59.382812 L 87.890625 59.367188 L 88.734375 59.34375 L 90 59.332031 Z M 90 126 "/>
<path style=" stroke:none;fill-rule:nonzero;fill:rgb(0.784314%,24.705882%,64.705882%);fill-opacity:1;" d="M 270 59.332031 L 270.421875 59.335938 L 270.847656 59.339844 L 271.269531 59.34375 L 272.113281 59.367188 L 272.539062 59.382812 L 272.960938 59.398438 L 273.382812 59.417969 L 273.804688 59.441406 L 274.226562 59.46875 L 274.652344 59.496094 L 275.496094 59.558594 L 275.914062 59.597656 L 276.757812 59.675781 L 277.179688 59.722656 L 277.597656 59.769531 L 278.019531 59.816406 L 278.441406 59.871094 L 279.277344 59.980469 L 279.695312 60.042969 L 280.117188 60.105469 L 280.535156 60.171875 L 280.949219 60.238281 L 281.367188 60.308594 L 281.785156 60.382812 L 282.199219 60.460938 L 282.617188 60.539062 L 283.445312 60.703125 L 283.859375 60.789062 L 284.273438 60.878906 L 285.101562 61.066406 L 285.921875 61.261719 L 286.332031 61.363281 L 286.742188 61.46875 L 287.5625 61.6875 L 288.375 61.914062 L 288.78125 62.035156 L 289.1875 62.152344 L 289.59375 62.277344 L 289.996094 62.402344 L 290.800781 62.660156 L 291.203125 62.796875 L 291.605469 62.929688 L 292.402344 63.210938 L 293.199219 63.5 L 293.59375 63.648438 L 294.382812 63.953125 L 294.777344 64.109375 L 295.167969 64.265625 L 295.5625 64.429688 L 295.953125 64.589844 L 296.339844 64.757812 L 296.730469 64.925781 L 297.117188 65.097656 L 297.5 65.269531 L 297.886719 65.445312 L 298.652344 65.804688 L 299.035156 65.988281 L 299.414062 66.171875 L 299.792969 66.359375 L 300.171875 66.550781 L 300.546875 66.746094 L 300.925781 66.9375 L 301.296875 67.136719 L 301.671875 67.335938 L 302.414062 67.742188 L 302.78125 67.949219 L 303.515625 68.371094 L 303.882812 68.585938 L 304.246094 68.800781 L 304.609375 69.019531 L 305.6875 69.6875 L 306.042969 69.917969 L 306.398438 70.144531 L 306.75 70.378906 L 307.105469 70.613281 L 307.453125 70.847656 L 307.804688 71.089844 L 308.152344 71.328125 L 308.496094 71.574219 L 308.84375 71.816406 L 309.1875 72.066406 L 309.867188 72.566406 L 310.207031 72.820312 L 310.878906 73.335938 L 311.542969 73.859375 L 312.199219 74.390625 L 312.527344 74.660156 L 312.851562 74.929688 L 291.425781 100.464844 L 291.265625 100.328125 L 290.9375 100.0625 L 290.769531 99.929688 L 290.605469 99.796875 L 290.101562 99.410156 L 289.933594 99.285156 L 289.761719 99.15625 L 289.59375 99.03125 L 289.421875 98.910156 L 289.25 98.785156 L 289.074219 98.664062 L 288.902344 98.542969 L 288.726562 98.425781 L 288.550781 98.304688 L 288.375 98.1875 L 288.199219 98.074219 L 288.019531 97.957031 L 287.84375 97.84375 L 287.664062 97.730469 L 287.304688 97.511719 L 287.121094 97.402344 L 286.941406 97.292969 L 286.757812 97.183594 L 286.574219 97.078125 L 286.390625 96.976562 L 286.207031 96.871094 L 286.019531 96.769531 L 285.835938 96.667969 L 285.648438 96.570312 L 285.460938 96.46875 L 285.273438 96.371094 L 285.085938 96.277344 L 284.898438 96.179688 L 284.515625 95.992188 L 284.328125 95.902344 L 284.136719 95.8125 L 283.941406 95.722656 L 283.75 95.636719 L 283.558594 95.546875 L 283.363281 95.464844 L 283.171875 95.378906 L 282.585938 95.132812 L 282.390625 95.054688 L 282.191406 94.976562 L 281.996094 94.898438 L 281.597656 94.75 L 281.402344 94.675781 L 281.003906 94.535156 L 280.800781 94.464844 L 280.402344 94.332031 L 280.199219 94.265625 L 280 94.203125 L 279.390625 94.015625 L 278.984375 93.898438 L 278.578125 93.789062 L 278.371094 93.734375 L 278.167969 93.683594 L 277.753906 93.582031 L 277.550781 93.53125 L 277.34375 93.484375 L 277.136719 93.441406 L 276.929688 93.394531 L 276.515625 93.308594 L 276.101562 93.230469 L 275.890625 93.191406 L 275.476562 93.121094 L 275.265625 93.085938 L 275.058594 93.050781 L 274.847656 93.019531 L 274.640625 92.992188 L 274.429688 92.960938 L 274.21875 92.933594 L 274.011719 92.910156 L 273.800781 92.882812 L 273.589844 92.859375 L 273.378906 92.839844 L 273.167969 92.816406 L 272.957031 92.796875 L 272.746094 92.78125 L 272.535156 92.761719 L 272.324219 92.746094 L 271.480469 92.699219 L 270.847656 92.675781 L 270.632812 92.671875 L 270.421875 92.667969 L 270 92.667969 Z M 270 59.332031 "/>
<path style=" stroke:none;fill-rule:nonzero;fill:rgb(49.019608%,52.941176%,72.54902%);fill-opacity:1;" d="M 312.851562 74.929688 L 313.175781 75.203125 L 313.492188 75.476562 L 313.8125 75.75 L 314.128906 76.027344 L 315.066406 76.871094 L 315.375 77.15625 L 315.683594 77.445312 L 315.988281 77.734375 L 316.292969 78.027344 L 316.894531 78.613281 L 317.191406 78.910156 L 317.488281 79.210938 L 318.074219 79.8125 L 318.652344 80.421875 L 318.941406 80.730469 L 319.226562 81.039062 L 319.789062 81.664062 L 320.34375 82.296875 L 321.164062 83.257812 L 321.429688 83.582031 L 321.699219 83.90625 L 321.960938 84.234375 L 322.226562 84.5625 L 323 85.558594 L 323.507812 86.230469 L 323.757812 86.570312 L 324.25 87.25 L 324.492188 87.59375 L 324.734375 87.941406 L 324.972656 88.285156 L 325.210938 88.632812 L 325.445312 88.984375 L 325.675781 89.332031 L 325.90625 89.683594 L 326.136719 90.039062 L 326.363281 90.394531 L 326.585938 90.75 L 326.804688 91.109375 L 327.027344 91.46875 L 327.242188 91.828125 L 327.457031 92.191406 L 327.878906 92.917969 L 328.292969 93.652344 L 328.496094 94.019531 L 328.894531 94.761719 L 329.285156 95.503906 L 329.476562 95.878906 L 329.664062 96.257812 L 329.851562 96.632812 L 330.035156 97.011719 L 330.214844 97.390625 L 330.394531 97.773438 L 330.574219 98.152344 L 330.746094 98.535156 L 330.917969 98.921875 L 331.089844 99.304688 L 331.257812 99.691406 L 331.421875 100.078125 L 331.582031 100.464844 L 331.902344 101.246094 L 332.207031 102.027344 L 332.359375 102.421875 L 332.503906 102.816406 L 332.652344 103.210938 L 332.792969 103.605469 L 332.933594 104.003906 L 333.207031 104.800781 L 333.339844 105.199219 L 333.46875 105.597656 L 333.597656 106 L 333.722656 106.402344 L 333.964844 107.207031 L 334.082031 107.613281 L 334.195312 108.015625 L 334.308594 108.421875 L 334.417969 108.828125 L 334.628906 109.640625 L 334.730469 110.050781 L 334.828125 110.460938 L 334.925781 110.867188 L 335.113281 111.6875 L 335.203125 112.101562 L 335.289062 112.511719 L 335.371094 112.925781 L 335.453125 113.335938 L 335.609375 114.164062 L 335.75 114.992188 L 335.820312 115.410156 L 335.886719 115.824219 L 335.949219 116.242188 L 336.007812 116.65625 L 336.066406 117.074219 L 336.121094 117.492188 L 336.171875 117.90625 L 336.222656 118.324219 L 336.269531 118.742188 L 336.316406 119.164062 L 336.433594 120.417969 L 336.464844 120.839844 L 336.527344 121.675781 L 336.550781 122.097656 L 336.574219 122.515625 L 336.597656 122.9375 L 336.613281 123.359375 L 336.628906 123.777344 L 336.652344 124.621094 L 336.660156 125.039062 L 336.667969 125.882812 L 336.664062 126.300781 L 336.664062 126.722656 L 336.65625 127.144531 L 336.648438 127.5625 L 336.625 128.40625 L 336.605469 128.824219 L 336.566406 129.667969 L 336.542969 130.085938 L 336.515625 130.507812 L 336.453125 131.34375 L 336.417969 131.765625 L 336.339844 132.601562 L 336.296875 133.019531 L 336.203125 133.855469 L 336.152344 134.273438 L 336.042969 135.109375 L 335.984375 135.527344 L 335.921875 135.941406 L 335.855469 136.359375 L 335.722656 137.1875 L 335.574219 138.015625 L 335.417969 138.84375 L 335.335938 139.253906 L 335.25 139.667969 L 335.164062 140.078125 L 335.074219 140.492188 L 334.980469 140.902344 L 334.886719 141.308594 L 334.785156 141.71875 L 334.6875 142.128906 L 334.476562 142.941406 L 334.371094 143.351562 L 334.257812 143.753906 L 334.03125 144.566406 L 333.667969 145.773438 L 333.539062 146.175781 L 333.410156 146.574219 L 333.28125 146.976562 L 333.148438 147.375 L 333.011719 147.773438 L 332.871094 148.171875 L 332.730469 148.566406 L 332.441406 149.355469 L 332.292969 149.75 L 332.140625 150.144531 L 331.988281 150.535156 L 331.832031 150.925781 L 331.671875 151.316406 L 331.511719 151.703125 L 331.183594 152.476562 L 331.015625 152.863281 L 330.84375 153.246094 L 330.671875 153.632812 L 330.496094 154.011719 L 330.316406 154.394531 L 330.136719 154.773438 L 329.769531 155.53125 L 329.582031 155.90625 L 329.390625 156.285156 L 329.199219 156.65625 L 329.003906 157.03125 L 328.808594 157.402344 L 328.609375 157.773438 L 328.40625 158.140625 L 328.203125 158.511719 L 327.996094 158.875 L 327.789062 159.242188 L 327.578125 159.605469 L 327.148438 160.332031 L 326.929688 160.691406 L 326.710938 161.046875 L 326.488281 161.40625 L 326.035156 162.117188 L 325.808594 162.46875 L 325.574219 162.820312 L 325.34375 163.171875 L 324.867188 163.867188 L 324.628906 164.210938 L 324.386719 164.554688 L 324.140625 164.898438 L 323.648438 165.578125 L 323.394531 165.914062 L 323.144531 166.253906 L 322.886719 166.585938 L 322.632812 166.917969 L 322.109375 167.582031 L 321.847656 167.910156 L 321.582031 168.234375 L 321.042969 168.882812 L 320.773438 169.203125 L 320.5 169.523438 L 319.945312 170.15625 L 319.664062 170.472656 L 319.382812 170.785156 L 319.101562 171.09375 L 318.816406 171.402344 L 318.527344 171.710938 L 318.238281 172.015625 L 317.945312 172.320312 L 317.359375 172.921875 L 317.0625 173.21875 L 316.761719 173.515625 L 316.160156 174.101562 L 315.855469 174.390625 L 315.238281 174.96875 L 314.929688 175.25 L 314.617188 175.535156 L 314.304688 175.816406 L 313.671875 176.371094 L 313.355469 176.644531 L 313.035156 176.917969 L 312.386719 177.457031 L 312.0625 177.722656 L 311.734375 177.988281 L 311.40625 178.25 L 311.074219 178.507812 L 310.742188 178.769531 L 310.410156 179.023438 L 309.738281 179.53125 L 309.398438 179.78125 L 309.058594 180.027344 L 308.714844 180.273438 L 308.027344 180.757812 L 307.683594 180.996094 L 307.335938 181.230469 L 306.984375 181.46875 L 306.632812 181.699219 L 288.316406 153.847656 L 288.492188 153.734375 L 288.667969 153.617188 L 288.839844 153.496094 L 289.015625 153.378906 L 289.359375 153.136719 L 289.527344 153.011719 L 289.699219 152.890625 L 290.035156 152.640625 L 290.539062 152.253906 L 290.703125 152.125 L 290.867188 151.992188 L 291.03125 151.863281 L 291.195312 151.726562 L 291.355469 151.59375 L 291.515625 151.457031 L 291.675781 151.324219 L 291.835938 151.183594 L 291.996094 151.046875 L 292.621094 150.484375 L 293.230469 149.90625 L 293.382812 149.757812 L 293.828125 149.3125 L 294.117188 149.007812 L 294.265625 148.855469 L 294.40625 148.703125 L 294.550781 148.546875 L 295.113281 147.921875 L 295.523438 147.441406 L 295.65625 147.28125 L 296.1875 146.625 L 296.316406 146.460938 L 296.445312 146.292969 L 296.570312 146.125 L 296.699219 145.957031 L 296.949219 145.621094 L 297.070312 145.449219 L 297.195312 145.277344 L 297.316406 145.105469 L 297.433594 144.933594 L 297.554688 144.757812 L 297.671875 144.585938 L 297.789062 144.410156 L 297.902344 144.234375 L 298.019531 144.058594 L 298.132812 143.882812 L 298.242188 143.703125 L 298.355469 143.523438 L 298.683594 142.984375 L 298.789062 142.804688 L 299 142.4375 L 299.304688 141.886719 L 299.402344 141.703125 L 299.503906 141.515625 L 299.597656 141.328125 L 299.695312 141.140625 L 299.976562 140.578125 L 300.070312 140.386719 L 300.160156 140.199219 L 300.246094 140.007812 L 300.335938 139.816406 L 300.507812 139.433594 L 300.589844 139.238281 L 300.675781 139.046875 L 300.757812 138.851562 L 301.070312 138.070312 L 301.21875 137.679688 L 301.292969 137.480469 L 301.367188 137.285156 L 301.4375 137.085938 L 301.503906 136.886719 L 301.574219 136.6875 L 301.707031 136.289062 L 301.769531 136.085938 L 301.894531 135.6875 L 301.957031 135.484375 L 302.015625 135.28125 L 302.074219 135.082031 L 302.292969 134.269531 L 302.34375 134.0625 L 302.394531 133.859375 L 302.441406 133.65625 L 302.488281 133.449219 L 302.535156 133.246094 L 302.582031 133.039062 L 302.625 132.832031 L 302.667969 132.628906 L 302.707031 132.421875 L 302.75 132.214844 L 302.789062 132.007812 L 302.929688 131.179688 L 302.960938 130.972656 L 302.992188 130.761719 L 303.046875 130.347656 L 303.074219 130.136719 L 303.101562 129.929688 L 303.125 129.71875 L 303.148438 129.511719 L 303.167969 129.300781 L 303.191406 129.089844 L 303.207031 128.882812 L 303.226562 128.671875 L 303.242188 128.464844 L 303.257812 128.253906 L 303.28125 127.832031 L 303.292969 127.625 L 303.304688 127.414062 L 303.320312 126.992188 L 303.328125 126.570312 L 303.332031 126.363281 L 303.332031 125.730469 L 303.328125 125.519531 L 303.328125 125.308594 L 303.320312 125.097656 L 303.316406 124.890625 L 303.308594 124.679688 L 303.296875 124.46875 L 303.289062 124.257812 L 303.277344 124.046875 L 303.261719 123.839844 L 303.25 123.628906 L 303.234375 123.417969 L 303.214844 123.210938 L 303.199219 123 L 303.179688 122.789062 L 303.15625 122.582031 L 303.136719 122.371094 L 303.113281 122.164062 L 303.085938 121.953125 L 303.0625 121.746094 L 303.03125 121.535156 L 303.003906 121.328125 L 302.941406 120.914062 L 302.910156 120.703125 L 302.804688 120.082031 L 302.6875 119.460938 L 302.644531 119.257812 L 302.601562 119.050781 L 302.554688 118.84375 L 302.511719 118.640625 L 302.464844 118.433594 L 302.414062 118.230469 L 302.367188 118.023438 L 302.3125 117.820312 L 302.261719 117.617188 L 302.097656 117.007812 L 302.039062 116.804688 L 301.980469 116.605469 L 301.921875 116.402344 L 301.859375 116.199219 L 301.734375 115.800781 L 301.667969 115.597656 L 301.535156 115.199219 L 301.464844 115 L 301.398438 114.804688 L 301.324219 114.605469 L 301.253906 114.40625 L 301.105469 114.015625 L 301.027344 113.820312 L 300.949219 113.621094 L 300.871094 113.429688 L 300.792969 113.234375 L 300.628906 112.84375 L 300.542969 112.652344 L 300.460938 112.460938 L 300.375 112.269531 L 300.285156 112.078125 L 300.199219 111.886719 L 300.109375 111.695312 L 300.015625 111.507812 L 299.925781 111.316406 L 299.738281 110.941406 L 299.640625 110.753906 L 299.546875 110.566406 L 299.445312 110.378906 L 299.347656 110.195312 L 299.246094 110.007812 L 298.941406 109.457031 L 298.835938 109.277344 L 298.726562 109.09375 L 298.621094 108.914062 L 298.292969 108.375 L 298.179688 108.195312 L 297.839844 107.667969 L 297.605469 107.316406 L 297.488281 107.144531 L 297.367188 106.96875 L 297.003906 106.453125 L 296.628906 105.949219 L 296.242188 105.445312 L 296.113281 105.28125 L 295.847656 104.953125 L 295.714844 104.792969 L 295.582031 104.628906 L 295.171875 104.148438 L 295.035156 103.992188 L 294.894531 103.832031 L 294.613281 103.519531 L 294.46875 103.367188 L 294.328125 103.210938 L 294.039062 102.90625 L 293.890625 102.753906 L 293.742188 102.605469 L 293.597656 102.457031 L 293.445312 102.308594 L 293.296875 102.160156 L 293.144531 102.011719 L 292.6875 101.578125 L 292.53125 101.4375 L 292.378906 101.292969 L 292.222656 101.152344 L 292.0625 101.015625 L 291.90625 100.875 L 291.425781 100.464844 Z M 312.851562 74.929688 "/>
<path style=" stroke:none;fill-rule:nonzero;fill:rgb(74.509804%,75.686275%,83.137255%);fill-opacity:1;" d="M 306.632812 181.699219 L 306.28125 181.929688 L 305.925781 182.15625 L 305.574219 182.382812 L 305.214844 182.605469 L 304.859375 182.828125 L 304.5 183.046875 L 303.410156 183.691406 L 303.046875 183.898438 L 302.3125 184.3125 L 301.945312 184.515625 L 301.203125 184.914062 L 300.828125 185.109375 L 300.457031 185.304688 L 300.082031 185.496094 L 299.703125 185.683594 L 299.328125 185.871094 L 298.949219 186.054688 L 298.570312 186.234375 L 298.1875 186.414062 L 297.421875 186.765625 L 297.039062 186.9375 L 296.265625 187.273438 L 295.492188 187.601562 L 295.101562 187.761719 L 294.320312 188.074219 L 293.925781 188.226562 L 293.535156 188.375 L 293.140625 188.523438 L 292.746094 188.667969 L 292.347656 188.808594 L 291.953125 188.949219 L 291.15625 189.222656 L 290.753906 189.351562 L 290.355469 189.484375 L 289.550781 189.734375 L 288.746094 189.976562 L 288.339844 190.09375 L 287.9375 190.207031 L 287.53125 190.320312 L 287.125 190.429688 L 286.714844 190.535156 L 286.308594 190.640625 L 285.902344 190.742188 L 285.492188 190.84375 L 284.261719 191.125 L 283.847656 191.210938 L 283.4375 191.296875 L 283.023438 191.382812 L 282.613281 191.464844 L 282.199219 191.542969 L 281.371094 191.691406 L 280.953125 191.761719 L 280.539062 191.828125 L 280.121094 191.894531 L 279.707031 191.957031 L 279.289062 192.015625 L 278.875 192.074219 L 278.457031 192.128906 L 277.621094 192.230469 L 277.203125 192.277344 L 276.78125 192.320312 L 276.363281 192.363281 L 275.945312 192.402344 L 275.527344 192.4375 L 275.105469 192.472656 L 274.6875 192.5 L 274.265625 192.53125 L 273.847656 192.554688 L 273.425781 192.578125 L 273.003906 192.597656 L 272.585938 192.617188 L 272.164062 192.632812 L 271.742188 192.644531 L 271.324219 192.652344 L 270.902344 192.660156 L 270.058594 192.667969 L 269.640625 192.664062 L 268.796875 192.65625 L 268.375 192.648438 L 267.957031 192.636719 L 267.113281 192.605469 L 266.695312 192.585938 L 266.273438 192.5625 L 265.855469 192.539062 L 265.433594 192.511719 L 265.015625 192.480469 L 264.59375 192.445312 L 264.175781 192.410156 L 263.753906 192.375 L 262.917969 192.289062 L 262.082031 192.195312 L 261.664062 192.144531 L 261.246094 192.089844 L 260.828125 192.03125 L 260.414062 191.972656 L 259.578125 191.847656 L 259.164062 191.78125 L 258.75 191.710938 L 257.921875 191.5625 L 257.09375 191.40625 L 256.679688 191.324219 L 256.269531 191.238281 L 255.855469 191.148438 L 255.445312 191.058594 L 254.625 190.871094 L 254.214844 190.769531 L 253.808594 190.671875 L 253.398438 190.566406 L 252.992188 190.460938 L 252.179688 190.242188 L 251.773438 190.128906 L 251.371094 190.011719 L 250.964844 189.890625 L 250.5625 189.769531 L 249.757812 189.519531 L 249.359375 189.390625 L 248.960938 189.257812 L 248.558594 189.125 L 248.160156 188.988281 L 247.765625 188.847656 L 247.367188 188.707031 L 246.578125 188.417969 L 246.183594 188.269531 L 245.792969 188.117188 L 245.398438 187.960938 L 245.007812 187.804688 L 244.621094 187.644531 L 244.230469 187.484375 L 243.457031 187.15625 L 243.070312 186.984375 L 242.6875 186.816406 L 241.921875 186.464844 L 241.539062 186.285156 L 241.160156 186.105469 L 240.402344 185.738281 L 240.027344 185.546875 L 239.652344 185.359375 L 238.902344 184.96875 L 238.53125 184.773438 L 238.160156 184.574219 L 237.425781 184.167969 L 237.058594 183.960938 L 236.691406 183.75 L 236.328125 183.539062 L 235.964844 183.324219 L 235.605469 183.109375 L 234.886719 182.671875 L 234.53125 182.445312 L 234.171875 182.222656 L 233.820312 181.996094 L 233.464844 181.765625 L 233.117188 181.535156 L 232.765625 181.300781 L 232.070312 180.824219 L 231.726562 180.585938 L 231.378906 180.339844 L 231.039062 180.097656 L 230.699219 179.847656 L 230.359375 179.601562 L 230.019531 179.347656 L 229.683594 179.09375 L 229.351562 178.839844 L 229.015625 178.582031 L 228.6875 178.324219 L 228.355469 178.058594 L 228.027344 177.796875 L 227.703125 177.53125 L 227.054688 176.992188 L 226.414062 176.445312 L 225.78125 175.890625 L 225.46875 175.613281 L 225.15625 175.328125 L 224.84375 175.046875 L 224.535156 174.757812 L 224.230469 174.472656 L 223.921875 174.179688 L 223.621094 173.890625 L 223.320312 173.59375 L 223.019531 173.300781 L 222.722656 173.003906 L 222.425781 172.703125 L 222.132812 172.402344 L 221.839844 172.097656 L 221.261719 171.488281 L 220.976562 171.175781 L 220.691406 170.867188 L 220.128906 170.242188 L 219.574219 169.609375 L 219.027344 168.96875 L 218.488281 168.320312 L 218.222656 167.996094 L 217.957031 167.667969 L 217.695312 167.335938 L 217.4375 167.007812 L 217.179688 166.671875 L 216.921875 166.339844 L 216.667969 166.003906 L 216.417969 165.664062 L 216.167969 165.328125 L 215.921875 164.984375 L 215.675781 164.644531 L 215.433594 164.300781 L 215.191406 163.953125 L 214.953125 163.609375 L 214.71875 163.257812 L 214.484375 162.910156 L 214.25 162.558594 L 214.023438 162.207031 L 213.792969 161.851562 L 213.347656 161.140625 L 213.125 160.78125 L 212.90625 160.421875 L 212.476562 159.695312 L 212.265625 159.332031 L 241.132812 142.667969 L 241.238281 142.847656 L 241.34375 143.03125 L 241.671875 143.570312 L 241.785156 143.746094 L 241.898438 143.925781 L 242.125 144.277344 L 242.476562 144.804688 L 242.597656 144.976562 L 242.714844 145.148438 L 242.839844 145.320312 L 242.960938 145.492188 L 243.085938 145.664062 L 243.207031 145.832031 L 243.335938 146 L 243.460938 146.167969 L 243.71875 146.503906 L 243.847656 146.667969 L 243.980469 146.832031 L 244.109375 146.996094 L 244.246094 147.160156 L 244.378906 147.324219 L 244.511719 147.484375 L 244.785156 147.804688 L 244.925781 147.960938 L 245.0625 148.121094 L 245.34375 148.433594 L 245.488281 148.589844 L 245.628906 148.742188 L 245.773438 148.898438 L 245.917969 149.050781 L 246.066406 149.199219 L 246.210938 149.351562 L 246.507812 149.648438 L 246.660156 149.796875 L 246.808594 149.945312 L 247.113281 150.234375 L 247.269531 150.378906 L 247.421875 150.523438 L 248.046875 151.085938 L 248.6875 151.632812 L 249.179688 152.03125 L 249.34375 152.160156 L 249.507812 152.292969 L 249.675781 152.421875 L 249.84375 152.546875 L 250.011719 152.675781 L 250.347656 152.925781 L 250.519531 153.046875 L 250.691406 153.171875 L 251.035156 153.414062 L 251.207031 153.53125 L 251.734375 153.882812 L 252.085938 154.109375 L 252.265625 154.222656 L 252.441406 154.335938 L 252.800781 154.554688 L 252.984375 154.664062 L 253.164062 154.769531 L 253.347656 154.875 L 253.527344 154.980469 L 253.894531 155.183594 L 254.082031 155.285156 L 254.265625 155.386719 L 254.453125 155.484375 L 254.636719 155.582031 L 254.824219 155.679688 L 255.011719 155.773438 L 255.203125 155.867188 L 255.578125 156.054688 L 255.960938 156.234375 L 256.726562 156.578125 L 257.117188 156.742188 L 257.308594 156.824219 L 257.894531 157.058594 L 258.09375 157.132812 L 258.289062 157.207031 L 258.488281 157.28125 L 258.683594 157.355469 L 259.082031 157.496094 L 259.878906 157.761719 L 260.082031 157.824219 L 260.28125 157.886719 L 260.484375 157.945312 L 260.683594 158.003906 L 261.089844 158.121094 L 261.699219 158.285156 L 261.902344 158.335938 L 262.109375 158.386719 L 262.3125 158.433594 L 262.519531 158.484375 L 262.722656 158.53125 L 262.929688 158.574219 L 263.132812 158.617188 L 263.546875 158.703125 L 264.167969 158.820312 L 264.582031 158.890625 L 264.789062 158.921875 L 264.996094 158.957031 L 265.207031 158.988281 L 265.621094 159.042969 L 265.832031 159.070312 L 266.039062 159.097656 L 266.25 159.121094 L 266.457031 159.144531 L 266.667969 159.167969 L 266.878906 159.1875 L 267.085938 159.207031 L 267.507812 159.238281 L 267.714844 159.253906 L 267.925781 159.269531 L 268.347656 159.292969 L 268.558594 159.300781 L 268.765625 159.308594 L 269.1875 159.324219 L 269.609375 159.332031 L 270.449219 159.332031 L 270.660156 159.328125 L 270.871094 159.320312 L 271.082031 159.316406 L 271.503906 159.300781 L 271.714844 159.289062 L 271.921875 159.277344 L 272.132812 159.265625 L 272.554688 159.234375 L 272.761719 159.21875 L 273.183594 159.179688 L 273.390625 159.160156 L 273.601562 159.136719 L 273.808594 159.113281 L 274.019531 159.089844 L 274.226562 159.0625 L 274.4375 159.035156 L 274.644531 159.007812 L 274.851562 158.976562 L 275.0625 158.945312 L 275.269531 158.914062 L 275.890625 158.808594 L 276.511719 158.691406 L 276.925781 158.605469 L 277.128906 158.5625 L 277.335938 158.515625 L 277.539062 158.46875 L 277.746094 158.421875 L 277.949219 158.371094 L 278.15625 158.320312 L 278.359375 158.269531 L 278.96875 158.105469 L 279.171875 158.046875 L 279.371094 157.988281 L 279.574219 157.929688 L 279.777344 157.867188 L 280.175781 157.742188 L 280.378906 157.675781 L 280.777344 157.542969 L 280.976562 157.472656 L 281.175781 157.40625 L 281.371094 157.332031 L 281.570312 157.261719 L 281.765625 157.1875 L 281.964844 157.113281 L 282.746094 156.800781 L 282.941406 156.71875 L 283.132812 156.636719 L 283.328125 156.554688 L 283.902344 156.296875 L 284.285156 156.117188 L 284.472656 156.027344 L 284.664062 155.933594 L 285.226562 155.652344 L 285.601562 155.457031 L 285.785156 155.359375 L 285.972656 155.257812 L 286.339844 155.054688 L 286.707031 154.84375 L 286.886719 154.738281 L 287.070312 154.632812 L 287.609375 154.304688 L 287.785156 154.191406 L 287.964844 154.078125 L 288.140625 153.964844 L 288.316406 153.847656 Z M 306.632812 181.699219 "/>
<path style=" stroke:none;fill-rule:nonzero;fill:rgb(83.921569%,73.72549%,75.294118%);fill-opacity:1;" d="M 212.265625 159.332031 L 212.054688 158.96875 L 211.847656 158.597656 L 211.640625 158.230469 L 211.4375 157.859375 L 211.039062 157.117188 L 210.84375 156.742188 L 210.460938 155.992188 L 210.269531 155.613281 L 209.902344 154.855469 L 209.71875 154.472656 L 209.539062 154.089844 L 209.363281 153.707031 L 209.191406 153.324219 L 208.847656 152.550781 L 208.679688 152.164062 L 208.515625 151.773438 L 208.195312 150.992188 L 208.039062 150.601562 L 207.882812 150.207031 L 207.730469 149.816406 L 207.582031 149.421875 L 207.433594 149.023438 L 207.289062 148.628906 L 207.007812 147.832031 L 206.871094 147.433594 L 206.738281 147.03125 L 206.605469 146.632812 L 206.476562 146.230469 L 206.351562 145.828125 L 206.226562 145.421875 L 206.105469 145.019531 L 205.984375 144.613281 L 205.867188 144.207031 L 205.753906 143.800781 L 205.535156 142.988281 L 205.425781 142.578125 L 205.222656 141.757812 L 205.027344 140.9375 L 204.933594 140.527344 L 204.84375 140.113281 L 204.757812 139.699219 L 204.671875 139.289062 L 204.589844 138.875 L 204.507812 138.457031 L 204.429688 138.042969 L 204.355469 137.628906 L 204.28125 137.210938 L 204.214844 136.796875 L 204.144531 136.378906 L 204.019531 135.542969 L 203.960938 135.125 L 203.851562 134.289062 L 203.75 133.453125 L 203.707031 133.03125 L 203.660156 132.613281 L 203.582031 131.769531 L 203.546875 131.351562 L 203.484375 130.507812 L 203.457031 130.085938 L 203.433594 129.664062 L 203.414062 129.242188 L 203.394531 128.824219 L 203.375 128.402344 L 203.363281 127.980469 L 203.351562 127.554688 L 203.335938 126.710938 L 203.332031 126.289062 L 203.332031 125.867188 L 203.339844 125.023438 L 203.347656 124.601562 L 203.371094 123.757812 L 203.386719 123.335938 L 203.425781 122.492188 L 203.449219 122.070312 L 203.503906 121.226562 L 203.535156 120.808594 L 203.605469 119.964844 L 203.644531 119.546875 L 203.6875 119.125 L 203.734375 118.707031 L 203.78125 118.285156 L 203.882812 117.449219 L 203.941406 117.03125 L 203.996094 116.613281 L 204.121094 115.777344 L 204.1875 115.359375 L 204.257812 114.945312 L 204.328125 114.527344 L 204.402344 114.113281 L 204.476562 113.695312 L 204.722656 112.453125 L 204.8125 112.042969 L 204.992188 111.214844 L 205.089844 110.804688 L 205.183594 110.394531 L 205.386719 109.574219 L 205.492188 109.167969 L 205.601562 108.757812 L 205.710938 108.351562 L 205.824219 107.945312 L 206.058594 107.132812 L 206.179688 106.726562 L 206.429688 105.921875 L 206.6875 105.117188 L 206.820312 104.71875 L 206.957031 104.316406 L 207.238281 103.519531 L 207.382812 103.125 L 207.527344 102.726562 L 207.675781 102.332031 L 207.828125 101.9375 L 207.980469 101.546875 L 208.136719 101.152344 L 208.457031 100.371094 L 208.621094 99.984375 L 208.785156 99.59375 L 239.394531 112.796875 L 239.308594 112.992188 L 239.226562 113.1875 L 239.148438 113.382812 L 239.066406 113.578125 L 238.988281 113.773438 L 238.914062 113.96875 L 238.835938 114.167969 L 238.761719 114.363281 L 238.691406 114.5625 L 238.617188 114.761719 L 238.546875 114.960938 L 238.480469 115.160156 L 238.410156 115.359375 L 238.277344 115.757812 L 238.152344 116.164062 L 238.089844 116.363281 L 238.03125 116.566406 L 237.96875 116.769531 L 237.914062 116.972656 L 237.855469 117.175781 L 237.746094 117.582031 L 237.695312 117.789062 L 237.644531 117.992188 L 237.59375 118.199219 L 237.542969 118.402344 L 237.496094 118.609375 L 237.449219 118.8125 L 237.277344 119.640625 L 237.199219 120.054688 L 237.164062 120.265625 L 237.09375 120.679688 L 237.0625 120.886719 L 237.027344 121.097656 L 237 121.304688 L 236.96875 121.515625 L 236.941406 121.722656 L 236.914062 121.933594 L 236.890625 122.144531 L 236.867188 122.351562 L 236.84375 122.5625 L 236.785156 123.195312 L 236.769531 123.402344 L 236.722656 124.035156 L 236.710938 124.246094 L 236.703125 124.457031 L 236.691406 124.667969 L 236.683594 124.878906 L 236.667969 125.722656 L 236.667969 126.355469 L 236.679688 126.988281 L 236.695312 127.410156 L 236.742188 128.253906 L 236.773438 128.675781 L 236.792969 128.886719 L 236.8125 129.09375 L 236.851562 129.515625 L 236.875 129.726562 L 236.898438 129.933594 L 236.953125 130.355469 L 236.980469 130.5625 L 237.011719 130.773438 L 237.039062 130.980469 L 237.074219 131.191406 L 237.105469 131.398438 L 237.175781 131.8125 L 237.214844 132.023438 L 237.292969 132.4375 L 237.421875 133.058594 L 237.46875 133.261719 L 237.5625 133.675781 L 237.613281 133.878906 L 237.660156 134.085938 L 237.714844 134.289062 L 237.765625 134.492188 L 237.820312 134.699219 L 237.878906 134.902344 L 237.933594 135.105469 L 237.992188 135.308594 L 238.050781 135.507812 L 238.175781 135.914062 L 238.238281 136.113281 L 238.304688 136.316406 L 238.367188 136.515625 L 238.4375 136.714844 L 238.503906 136.914062 L 238.644531 137.3125 L 238.792969 137.710938 L 238.867188 137.90625 L 238.941406 138.105469 L 239.175781 138.691406 L 239.339844 139.082031 L 239.425781 139.273438 L 239.507812 139.46875 L 239.59375 139.660156 L 239.683594 139.855469 L 239.769531 140.046875 L 239.859375 140.238281 L 239.949219 140.425781 L 240.042969 140.617188 L 240.136719 140.804688 L 240.230469 140.996094 L 240.324219 141.183594 L 240.519531 141.558594 L 240.621094 141.746094 L 240.71875 141.929688 L 240.820312 142.117188 L 240.921875 142.300781 L 241.132812 142.667969 Z M 212.265625 159.332031 "/>
<path style=" stroke:none;fill-rule:nonzero;fill:rgb(73.333333%,46.666667%,51.764706%);fill-opacity:1;" d="M 208.785156 99.59375 L 208.953125 99.207031 L 209.125 98.824219 L 209.296875 98.4375 L 209.472656 98.054688 L 209.652344 97.671875 L 209.832031 97.292969 L 210.015625 96.910156 L 210.199219 96.53125 L 210.386719 96.15625 L 210.578125 95.777344 L 210.769531 95.402344 L 210.964844 95.03125 L 211.160156 94.65625 L 211.359375 94.285156 L 211.5625 93.914062 L 211.765625 93.546875 L 212.179688 92.8125 L 212.390625 92.449219 L 212.820312 91.722656 L 213.039062 91.359375 L 213.257812 91 L 213.480469 90.644531 L 213.707031 90.285156 L 213.933594 89.929688 L 214.394531 89.226562 L 214.863281 88.523438 L 215.101562 88.175781 L 215.339844 87.832031 L 215.585938 87.484375 L 215.828125 87.140625 L 216.074219 86.800781 L 216.574219 86.121094 L 216.828125 85.785156 L 217.085938 85.449219 L 217.339844 85.117188 L 217.863281 84.453125 L 218.125 84.125 L 218.390625 83.796875 L 218.929688 83.148438 L 219.203125 82.824219 L 219.476562 82.503906 L 220.03125 81.871094 L 220.3125 81.554688 L 220.875 80.929688 L 221.164062 80.621094 L 221.449219 80.3125 L 221.742188 80.003906 L 222.03125 79.703125 L 222.324219 79.398438 L 222.621094 79.097656 L 222.917969 78.800781 L 223.519531 78.207031 L 223.824219 77.914062 L 224.433594 77.335938 L 224.742188 77.046875 L 225.054688 76.761719 L 225.679688 76.199219 L 225.996094 75.917969 L 226.3125 75.640625 L 226.953125 75.09375 L 227.277344 74.820312 L 227.601562 74.554688 L 227.925781 74.285156 L 228.253906 74.019531 L 228.917969 73.496094 L 229.582031 72.980469 L 229.917969 72.726562 L 230.257812 72.476562 L 230.597656 72.222656 L 230.9375 71.976562 L 231.28125 71.730469 L 231.96875 71.246094 L 232.316406 71.003906 L 232.664062 70.769531 L 233.367188 70.300781 L 233.71875 70.070312 L 234.785156 69.390625 L 235.503906 68.953125 L 235.867188 68.734375 L 236.230469 68.519531 L 236.59375 68.308594 L 236.960938 68.097656 L 237.324219 67.890625 L 237.695312 67.683594 L 238.0625 67.480469 L 238.804688 67.082031 L 239.554688 66.691406 L 239.929688 66.5 L 240.304688 66.3125 L 240.683594 66.125 L 241.0625 65.941406 L 241.445312 65.757812 L 241.824219 65.578125 L 242.207031 65.402344 L 242.59375 65.226562 L 242.976562 65.054688 L 243.75 64.71875 L 244.136719 64.554688 L 244.527344 64.390625 L 244.917969 64.230469 L 245.699219 63.917969 L 246.09375 63.765625 L 246.882812 63.46875 L 247.277344 63.324219 L 248.074219 63.042969 L 248.871094 62.769531 L 249.269531 62.636719 L 249.671875 62.507812 L 250.878906 62.132812 L 251.285156 62.015625 L 251.6875 61.898438 L 252.09375 61.78125 L 252.5 61.671875 L 252.910156 61.5625 L 253.316406 61.453125 L 253.726562 61.351562 L 254.132812 61.25 L 254.542969 61.148438 L 255.363281 60.960938 L 255.777344 60.867188 L 256.1875 60.78125 L 257.015625 60.609375 L 258.257812 60.375 L 258.671875 60.300781 L 259.089844 60.230469 L 259.503906 60.164062 L 259.921875 60.101562 L 260.335938 60.039062 L 260.753906 59.976562 L 262.007812 59.8125 L 262.429688 59.765625 L 262.847656 59.71875 L 263.265625 59.675781 L 263.6875 59.632812 L 264.105469 59.59375 L 264.527344 59.558594 L 264.945312 59.523438 L 265.367188 59.496094 L 265.785156 59.464844 L 266.628906 59.417969 L 267.050781 59.398438 L 267.472656 59.382812 L 267.890625 59.367188 L 268.734375 59.34375 L 270 59.332031 L 270 92.667969 L 269.578125 92.667969 L 269.15625 92.675781 L 268.523438 92.699219 L 268.3125 92.710938 L 268.105469 92.71875 L 267.894531 92.734375 L 267.683594 92.746094 L 267.261719 92.777344 L 267.054688 92.796875 L 266.632812 92.835938 L 266.421875 92.859375 L 266.214844 92.882812 L 266.003906 92.90625 L 265.796875 92.933594 L 265.585938 92.960938 L 265.378906 92.988281 L 265.167969 93.019531 L 264.753906 93.082031 L 264.542969 93.117188 L 264.128906 93.1875 L 263.507812 93.304688 L 262.886719 93.433594 L 262.683594 93.480469 L 262.476562 93.527344 L 262.273438 93.574219 L 262.066406 93.625 L 261.863281 93.675781 L 261.65625 93.726562 L 261.046875 93.890625 L 260.640625 94.007812 L 260.441406 94.066406 L 260.035156 94.191406 L 259.835938 94.253906 L 259.636719 94.320312 L 259.433594 94.386719 L 259.035156 94.519531 L 258.835938 94.589844 L 258.640625 94.664062 L 258.441406 94.734375 L 258.242188 94.808594 L 258.046875 94.882812 L 257.851562 94.960938 L 257.652344 95.039062 L 257.261719 95.195312 L 257.070312 95.277344 L 256.679688 95.441406 L 256.296875 95.613281 L 256.105469 95.703125 L 255.914062 95.789062 L 255.53125 95.96875 L 255.34375 96.0625 L 255.152344 96.15625 L 254.964844 96.25 L 254.777344 96.347656 L 254.589844 96.441406 L 254.402344 96.539062 L 254.21875 96.640625 L 254.03125 96.742188 L 253.480469 97.046875 L 253.296875 97.152344 L 253.113281 97.261719 L 252.933594 97.367188 L 252.394531 97.695312 L 252.035156 97.921875 L 251.859375 98.035156 L 251.683594 98.152344 L 251.507812 98.265625 L 251.332031 98.382812 L 251.15625 98.503906 L 250.984375 98.621094 L 250.8125 98.742188 L 250.640625 98.867188 L 250.46875 98.988281 L 250.296875 99.113281 L 249.960938 99.363281 L 249.457031 99.75 L 249.292969 99.878906 L 248.636719 100.410156 L 248.15625 100.820312 L 247.996094 100.960938 L 247.839844 101.097656 L 247.683594 101.238281 L 247.527344 101.382812 L 247.371094 101.523438 L 247.21875 101.667969 L 247.0625 101.8125 L 246.910156 101.957031 L 246.761719 102.105469 L 246.609375 102.25 L 246.460938 102.398438 L 246.3125 102.550781 L 246.164062 102.699219 L 246.015625 102.851562 L 245.582031 103.308594 L 245.4375 103.464844 L 245.015625 103.933594 L 244.875 104.09375 L 244.464844 104.574219 L 244.332031 104.734375 L 244.195312 104.898438 L 243.929688 105.226562 L 243.800781 105.390625 L 243.542969 105.726562 L 243.414062 105.890625 L 243.289062 106.0625 L 243.039062 106.398438 L 242.914062 106.570312 L 242.671875 106.914062 L 242.550781 107.089844 L 242.429688 107.261719 L 242.195312 107.613281 L 242.082031 107.789062 L 241.964844 107.964844 L 241.851562 108.144531 L 241.742188 108.320312 L 241.628906 108.5 L 241.410156 108.859375 L 241.300781 109.042969 L 241.195312 109.222656 L 240.984375 109.589844 L 240.78125 109.957031 L 240.679688 110.144531 L 240.582031 110.328125 L 240.480469 110.515625 L 240.382812 110.703125 L 240.289062 110.890625 L 240.191406 111.078125 L 240.097656 111.265625 L 240.007812 111.457031 L 239.914062 111.644531 L 239.824219 111.835938 L 239.738281 112.027344 L 239.648438 112.21875 L 239.5625 112.410156 L 239.476562 112.605469 L 239.394531 112.796875 Z M 208.785156 99.59375 "/>
</g>
</svg>
