<?xml version="1.0" encoding="UTF-8"?>
<svg xmlns="http://www.w3.org/2000/svg" xmlns:xlink="http://www.w3.org/1999/xlink" width="360pt" height="360pt" viewBox="0 0 360 360" version="1.1">
<g id="surface805">
<rect x="0" y="0" width="360" height="360" style="fill:rgb(100%,100%,100%);fill-opacity:1;stroke:none;"/>
<path style=" stroke:none;fill-rule:nonzero;fill:rgb(0.784314%,24.705882%,64.705882%);fill-opacity:1;" d="M 45 90 L 45 56.667969 L 45.421875 56.667969 L 45.632812 56.671875 L 45.847656 56.675781 L 46.480469 56.699219 L 47.324219 56.746094 L 47.535156 56.761719 L 47.746094 56.78125 L 47.957031 56.796875 L 48.167969 56.816406 L 48.378906 56.839844 L 48.589844 56.859375 L 48.800781 56.882812 L 49.011719 56.910156 L 49.21875 56.933594 L 49.429688 56.960938 L 49.640625 56.992188 L 49.847656 57.019531 L 50.058594 57.050781 L 50.265625 57.085938 L 50.476562 57.121094 L 50.890625 57.191406 L 51.101562 57.230469 L 51.515625 57.308594 L 51.929688 57.394531 L 52.136719 57.441406 L 52.34375 57.484375 L 52.550781 57.53125 L 52.753906 57.582031 L 53.167969 57.683594 L 53.371094 57.734375 L 53.578125 57.789062 L 53.984375 57.898438 L 54.390625 58.015625 L 55 58.203125 L 55.199219 58.265625 L 55.402344 58.332031 L 55.800781 58.464844 L 56.003906 58.535156 L 56.402344 58.675781 L 56.597656 58.75 L 56.996094 58.898438 L 57.191406 58.976562 L 57.390625 59.054688 L 57.585938 59.132812 L 58.171875 59.378906 L 58.363281 59.464844 L 58.558594 59.546875 L 58.75 59.636719 L 58.941406 59.722656 L 59.136719 59.8125 L 59.328125 59.902344 L 59.515625 59.992188 L 59.898438 60.179688 L 60.085938 60.277344 L 60.273438 60.371094 L 60.460938 60.46875 L 60.648438 60.570312 L 60.835938 60.667969 L 61.019531 60.769531 L 61.207031 60.871094 L 61.390625 60.976562 L 61.574219 61.078125 L 61.757812 61.183594 L 61.941406 61.292969 L 62.121094 61.402344 L 62.304688 61.511719 L 62.664062 61.730469 L 62.84375 61.84375 L 63.019531 61.957031 L 63.199219 62.074219 L 63.375 62.1875 L 63.550781 62.304688 L 63.726562 62.425781 L 63.902344 62.542969 L 64.074219 62.664062 L 64.25 62.785156 L 64.421875 62.910156 L 64.59375 63.03125 L 64.761719 63.15625 L 64.933594 63.285156 L 65.101562 63.410156 L 65.605469 63.796875 L 65.769531 63.929688 L 65.9375 64.0625 L 66.265625 64.328125 L 66.425781 64.464844 Z M 45 90 "/>
<path style=" stroke:none;fill-rule:nonzero;fill:rgb(49.019608%,52.941176%,72.54902%);fill-opacity:1;" d="M 45 90 L 66.425781 64.464844 L 66.90625 64.875 L 67.0625 65.015625 L 67.222656 65.152344 L 67.378906 65.292969 L 67.53125 65.4375 L 67.6875 65.578125 L 68.144531 66.011719 L 68.296875 66.160156 L 68.445312 66.308594 L 68.597656 66.457031 L 68.742188 66.605469 L 68.890625 66.753906 L 69.039062 66.90625 L 69.328125 67.210938 L 69.46875 67.367188 L 69.613281 67.519531 L 69.894531 67.832031 L 70.035156 67.992188 L 70.171875 68.148438 L 70.582031 68.628906 L 70.714844 68.792969 L 70.847656 68.953125 L 71.113281 69.28125 L 71.242188 69.445312 L 71.628906 69.949219 L 72.003906 70.453125 L 72.367188 70.96875 L 72.488281 71.144531 L 72.605469 71.316406 L 72.839844 71.667969 L 73.179688 72.195312 L 73.292969 72.375 L 73.621094 72.914062 L 73.726562 73.09375 L 73.835938 73.277344 L 73.941406 73.457031 L 74.246094 74.007812 L 74.347656 74.195312 L 74.445312 74.378906 L 74.546875 74.566406 L 74.640625 74.753906 L 74.738281 74.941406 L 74.925781 75.316406 L 75.015625 75.507812 L 75.109375 75.695312 L 75.199219 75.886719 L 75.285156 76.078125 L 75.375 76.269531 L 75.460938 76.460938 L 75.542969 76.652344 L 75.628906 76.84375 L 75.792969 77.234375 L 75.871094 77.429688 L 75.949219 77.621094 L 76.027344 77.820312 L 76.105469 78.015625 L 76.253906 78.40625 L 76.324219 78.605469 L 76.398438 78.804688 L 76.464844 79 L 76.535156 79.199219 L 76.667969 79.597656 L 76.734375 79.800781 L 76.859375 80.199219 L 76.921875 80.402344 L 76.980469 80.605469 L 77.039062 80.804688 L 77.097656 81.007812 L 77.261719 81.617188 L 77.3125 81.820312 L 77.367188 82.023438 L 77.414062 82.230469 L 77.464844 82.433594 L 77.511719 82.640625 L 77.554688 82.84375 L 77.601562 83.050781 L 77.644531 83.257812 L 77.6875 83.460938 L 77.804688 84.082031 L 77.910156 84.703125 L 77.941406 84.914062 L 78.003906 85.328125 L 78.03125 85.535156 L 78.0625 85.746094 L 78.085938 85.953125 L 78.113281 86.164062 L 78.136719 86.371094 L 78.15625 86.582031 L 78.179688 86.789062 L 78.199219 87 L 78.214844 87.210938 L 78.234375 87.417969 L 78.25 87.628906 L 78.261719 87.839844 L 78.277344 88.046875 L 78.289062 88.257812 L 78.296875 88.46875 L 78.308594 88.679688 L 78.316406 88.890625 L 78.320312 89.097656 L 78.328125 89.308594 L 78.328125 89.519531 L 78.332031 89.730469 L 78.332031 90.363281 L 78.328125 90.570312 L 78.320312 90.992188 L 78.304688 91.414062 L 78.292969 91.625 L 78.28125 91.832031 L 78.257812 92.253906 L 78.242188 92.464844 L 78.226562 92.671875 L 78.207031 92.882812 L 78.191406 93.089844 L 78.167969 93.300781 L 78.148438 93.511719 L 78.125 93.71875 L 78.101562 93.929688 L 78.074219 94.136719 L 78.046875 94.347656 L 77.992188 94.761719 L 77.960938 94.972656 L 77.929688 95.179688 L 77.789062 96.007812 L 77.75 96.214844 L 77.707031 96.421875 L 77.667969 96.628906 L 77.625 96.832031 L 77.582031 97.039062 L 77.535156 97.246094 L 77.488281 97.449219 L 77.441406 97.65625 L 77.394531 97.859375 L 77.34375 98.0625 L 77.292969 98.269531 L 77.074219 99.082031 L 77.015625 99.28125 L 76.957031 99.484375 L 76.894531 99.6875 L 76.769531 100.085938 L 76.707031 100.289062 L 76.574219 100.6875 L 76.503906 100.886719 L 76.4375 101.085938 L 76.367188 101.285156 L 76.292969 101.480469 L 76.21875 101.679688 L 76.070312 102.070312 L 75.757812 102.851562 L 75.675781 103.046875 L 75.589844 103.238281 L 75.507812 103.433594 L 75.335938 103.816406 L 75.246094 104.007812 L 75.160156 104.199219 L 75.070312 104.386719 L 74.976562 104.578125 L 74.695312 105.140625 L 74.597656 105.328125 L 74.503906 105.515625 L 74.402344 105.703125 L 74.304688 105.886719 L 74 106.4375 L 73.789062 106.804688 L 73.683594 106.984375 L 73.355469 107.523438 L 73.242188 107.703125 L 73.132812 107.882812 L 73.019531 108.058594 L 72.902344 108.234375 L 72.789062 108.410156 L 72.671875 108.585938 L 72.554688 108.757812 L 72.433594 108.933594 L 72.316406 109.105469 L 72.195312 109.277344 L 72.070312 109.449219 L 71.949219 109.621094 L 71.699219 109.957031 L 71.570312 110.125 L 71.445312 110.292969 L 71.316406 110.460938 L 71.1875 110.625 L 70.65625 111.28125 L 70.523438 111.441406 L 70.113281 111.921875 L 69.550781 112.546875 L 69.40625 112.703125 L 69.265625 112.855469 L 69.117188 113.007812 L 68.828125 113.3125 L 68.382812 113.757812 L 68.230469 113.90625 L 67.621094 114.484375 L 66.996094 115.046875 L 66.835938 115.183594 L 66.675781 115.324219 L 66.515625 115.457031 L 66.355469 115.59375 L 66.195312 115.726562 L 66.03125 115.863281 L 65.867188 115.992188 L 65.703125 116.125 L 65.539062 116.253906 L 65.035156 116.640625 L 64.699219 116.890625 L 64.527344 117.011719 L 64.359375 117.136719 L 64.015625 117.378906 L 63.839844 117.496094 L 63.667969 117.617188 L 63.492188 117.734375 L 63.316406 117.847656 Z M 45 90 "/>
<path style=" stroke:none;fill-rule:nonzero;fill:rgb(74.509804%,75.686275%,83.137255%);fill-opacity:1;" d="M 45 90 L 63.316406 117.847656 L 63.140625 117.964844 L 62.964844 118.078125 L 62.785156 118.191406 L 62.609375 118.304688 L 62.070312 118.632812 L 61.886719 118.738281 L 61.707031 118.84375 L 61.339844 119.054688 L 60.972656 119.257812 L 60.785156 119.359375 L 60.601562 119.457031 L 60.226562 119.652344 L 59.664062 119.933594 L 59.472656 120.027344 L 59.285156 120.117188 L 58.902344 120.296875 L 58.328125 120.554688 L 58.132812 120.636719 L 57.941406 120.71875 L 57.746094 120.800781 L 56.964844 121.113281 L 56.765625 121.1875 L 56.570312 121.261719 L 56.371094 121.332031 L 56.175781 121.40625 L 55.976562 121.472656 L 55.777344 121.542969 L 55.378906 121.675781 L 55.175781 121.742188 L 54.777344 121.867188 L 54.574219 121.929688 L 54.371094 121.988281 L 54.171875 122.046875 L 53.96875 122.105469 L 53.359375 122.269531 L 53.15625 122.320312 L 52.949219 122.371094 L 52.746094 122.421875 L 52.539062 122.46875 L 52.335938 122.515625 L 52.128906 122.5625 L 51.925781 122.605469 L 51.511719 122.691406 L 50.890625 122.808594 L 50.269531 122.914062 L 50.0625 122.945312 L 49.851562 122.976562 L 49.644531 123.007812 L 49.4375 123.035156 L 49.226562 123.0625 L 49.019531 123.089844 L 48.808594 123.113281 L 48.601562 123.136719 L 48.390625 123.160156 L 48.183594 123.179688 L 47.761719 123.21875 L 47.554688 123.234375 L 47.132812 123.265625 L 46.921875 123.277344 L 46.714844 123.289062 L 46.503906 123.300781 L 46.082031 123.316406 L 45.871094 123.320312 L 45.660156 123.328125 L 45.449219 123.332031 L 44.609375 123.332031 L 44.1875 123.324219 L 43.765625 123.308594 L 43.558594 123.300781 L 43.347656 123.292969 L 42.925781 123.269531 L 42.714844 123.253906 L 42.507812 123.238281 L 42.085938 123.207031 L 41.878906 123.1875 L 41.667969 123.167969 L 41.457031 123.144531 L 41.25 123.121094 L 41.039062 123.097656 L 40.832031 123.070312 L 40.621094 123.042969 L 40.207031 122.988281 L 39.996094 122.957031 L 39.789062 122.921875 L 39.582031 122.890625 L 39.167969 122.820312 L 38.546875 122.703125 L 38.132812 122.617188 L 37.929688 122.574219 L 37.722656 122.53125 L 37.519531 122.484375 L 37.3125 122.433594 L 37.109375 122.386719 L 36.902344 122.335938 L 36.699219 122.285156 L 36.089844 122.121094 L 35.683594 122.003906 L 35.484375 121.945312 L 35.28125 121.886719 L 35.082031 121.824219 L 34.878906 121.761719 L 34.082031 121.496094 L 33.683594 121.355469 L 33.488281 121.28125 L 33.289062 121.207031 L 33.09375 121.132812 L 32.894531 121.058594 L 32.308594 120.824219 L 32.117188 120.742188 L 31.726562 120.578125 L 30.960938 120.234375 L 30.578125 120.054688 L 30.203125 119.867188 L 30.011719 119.773438 L 29.824219 119.679688 L 29.636719 119.582031 L 29.453125 119.484375 L 29.265625 119.386719 L 29.082031 119.285156 L 28.894531 119.183594 L 28.527344 118.980469 L 28.347656 118.875 L 28.164062 118.769531 L 27.984375 118.664062 L 27.800781 118.554688 L 27.441406 118.335938 L 27.265625 118.222656 L 27.085938 118.109375 L 26.734375 117.882812 L 26.207031 117.53125 L 26.035156 117.414062 L 25.691406 117.171875 L 25.519531 117.046875 L 25.347656 116.925781 L 25.011719 116.675781 L 24.84375 116.546875 L 24.675781 116.421875 L 24.507812 116.292969 L 24.34375 116.160156 L 24.179688 116.03125 L 23.6875 115.632812 L 23.046875 115.085938 L 22.421875 114.523438 L 22.269531 114.378906 L 22.113281 114.234375 L 21.808594 113.945312 L 21.660156 113.796875 L 21.507812 113.648438 L 21.210938 113.351562 L 21.066406 113.199219 L 20.917969 113.050781 L 20.773438 112.898438 L 20.628906 112.742188 L 20.488281 112.589844 L 20.34375 112.433594 L 20.0625 112.121094 L 19.925781 111.960938 L 19.785156 111.804688 L 19.511719 111.484375 L 19.378906 111.324219 L 19.246094 111.160156 L 19.109375 110.996094 L 18.980469 110.832031 L 18.847656 110.667969 L 18.71875 110.503906 L 18.460938 110.167969 L 18.335938 110 L 18.207031 109.832031 L 18.085938 109.664062 L 17.960938 109.492188 L 17.839844 109.320312 L 17.714844 109.148438 L 17.597656 108.976562 L 17.476562 108.804688 L 17.125 108.277344 L 16.898438 107.925781 L 16.785156 107.746094 L 16.671875 107.570312 L 16.34375 107.03125 L 16.238281 106.847656 L 16.132812 106.667969 Z M 45 90 "/>
<path style=" stroke:none;fill-rule:nonzero;fill:rgb(83.921569%,73.72549%,75.294118%);fill-opacity:1;" d="M 45 90 L 16.132812 106.667969 L 15.921875 106.300781 L 15.820312 106.117188 L 15.71875 105.929688 L 15.621094 105.746094 L 15.519531 105.558594 L 15.324219 105.183594 L 15.230469 104.996094 L 15.136719 104.804688 L 15.042969 104.617188 L 14.949219 104.425781 L 14.859375 104.238281 L 14.769531 104.046875 L 14.683594 103.855469 L 14.59375 103.660156 L 14.507812 103.46875 L 14.425781 103.273438 L 14.339844 103.082031 L 14.175781 102.691406 L 13.941406 102.105469 L 13.867188 101.90625 L 13.792969 101.710938 L 13.644531 101.3125 L 13.503906 100.914062 L 13.4375 100.714844 L 13.367188 100.515625 L 13.304688 100.316406 L 13.238281 100.113281 L 13.175781 99.914062 L 13.050781 99.507812 L 12.992188 99.308594 L 12.933594 99.105469 L 12.878906 98.902344 L 12.820312 98.699219 L 12.765625 98.492188 L 12.714844 98.289062 L 12.660156 98.085938 L 12.613281 97.878906 L 12.5625 97.675781 L 12.46875 97.261719 L 12.421875 97.058594 L 12.292969 96.4375 L 12.214844 96.023438 L 12.175781 95.8125 L 12.105469 95.398438 L 12.074219 95.191406 L 12.039062 94.980469 L 12.011719 94.773438 L 11.980469 94.5625 L 11.953125 94.355469 L 11.898438 93.933594 L 11.875 93.726562 L 11.851562 93.515625 L 11.8125 93.09375 L 11.792969 92.886719 L 11.773438 92.675781 L 11.742188 92.253906 L 11.695312 91.410156 L 11.679688 90.988281 L 11.667969 90.355469 L 11.667969 89.722656 L 11.683594 88.878906 L 11.691406 88.667969 L 11.703125 88.457031 L 11.710938 88.246094 L 11.722656 88.035156 L 11.769531 87.402344 L 11.785156 87.195312 L 11.84375 86.5625 L 11.867188 86.351562 L 11.890625 86.144531 L 11.914062 85.933594 L 11.941406 85.722656 L 11.96875 85.515625 L 12 85.304688 L 12.027344 85.097656 L 12.0625 84.886719 L 12.09375 84.679688 L 12.164062 84.265625 L 12.199219 84.054688 L 12.277344 83.640625 L 12.449219 82.8125 L 12.496094 82.609375 L 12.542969 82.402344 L 12.59375 82.199219 L 12.644531 81.992188 L 12.695312 81.789062 L 12.746094 81.582031 L 12.855469 81.175781 L 12.914062 80.972656 L 12.96875 80.769531 L 13.03125 80.566406 L 13.089844 80.363281 L 13.152344 80.164062 L 13.277344 79.757812 L 13.410156 79.359375 L 13.480469 79.160156 L 13.546875 78.960938 L 13.617188 78.761719 L 13.691406 78.5625 L 13.761719 78.363281 L 13.835938 78.167969 L 13.914062 77.96875 L 13.988281 77.773438 L 14.066406 77.578125 L 14.148438 77.382812 L 14.226562 77.1875 L 14.308594 76.992188 L 14.394531 76.796875 Z M 45 90 "/>
<path style=" stroke:none;fill-rule:nonzero;fill:rgb(73.333333%,46.666667%,51.764706%);fill-opacity:1;" d="M 45 90 L 14.394531 76.796875 L 14.476562 76.605469 L 14.5625 76.410156 L 14.648438 76.21875 L 14.738281 76.027344 L 14.824219 75.835938 L 14.914062 75.644531 L 15.007812 75.457031 L 15.097656 75.265625 L 15.191406 75.078125 L 15.289062 74.890625 L 15.382812 74.703125 L 15.480469 74.515625 L 15.582031 74.328125 L 15.679688 74.144531 L 15.78125 73.957031 L 15.984375 73.589844 L 16.195312 73.222656 L 16.300781 73.042969 L 16.410156 72.859375 L 16.628906 72.5 L 16.742188 72.320312 L 16.851562 72.144531 L 16.964844 71.964844 L 17.082031 71.789062 L 17.195312 71.613281 L 17.429688 71.261719 L 17.550781 71.089844 L 17.671875 70.914062 L 17.914062 70.570312 L 18.039062 70.398438 L 18.289062 70.0625 L 18.414062 69.890625 L 18.542969 69.726562 L 18.800781 69.390625 L 18.929688 69.226562 L 19.195312 68.898438 L 19.332031 68.734375 L 19.464844 68.574219 L 19.875 68.09375 L 20.015625 67.933594 L 20.4375 67.464844 L 20.582031 67.308594 L 21.015625 66.851562 L 21.164062 66.699219 L 21.3125 66.550781 L 21.460938 66.398438 L 21.609375 66.25 L 21.761719 66.105469 L 21.910156 65.957031 L 22.0625 65.8125 L 22.21875 65.667969 L 22.371094 65.523438 L 22.527344 65.382812 L 22.683594 65.238281 L 22.839844 65.097656 L 22.996094 64.960938 L 23.15625 64.820312 L 23.636719 64.410156 L 24.292969 63.878906 L 24.457031 63.75 L 24.960938 63.363281 L 25.296875 63.113281 L 25.46875 62.988281 L 25.640625 62.867188 L 25.8125 62.742188 L 25.984375 62.621094 L 26.15625 62.503906 L 26.332031 62.382812 L 26.507812 62.265625 L 26.683594 62.152344 L 26.859375 62.035156 L 27.035156 61.921875 L 27.394531 61.695312 L 27.933594 61.367188 L 28.113281 61.261719 L 28.296875 61.152344 L 28.480469 61.046875 L 29.03125 60.742188 L 29.21875 60.640625 L 29.402344 60.539062 L 29.589844 60.441406 L 29.777344 60.347656 L 29.964844 60.25 L 30.152344 60.15625 L 30.34375 60.0625 L 30.53125 59.96875 L 30.914062 59.789062 L 31.105469 59.703125 L 31.296875 59.613281 L 31.679688 59.441406 L 32.070312 59.277344 L 32.261719 59.195312 L 32.652344 59.039062 L 32.851562 58.960938 L 33.046875 58.882812 L 33.242188 58.808594 L 33.441406 58.734375 L 33.640625 58.664062 L 33.835938 58.589844 L 34.035156 58.519531 L 34.433594 58.386719 L 34.636719 58.320312 L 34.835938 58.253906 L 35.035156 58.191406 L 35.441406 58.066406 L 35.640625 58.007812 L 36.046875 57.890625 L 36.65625 57.726562 L 36.863281 57.675781 L 37.066406 57.625 L 37.273438 57.574219 L 37.476562 57.527344 L 37.683594 57.480469 L 37.886719 57.433594 L 38.507812 57.304688 L 39.128906 57.1875 L 39.542969 57.117188 L 39.753906 57.082031 L 40.167969 57.019531 L 40.378906 56.988281 L 40.585938 56.960938 L 40.796875 56.933594 L 41.003906 56.90625 L 41.214844 56.882812 L 41.421875 56.859375 L 41.632812 56.835938 L 42.054688 56.796875 L 42.261719 56.777344 L 42.683594 56.746094 L 42.894531 56.734375 L 43.105469 56.71875 L 43.3125 56.710938 L 43.523438 56.699219 L 44.15625 56.675781 L 44.578125 56.667969 L 45 56.667969 Z M 45 90 "/>
<path style=" stroke:none;fill-rule:nonzero;fill:rgb(0.784314%,24.705882%,64.705882%);fill-opacity:1;" d="M 135 56.667969 L 135.421875 56.667969 L 135.632812 56.671875 L 135.847656 56.675781 L 136.480469 56.699219 L 137.324219 56.746094 L 137.535156 56.761719 L 137.746094 56.78125 L 137.957031 56.796875 L 138.167969 56.816406 L 138.378906 56.839844 L 138.589844 56.859375 L 138.800781 56.882812 L 139.011719 56.910156 L 139.21875 56.933594 L 139.429688 56.960938 L 139.640625 56.992188 L 139.847656 57.019531 L 140.058594 57.050781 L 140.265625 57.085938 L 140.476562 57.121094 L 140.890625 57.191406 L 141.101562 57.230469 L 141.515625 57.308594 L 141.929688 57.394531 L 142.136719 57.441406 L 142.34375 57.484375 L 142.550781 57.53125 L 142.753906 57.582031 L 143.167969 57.683594 L 143.371094 57.734375 L 143.578125 57.789062 L 143.984375 57.898438 L 144.390625 58.015625 L 145 58.203125 L 145.199219 58.265625 L 145.402344 58.332031 L 145.800781 58.464844 L 146.003906 58.535156 L 146.402344 58.675781 L 146.597656 58.75 L 146.996094 58.898438 L 147.191406 58.976562 L 147.390625 59.054688 L 147.585938 59.132812 L 148.171875 59.378906 L 148.363281 59.464844 L 148.558594 59.546875 L 148.75 59.636719 L 148.941406 59.722656 L 149.136719 59.8125 L 149.328125 59.902344 L 149.515625 59.992188 L 149.898438 60.179688 L 150.085938 60.277344 L 150.273438 60.371094 L 150.460938 60.46875 L 150.648438 60.570312 L 150.835938 60.667969 L 151.019531 60.769531 L 151.207031 60.871094 L 151.390625 60.976562 L 151.574219 61.078125 L 151.757812 61.183594 L 151.941406 61.292969 L 152.121094 61.402344 L 152.304688 61.511719 L 152.664062 61.730469 L 152.84375 61.84375 L 153.019531 61.957031 L 153.199219 62.074219 L 153.375 62.1875 L 153.550781 62.304688 L 153.726562 62.425781 L 153.902344 62.542969 L 154.074219 62.664062 L 154.25 62.785156 L 154.421875 62.910156 L 154.59375 63.03125 L 154.761719 63.15625 L 154.933594 63.285156 L 155.101562 63.410156 L 155.605469 63.796875 L 155.769531 63.929688 L 155.9375 64.0625 L 156.265625 64.328125 L 156.425781 64.464844 L 145.714844 77.234375 L 145.632812 77.164062 L 145.386719 76.964844 L 145.300781 76.898438 L 145.21875 76.835938 L 145.136719 76.769531 L 145.050781 76.707031 L 144.964844 76.640625 L 144.882812 76.578125 L 144.710938 76.453125 L 144.625 76.394531 L 144.539062 76.332031 L 144.449219 76.273438 L 144.363281 76.210938 L 144.277344 76.152344 L 144.097656 76.035156 L 144.011719 75.980469 L 143.921875 75.921875 L 143.832031 75.867188 L 143.742188 75.808594 L 143.5625 75.699219 L 143.46875 75.644531 L 143.378906 75.59375 L 143.289062 75.539062 L 143.101562 75.4375 L 143.011719 75.382812 L 142.917969 75.335938 L 142.730469 75.234375 L 142.636719 75.1875 L 142.542969 75.136719 L 142.355469 75.042969 L 142.257812 74.996094 L 142.164062 74.953125 L 142.066406 74.90625 L 141.972656 74.863281 L 141.875 74.816406 L 141.777344 74.773438 L 141.683594 74.730469 L 141.585938 74.6875 L 141.488281 74.648438 L 141.390625 74.605469 L 141.097656 74.488281 L 140.996094 74.449219 L 140.898438 74.410156 L 140.800781 74.375 L 140.699219 74.339844 L 140.601562 74.300781 L 140.5 74.265625 L 140.402344 74.234375 L 140.199219 74.164062 L 140.101562 74.132812 L 139.695312 74.007812 L 139.59375 73.980469 L 139.492188 73.949219 L 139.1875 73.867188 L 139.082031 73.839844 L 138.980469 73.816406 L 138.878906 73.789062 L 138.773438 73.765625 L 138.570312 73.71875 L 138.464844 73.699219 L 138.363281 73.675781 L 138.257812 73.65625 L 138.152344 73.632812 L 138.050781 73.613281 L 137.945312 73.597656 L 137.84375 73.578125 L 137.738281 73.558594 L 137.527344 73.527344 L 137.425781 73.511719 L 137.214844 73.480469 L 137.109375 73.46875 L 137.003906 73.453125 L 136.792969 73.429688 L 136.691406 73.417969 L 136.585938 73.410156 L 136.480469 73.398438 L 135.953125 73.359375 L 135.847656 73.355469 L 135.738281 73.351562 L 135.632812 73.34375 L 135.527344 73.339844 L 135.421875 73.339844 L 135.316406 73.335938 L 135.210938 73.335938 L 135.105469 73.332031 L 135 73.332031 Z M 135 56.667969 "/>
<path style=" stroke:none;fill-rule:nonzero;fill:rgb(49.019608%,52.941176%,72.54902%);fill-opacity:1;" d="M 156.425781 64.464844 L 156.90625 64.875 L 157.0625 65.015625 L 157.222656 65.152344 L 157.378906 65.292969 L 157.53125 65.4375 L 157.6875 65.578125 L 158.144531 66.011719 L 158.296875 66.160156 L 158.445312 66.308594 L 158.597656 66.457031 L 158.742188 66.605469 L 158.890625 66.753906 L 159.039062 66.90625 L 159.328125 67.210938 L 159.46875 67.367188 L 159.613281 67.519531 L 159.894531 67.832031 L 160.035156 67.992188 L 160.171875 68.148438 L 160.582031 68.628906 L 160.714844 68.792969 L 160.847656 68.953125 L 161.113281 69.28125 L 161.242188 69.445312 L 161.628906 69.949219 L 162.003906 70.453125 L 162.367188 70.96875 L 162.488281 71.144531 L 162.605469 71.316406 L 162.839844 71.667969 L 163.179688 72.195312 L 163.292969 72.375 L 163.621094 72.914062 L 163.726562 73.09375 L 163.835938 73.277344 L 163.941406 73.457031 L 164.246094 74.007812 L 164.347656 74.195312 L 164.445312 74.378906 L 164.546875 74.566406 L 164.640625 74.753906 L 164.738281 74.941406 L 164.925781 75.316406 L 165.015625 75.507812 L 165.109375 75.695312 L 165.199219 75.886719 L 165.285156 76.078125 L 165.375 76.269531 L 165.460938 76.460938 L 165.542969 76.652344 L 165.628906 76.84375 L 165.792969 77.234375 L 165.871094 77.429688 L 165.949219 77.621094 L 166.027344 77.820312 L 166.105469 78.015625 L 166.253906 78.40625 L 166.324219 78.605469 L 166.398438 78.804688 L 166.464844 79 L 166.535156 79.199219 L 166.667969 79.597656 L 166.734375 79.800781 L 166.859375 80.199219 L 166.921875 80.402344 L 166.980469 80.605469 L 167.039062 80.804688 L 167.097656 81.007812 L 167.261719 81.617188 L 167.3125 81.820312 L 167.367188 82.023438 L 167.414062 82.230469 L 167.464844 82.433594 L 167.511719 82.640625 L 167.554688 82.84375 L 167.601562 83.050781 L 167.644531 83.257812 L 167.6875 83.460938 L 167.804688 84.082031 L 167.910156 84.703125 L 167.941406 84.914062 L 168.003906 85.328125 L 168.03125 85.535156 L 168.0625 85.746094 L 168.085938 85.953125 L 168.113281 86.164062 L 168.136719 86.371094 L 168.15625 86.582031 L 168.179688 86.789062 L 168.199219 87 L 168.214844 87.210938 L 168.234375 87.417969 L 168.25 87.628906 L 168.261719 87.839844 L 168.277344 88.046875 L 168.289062 88.257812 L 168.296875 88.46875 L 168.308594 88.679688 L 168.316406 88.890625 L 168.320312 89.097656 L 168.328125 89.308594 L 168.328125 89.519531 L 168.332031 89.730469 L 168.332031 90.363281 L 168.328125 90.570312 L 168.320312 90.992188 L 168.304688 91.414062 L 168.292969 91.625 L 168.28125 91.832031 L 168.257812 92.253906 L 168.242188 92.464844 L 168.226562 92.671875 L 168.207031 92.882812 L 168.191406 93.089844 L 168.167969 93.300781 L 168.148438 93.511719 L 168.125 93.71875 L 168.101562 93.929688 L 168.074219 94.136719 L 168.046875 94.347656 L 167.992188 94.761719 L 167.960938 94.972656 L 167.929688 95.179688 L 167.789062 96.007812 L 167.75 96.214844 L 167.707031 96.421875 L 167.667969 96.628906 L 167.625 96.832031 L 167.582031 97.039062 L 167.535156 97.246094 L 167.488281 97.449219 L 167.441406 97.65625 L 167.394531 97.859375 L 167.34375 98.0625 L 167.292969 98.269531 L 167.074219 99.082031 L 167.015625 99.28125 L 166.957031 99.484375 L 166.894531 99.6875 L 166.769531 100.085938 L 166.707031 100.289062 L 166.574219 100.6875 L 166.503906 100.886719 L 166.4375 101.085938 L 166.367188 101.285156 L 166.292969 101.480469 L 166.21875 101.679688 L 166.070312 102.070312 L 165.757812 102.851562 L 165.675781 103.046875 L 165.589844 103.238281 L 165.507812 103.433594 L 165.335938 103.816406 L 165.246094 104.007812 L 165.160156 104.199219 L 165.070312 104.386719 L 164.976562 104.578125 L 164.695312 105.140625 L 164.597656 105.328125 L 164.503906 105.515625 L 164.402344 105.703125 L 164.304688 105.886719 L 164 106.4375 L 163.789062 106.804688 L 163.683594 106.984375 L 163.355469 107.523438 L 163.242188 107.703125 L 163.132812 107.882812 L 163.019531 108.058594 L 162.902344 108.234375 L 162.789062 108.410156 L 162.671875 108.585938 L 162.554688 108.757812 L 162.433594 108.933594 L 162.316406 109.105469 L 162.195312 109.277344 L 162.070312 109.449219 L 161.949219 109.621094 L 161.699219 109.957031 L 161.570312 110.125 L 161.445312 110.292969 L 161.316406 110.460938 L 161.1875 110.625 L 160.65625 111.28125 L 160.523438 111.441406 L 160.113281 111.921875 L 159.550781 112.546875 L 159.40625 112.703125 L 159.265625 112.855469 L 159.117188 113.007812 L 158.828125 113.3125 L 158.382812 113.757812 L 158.230469 113.90625 L 157.621094 114.484375 L 156.996094 115.046875 L 156.835938 115.183594 L 156.675781 115.324219 L 156.515625 115.457031 L 156.355469 115.59375 L 156.195312 115.726562 L 156.03125 115.863281 L 155.867188 115.992188 L 155.703125 116.125 L 155.539062 116.253906 L 155.035156 116.640625 L 154.699219 116.890625 L 154.527344 117.011719 L 154.359375 117.136719 L 154.015625 117.378906 L 153.839844 117.496094 L 153.667969 117.617188 L 153.492188 117.734375 L 153.316406 117.847656 L 144.160156 103.925781 L 144.332031 103.808594 L 144.421875 103.75 L 144.507812 103.6875 L 144.59375 103.628906 L 144.679688 103.566406 L 144.765625 103.507812 L 144.847656 103.445312 L 145.019531 103.320312 L 145.101562 103.257812 L 145.1875 103.191406 L 145.269531 103.128906 L 145.679688 102.796875 L 145.757812 102.730469 L 145.839844 102.660156 L 145.917969 102.59375 L 145.996094 102.523438 L 146.078125 102.453125 L 146.234375 102.3125 L 146.308594 102.242188 L 146.386719 102.171875 L 146.464844 102.097656 L 146.539062 102.027344 L 146.617188 101.953125 L 146.914062 101.65625 L 146.988281 101.578125 L 147.058594 101.503906 L 147.132812 101.429688 L 147.273438 101.273438 L 147.347656 101.195312 L 147.488281 101.039062 L 147.554688 100.960938 L 147.625 100.882812 L 147.691406 100.800781 L 147.761719 100.71875 L 147.828125 100.640625 L 148.09375 100.3125 L 148.15625 100.230469 L 148.222656 100.148438 L 148.285156 100.0625 L 148.347656 99.980469 L 148.535156 99.722656 L 148.597656 99.640625 L 148.65625 99.554688 L 148.71875 99.464844 L 148.894531 99.207031 L 148.953125 99.117188 L 149.007812 99.027344 L 149.066406 98.941406 L 149.175781 98.761719 L 149.234375 98.671875 L 149.285156 98.582031 L 149.394531 98.402344 L 149.445312 98.3125 L 149.5 98.21875 L 149.550781 98.128906 L 149.652344 97.941406 L 149.703125 97.851562 L 149.75 97.757812 L 149.800781 97.664062 L 150.035156 97.195312 L 150.078125 97.097656 L 150.125 97.003906 L 150.167969 96.90625 L 150.210938 96.8125 L 150.253906 96.714844 L 150.296875 96.621094 L 150.335938 96.523438 L 150.378906 96.425781 L 150.574219 95.9375 L 150.609375 95.839844 L 150.648438 95.742188 L 150.683594 95.640625 L 150.71875 95.542969 L 150.753906 95.441406 L 150.785156 95.34375 L 150.820312 95.242188 L 150.851562 95.144531 L 150.886719 95.042969 L 150.917969 94.945312 L 150.949219 94.84375 L 150.976562 94.742188 L 151.007812 94.640625 L 151.035156 94.539062 L 151.066406 94.4375 L 151.121094 94.234375 L 151.144531 94.132812 L 151.171875 94.03125 L 151.195312 93.929688 L 151.222656 93.828125 L 151.246094 93.726562 L 151.269531 93.621094 L 151.289062 93.519531 L 151.3125 93.417969 L 151.332031 93.3125 L 151.355469 93.210938 L 151.375 93.109375 L 151.394531 93.003906 L 151.414062 92.902344 L 151.429688 92.796875 L 151.449219 92.691406 L 151.464844 92.589844 L 151.480469 92.484375 L 151.496094 92.382812 L 151.511719 92.277344 L 151.523438 92.171875 L 151.539062 92.070312 L 151.574219 91.753906 L 151.585938 91.652344 L 151.59375 91.546875 L 151.605469 91.441406 L 151.628906 91.125 L 151.636719 91.023438 L 151.640625 90.917969 L 151.648438 90.8125 L 151.660156 90.496094 L 151.660156 90.390625 L 151.664062 90.285156 L 151.664062 90.179688 L 151.667969 90.074219 L 151.667969 89.867188 L 151.664062 89.761719 L 151.664062 89.65625 L 151.644531 89.128906 L 151.636719 89.023438 L 151.632812 88.917969 L 151.625 88.8125 L 151.617188 88.710938 L 151.609375 88.605469 L 151.597656 88.5 L 151.589844 88.394531 L 151.578125 88.289062 L 151.566406 88.1875 L 151.53125 87.871094 L 151.515625 87.769531 L 151.503906 87.664062 L 151.488281 87.558594 L 151.472656 87.457031 L 151.453125 87.351562 L 151.4375 87.25 L 151.421875 87.144531 L 151.402344 87.042969 L 151.382812 86.9375 L 151.363281 86.835938 L 151.34375 86.730469 L 151.320312 86.628906 L 151.300781 86.523438 L 151.230469 86.21875 L 151.207031 86.113281 L 151.183594 86.011719 L 151.15625 85.910156 L 151.132812 85.808594 L 151.078125 85.605469 L 151.046875 85.503906 L 150.992188 85.300781 L 150.960938 85.199219 L 150.929688 85.101562 L 150.867188 84.898438 L 150.835938 84.800781 L 150.800781 84.699219 L 150.769531 84.601562 L 150.734375 84.5 L 150.664062 84.304688 L 150.625 84.203125 L 150.589844 84.105469 L 150.550781 84.007812 L 150.515625 83.910156 L 150.4375 83.714844 L 150.394531 83.617188 L 150.355469 83.519531 L 150.3125 83.421875 L 150.273438 83.328125 L 150.1875 83.132812 L 150.144531 83.039062 L 150.097656 82.941406 L 150.054688 82.847656 L 149.960938 82.660156 L 149.914062 82.5625 L 149.773438 82.28125 L 149.722656 82.191406 L 149.675781 82.097656 L 149.625 82.003906 L 149.574219 81.914062 L 149.523438 81.820312 L 149.46875 81.730469 L 149.417969 81.636719 L 149.363281 81.546875 L 149.3125 81.457031 L 149.203125 81.277344 L 149.144531 81.1875 L 149.035156 81.007812 L 148.976562 80.921875 L 148.917969 80.832031 L 148.800781 80.660156 L 148.742188 80.570312 L 148.625 80.398438 L 148.4375 80.140625 L 148.375 80.058594 L 148.3125 79.972656 L 148.25 79.890625 L 148.1875 79.804688 L 148.054688 79.640625 L 147.992188 79.558594 L 147.859375 79.394531 L 147.789062 79.316406 L 147.65625 79.152344 L 147.164062 78.605469 L 147.089844 78.527344 L 147.019531 78.453125 L 146.945312 78.378906 L 146.871094 78.300781 L 146.648438 78.078125 L 146.574219 78.007812 L 146.496094 77.933594 L 146.421875 77.863281 L 146.34375 77.789062 L 145.875 77.367188 L 145.792969 77.300781 L 145.714844 77.234375 Z M 156.425781 64.464844 "/>
<path style=" stroke:none;fill-rule:nonzero;fill:rgb(74.509804%,75.686275%,83.137255%);fill-opacity:1;" d="M 153.316406 117.847656 L 153.140625 117.964844 L 152.964844 118.078125 L 152.785156 118.191406 L 152.609375 118.304688 L 152.070312 118.632812 L 151.886719 118.738281 L 151.707031 118.84375 L 151.339844 119.054688 L 150.972656 119.257812 L 150.785156 119.359375 L 150.601562 119.457031 L 150.226562 119.652344 L 149.664062 119.933594 L 149.472656 120.027344 L 149.285156 120.117188 L 148.902344 120.296875 L 148.328125 120.554688 L 148.132812 120.636719 L 147.941406 120.71875 L 147.746094 120.800781 L 146.964844 121.113281 L 146.765625 121.1875 L 146.570312 121.261719 L 146.371094 121.332031 L 146.175781 121.40625 L 145.976562 121.472656 L 145.777344 121.542969 L 145.378906 121.675781 L 145.175781 121.742188 L 144.777344 121.867188 L 144.574219 121.929688 L 144.371094 121.988281 L 144.171875 122.046875 L 143.96875 122.105469 L 143.359375 122.269531 L 143.15625 122.320312 L 142.949219 122.371094 L 142.746094 122.421875 L 142.539062 122.46875 L 142.335938 122.515625 L 142.128906 122.5625 L 141.925781 122.605469 L 141.511719 122.691406 L 140.890625 122.808594 L 140.269531 122.914062 L 140.0625 122.945312 L 139.851562 122.976562 L 139.644531 123.007812 L 139.4375 123.035156 L 139.226562 123.0625 L 139.019531 123.089844 L 138.808594 123.113281 L 138.601562 123.136719 L 138.390625 123.160156 L 138.183594 123.179688 L 137.761719 123.21875 L 137.554688 123.234375 L 137.132812 123.265625 L 136.921875 123.277344 L 136.714844 123.289062 L 136.503906 123.300781 L 136.082031 123.316406 L 135.871094 123.320312 L 135.660156 123.328125 L 135.449219 123.332031 L 134.609375 123.332031 L 134.1875 123.324219 L 133.765625 123.308594 L 133.558594 123.300781 L 133.347656 123.292969 L 132.925781 123.269531 L 132.714844 123.253906 L 132.507812 123.238281 L 132.085938 123.207031 L 131.878906 123.1875 L 131.667969 123.167969 L 131.457031 123.144531 L 131.25 123.121094 L 131.039062 123.097656 L 130.832031 123.070312 L 130.621094 123.042969 L 130.207031 122.988281 L 129.996094 122.957031 L 129.789062 122.921875 L 129.582031 122.890625 L 129.167969 122.820312 L 128.546875 122.703125 L 128.132812 122.617188 L 127.929688 122.574219 L 127.722656 122.53125 L 127.519531 122.484375 L 127.3125 122.433594 L 127.109375 122.386719 L 126.902344 122.335938 L 126.699219 122.285156 L 126.089844 122.121094 L 125.683594 122.003906 L 125.484375 121.945312 L 125.28125 121.886719 L 125.082031 121.824219 L 124.878906 121.761719 L 124.082031 121.496094 L 123.683594 121.355469 L 123.488281 121.28125 L 123.289062 121.207031 L 123.09375 121.132812 L 122.894531 121.058594 L 122.308594 120.824219 L 122.117188 120.742188 L 121.726562 120.578125 L 120.960938 120.234375 L 120.578125 120.054688 L 120.203125 119.867188 L 120.011719 119.773438 L 119.824219 119.679688 L 119.636719 119.582031 L 119.453125 119.484375 L 119.265625 119.386719 L 119.082031 119.285156 L 118.894531 119.183594 L 118.527344 118.980469 L 118.347656 118.875 L 118.164062 118.769531 L 117.984375 118.664062 L 117.800781 118.554688 L 117.441406 118.335938 L 117.265625 118.222656 L 117.085938 118.109375 L 116.734375 117.882812 L 116.207031 117.53125 L 116.035156 117.414062 L 115.691406 117.171875 L 115.519531 117.046875 L 115.347656 116.925781 L 115.011719 116.675781 L 114.84375 116.546875 L 114.675781 116.421875 L 114.507812 116.292969 L 114.34375 116.160156 L 114.179688 116.03125 L 113.6875 115.632812 L 113.046875 115.085938 L 112.421875 114.523438 L 112.269531 114.378906 L 112.113281 114.234375 L 111.808594 113.945312 L 111.660156 113.796875 L 111.507812 113.648438 L 111.210938 113.351562 L 111.066406 113.199219 L 110.917969 113.050781 L 110.773438 112.898438 L 110.628906 112.742188 L 110.488281 112.589844 L 110.34375 112.433594 L 110.0625 112.121094 L 109.925781 111.960938 L 109.785156 111.804688 L 109.511719 111.484375 L 109.378906 111.324219 L 109.246094 111.160156 L 109.109375 110.996094 L 108.980469 110.832031 L 108.847656 110.667969 L 108.71875 110.503906 L 108.460938 110.167969 L 108.335938 110 L 108.207031 109.832031 L 108.085938 109.664062 L 107.960938 109.492188 L 107.839844 109.320312 L 107.714844 109.148438 L 107.597656 108.976562 L 107.476562 108.804688 L 107.125 108.277344 L 106.898438 107.925781 L 106.785156 107.746094 L 106.671875 107.570312 L 106.34375 107.03125 L 106.238281 106.847656 L 106.132812 106.667969 L 120.566406 98.332031 L 120.621094 98.425781 L 120.671875 98.515625 L 120.890625 98.875 L 120.949219 98.964844 L 121.003906 99.050781 L 121.0625 99.140625 L 121.121094 99.226562 L 121.179688 99.316406 L 121.296875 99.488281 L 121.359375 99.574219 L 121.417969 99.660156 L 121.605469 99.917969 L 121.667969 100 L 121.730469 100.085938 L 121.792969 100.167969 L 121.859375 100.25 L 121.925781 100.335938 L 121.988281 100.417969 L 122.121094 100.582031 L 122.1875 100.660156 L 122.257812 100.742188 L 122.324219 100.820312 L 122.394531 100.902344 L 122.460938 100.980469 L 122.53125 101.058594 L 122.601562 101.140625 L 122.671875 101.21875 L 122.742188 101.292969 L 122.816406 101.371094 L 122.886719 101.449219 L 122.960938 101.523438 L 123.03125 101.601562 L 123.328125 101.898438 L 123.40625 101.972656 L 123.480469 102.046875 L 123.558594 102.117188 L 123.632812 102.191406 L 124.023438 102.542969 L 124.105469 102.613281 L 124.183594 102.679688 L 124.265625 102.75 L 124.34375 102.816406 L 124.671875 103.082031 L 124.753906 103.144531 L 124.835938 103.210938 L 124.921875 103.273438 L 125.003906 103.335938 L 125.175781 103.460938 L 125.257812 103.523438 L 125.34375 103.585938 L 125.429688 103.644531 L 125.515625 103.707031 L 125.605469 103.765625 L 125.777344 103.882812 L 125.867188 103.941406 L 125.953125 104 L 126.042969 104.054688 L 126.132812 104.113281 L 126.492188 104.332031 L 126.582031 104.382812 L 126.671875 104.4375 L 126.765625 104.488281 L 126.855469 104.542969 L 126.949219 104.59375 L 127.039062 104.644531 L 127.132812 104.691406 L 127.320312 104.792969 L 127.789062 105.027344 L 127.886719 105.070312 L 127.980469 105.117188 L 128.074219 105.160156 L 128.269531 105.246094 L 128.363281 105.289062 L 128.460938 105.332031 L 128.65625 105.410156 L 128.753906 105.453125 L 128.851562 105.492188 L 128.949219 105.527344 L 129.144531 105.605469 L 129.242188 105.640625 L 129.34375 105.675781 L 129.539062 105.746094 L 129.640625 105.78125 L 129.738281 105.816406 L 129.941406 105.878906 L 130.039062 105.910156 L 130.34375 106.003906 L 130.546875 106.058594 L 130.644531 106.089844 L 130.75 106.113281 L 130.953125 106.167969 L 131.054688 106.191406 L 131.15625 106.21875 L 131.257812 106.242188 L 131.363281 106.265625 L 131.464844 106.289062 L 131.566406 106.308594 L 131.671875 106.332031 L 131.875 106.371094 L 131.980469 106.390625 L 132.082031 106.410156 L 132.1875 106.425781 L 132.292969 106.445312 L 132.394531 106.460938 L 132.5 106.476562 L 132.601562 106.492188 L 132.8125 106.523438 L 132.914062 106.535156 L 133.019531 106.546875 L 133.125 106.5625 L 133.230469 106.574219 L 133.335938 106.582031 L 133.4375 106.59375 L 133.542969 106.601562 L 133.648438 106.613281 L 133.859375 106.628906 L 133.964844 106.632812 L 134.070312 106.640625 L 134.171875 106.644531 L 134.277344 106.652344 L 134.488281 106.660156 L 134.59375 106.660156 L 134.699219 106.664062 L 134.804688 106.664062 L 134.910156 106.667969 L 135.121094 106.667969 L 135.226562 106.664062 L 135.332031 106.664062 L 135.542969 106.65625 L 135.644531 106.652344 L 135.960938 106.640625 L 136.382812 106.609375 L 136.484375 106.601562 L 136.589844 106.589844 L 136.695312 106.582031 L 136.90625 106.558594 L 137.007812 106.546875 L 137.113281 106.53125 L 137.21875 106.519531 L 137.324219 106.503906 L 137.425781 106.488281 L 137.53125 106.472656 L 137.632812 106.457031 L 137.738281 106.441406 L 137.84375 106.421875 L 137.945312 106.402344 L 138.050781 106.386719 L 138.152344 106.367188 L 138.257812 106.34375 L 138.460938 106.304688 L 138.566406 106.28125 L 138.871094 106.210938 L 138.976562 106.1875 L 139.179688 106.132812 L 139.28125 106.109375 L 139.382812 106.082031 L 139.484375 106.050781 L 139.6875 105.996094 L 139.789062 105.964844 L 139.886719 105.933594 L 140.089844 105.871094 L 140.1875 105.839844 L 140.289062 105.804688 L 140.386719 105.773438 L 140.488281 105.738281 L 140.585938 105.703125 L 140.6875 105.667969 L 140.785156 105.628906 L 140.882812 105.59375 L 140.980469 105.554688 L 141.078125 105.519531 L 141.179688 105.480469 L 141.277344 105.441406 L 141.371094 105.398438 L 141.566406 105.320312 L 141.664062 105.277344 L 141.757812 105.234375 L 141.953125 105.148438 L 142.046875 105.105469 L 142.140625 105.058594 L 142.238281 105.011719 L 142.332031 104.96875 L 142.519531 104.875 L 142.613281 104.824219 L 142.707031 104.777344 L 142.800781 104.726562 L 142.894531 104.679688 L 142.984375 104.628906 L 143.171875 104.527344 L 143.261719 104.476562 L 143.351562 104.421875 L 143.445312 104.371094 L 143.894531 104.097656 L 143.980469 104.039062 L 144.070312 103.980469 L 144.160156 103.925781 Z M 153.316406 117.847656 "/>
<path style=" stroke:none;fill-rule:nonzero;fill:rgb(83.921569%,73.72549%,75.294118%);fill-opacity:1;" d="M 106.132812 106.667969 L 105.921875 106.300781 L 105.820312 106.117188 L 105.71875 105.929688 L 105.621094 105.746094 L 105.519531 105.558594 L 105.324219 105.183594 L 105.230469 104.996094 L 105.136719 104.804688 L 105.042969 104.617188 L 104.949219 104.425781 L 104.859375 104.238281 L 104.769531 104.046875 L 104.683594 103.855469 L 104.59375 103.660156 L 104.507812 103.46875 L 104.425781 103.273438 L 104.339844 103.082031 L 104.175781 102.691406 L 103.941406 102.105469 L 103.867188 101.90625 L 103.792969 101.710938 L 103.644531 101.3125 L 103.503906 100.914062 L 103.4375 100.714844 L 103.367188 100.515625 L 103.304688 100.316406 L 103.238281 100.113281 L 103.175781 99.914062 L 103.050781 99.507812 L 102.992188 99.308594 L 102.933594 99.105469 L 102.878906 98.902344 L 102.820312 98.699219 L 102.765625 98.492188 L 102.714844 98.289062 L 102.660156 98.085938 L 102.613281 97.878906 L 102.5625 97.675781 L 102.46875 97.261719 L 102.421875 97.058594 L 102.292969 96.4375 L 102.214844 96.023438 L 102.175781 95.8125 L 102.105469 95.398438 L 102.074219 95.191406 L 102.039062 94.980469 L 102.011719 94.773438 L 101.980469 94.5625 L 101.953125 94.355469 L 101.898438 93.933594 L 101.875 93.726562 L 101.851562 93.515625 L 101.8125 93.09375 L 101.792969 92.886719 L 101.773438 92.675781 L 101.742188 92.253906 L 101.695312 91.410156 L 101.679688 90.988281 L 101.667969 90.355469 L 101.667969 89.722656 L 101.683594 88.878906 L 101.691406 88.667969 L 101.703125 88.457031 L 101.710938 88.246094 L 101.722656 88.035156 L 101.769531 87.402344 L 101.785156 87.195312 L 101.84375 86.5625 L 101.867188 86.351562 L 101.890625 86.144531 L 101.914062 85.933594 L 101.941406 85.722656 L 101.96875 85.515625 L 102 85.304688 L 102.027344 85.097656 L 102.0625 84.886719 L 102.09375 84.679688 L 102.164062 84.265625 L 102.199219 84.054688 L 102.277344 83.640625 L 102.449219 82.8125 L 102.496094 82.609375 L 102.542969 82.402344 L 102.59375 82.199219 L 102.644531 81.992188 L 102.695312 81.789062 L 102.746094 81.582031 L 102.855469 81.175781 L 102.914062 80.972656 L 102.96875 80.769531 L 103.03125 80.566406 L 103.089844 80.363281 L 103.152344 80.164062 L 103.277344 79.757812 L 103.410156 79.359375 L 103.480469 79.160156 L 103.546875 78.960938 L 103.617188 78.761719 L 103.691406 78.5625 L 103.761719 78.363281 L 103.835938 78.167969 L 103.914062 77.96875 L 103.988281 77.773438 L 104.066406 77.578125 L 104.148438 77.382812 L 104.226562 77.1875 L 104.308594 76.992188 L 104.394531 76.796875 L 119.695312 83.398438 L 119.65625 83.496094 L 119.613281 83.59375 L 119.417969 84.082031 L 119.382812 84.183594 L 119.34375 84.28125 L 119.308594 84.378906 L 119.273438 84.480469 L 119.238281 84.578125 L 119.207031 84.679688 L 119.171875 84.78125 L 119.140625 84.878906 L 119.105469 84.980469 L 119.042969 85.183594 L 119.015625 85.28125 L 118.984375 85.382812 L 118.929688 85.585938 L 118.898438 85.691406 L 118.875 85.792969 L 118.820312 85.996094 L 118.796875 86.097656 L 118.773438 86.203125 L 118.726562 86.40625 L 118.703125 86.511719 L 118.679688 86.613281 L 118.660156 86.71875 L 118.640625 86.820312 L 118.621094 86.925781 L 118.601562 87.027344 L 118.582031 87.132812 L 118.5625 87.234375 L 118.53125 87.445312 L 118.515625 87.546875 L 118.484375 87.757812 L 118.472656 87.863281 L 118.457031 87.96875 L 118.445312 88.070312 L 118.410156 88.386719 L 118.402344 88.492188 L 118.390625 88.597656 L 118.367188 88.914062 L 118.363281 89.019531 L 118.355469 89.125 L 118.351562 89.230469 L 118.347656 89.332031 L 118.34375 89.4375 L 118.339844 89.546875 L 118.335938 89.652344 L 118.335938 89.757812 L 118.332031 89.863281 L 118.332031 90.074219 L 118.335938 90.179688 L 118.335938 90.390625 L 118.351562 90.8125 L 118.359375 90.917969 L 118.363281 91.023438 L 118.371094 91.128906 L 118.378906 91.230469 L 118.394531 91.441406 L 118.40625 91.546875 L 118.414062 91.652344 L 118.460938 92.074219 L 118.476562 92.175781 L 118.492188 92.28125 L 118.503906 92.386719 L 118.519531 92.492188 L 118.535156 92.59375 L 118.554688 92.699219 L 118.570312 92.804688 L 118.589844 92.90625 L 118.609375 93.011719 L 118.628906 93.113281 L 118.648438 93.21875 L 118.667969 93.320312 L 118.6875 93.425781 L 118.710938 93.527344 L 118.734375 93.632812 L 118.78125 93.835938 L 118.804688 93.941406 L 118.832031 94.042969 L 118.855469 94.144531 L 118.9375 94.449219 L 118.96875 94.550781 L 118.996094 94.652344 L 119.027344 94.753906 L 119.054688 94.855469 L 119.085938 94.957031 L 119.121094 95.058594 L 119.152344 95.15625 L 119.183594 95.257812 L 119.21875 95.359375 L 119.253906 95.457031 L 119.289062 95.558594 L 119.324219 95.65625 L 119.359375 95.757812 L 119.394531 95.855469 L 119.472656 96.050781 L 119.507812 96.148438 L 119.550781 96.25 L 119.628906 96.445312 L 119.671875 96.539062 L 119.710938 96.636719 L 119.796875 96.832031 L 119.839844 96.925781 L 119.886719 97.023438 L 119.929688 97.117188 L 119.976562 97.214844 L 120.019531 97.308594 L 120.113281 97.496094 L 120.164062 97.589844 L 120.210938 97.6875 L 120.261719 97.777344 L 120.308594 97.871094 L 120.410156 98.058594 L 120.460938 98.148438 L 120.515625 98.242188 L 120.566406 98.332031 Z M 106.132812 106.667969 "/>
<path style=" stroke:none;fill-rule:nonzero;fill:rgb(73.333333%,46.666667%,51.764706%);fill-opacity:1;" d="M 104.394531 76.796875 L 104.476562 76.605469 L 104.5625 76.410156 L 104.648438 76.21875 L 104.738281 76.027344 L 104.824219 75.835938 L 104.914062 75.644531 L 105.007812 75.457031 L 105.097656 75.265625 L 105.191406 75.078125 L 105.289062 74.890625 L 105.382812 74.703125 L 105.480469 74.515625 L 105.582031 74.328125 L 105.679688 74.144531 L 105.78125 73.957031 L 105.984375 73.589844 L 106.195312 73.222656 L 106.300781 73.042969 L 106.410156 72.859375 L 106.628906 72.5 L 106.742188 72.320312 L 106.851562 72.144531 L 106.964844 71.964844 L 107.082031 71.789062 L 107.195312 71.613281 L 107.429688 71.261719 L 107.550781 71.089844 L 107.671875 70.914062 L 107.914062 70.570312 L 108.039062 70.398438 L 108.289062 70.0625 L 108.414062 69.890625 L 108.542969 69.726562 L 108.800781 69.390625 L 108.929688 69.226562 L 109.195312 68.898438 L 109.332031 68.734375 L 109.464844 68.574219 L 109.875 68.09375 L 110.015625 67.933594 L 110.4375 67.464844 L 110.582031 67.308594 L 111.015625 66.851562 L 111.164062 66.699219 L 111.3125 66.550781 L 111.460938 66.398438 L 111.609375 66.25 L 111.761719 66.105469 L 111.910156 65.957031 L 112.0625 65.8125 L 112.21875 65.667969 L 112.371094 65.523438 L 112.527344 65.382812 L 112.683594 65.238281 L 112.839844 65.097656 L 112.996094 64.960938 L 113.15625 64.820312 L 113.636719 64.410156 L 114.292969 63.878906 L 114.457031 63.75 L 114.960938 63.363281 L 115.296875 63.113281 L 115.46875 62.988281 L 115.640625 62.867188 L 115.8125 62.742188 L 115.984375 62.621094 L 116.15625 62.503906 L 116.332031 62.382812 L 116.507812 62.265625 L 116.683594 62.152344 L 116.859375 62.035156 L 117.035156 61.921875 L 117.394531 61.695312 L 117.933594 61.367188 L 118.113281 61.261719 L 118.296875 61.152344 L 118.480469 61.046875 L 119.03125 60.742188 L 119.21875 60.640625 L 119.402344 60.539062 L 119.589844 60.441406 L 119.777344 60.347656 L 119.964844 60.25 L 120.152344 60.15625 L 120.34375 60.0625 L 120.53125 59.96875 L 120.914062 59.789062 L 121.105469 59.703125 L 121.296875 59.613281 L 121.679688 59.441406 L 122.070312 59.277344 L 122.261719 59.195312 L 122.652344 59.039062 L 122.851562 58.960938 L 123.046875 58.882812 L 123.242188 58.808594 L 123.441406 58.734375 L 123.640625 58.664062 L 123.835938 58.589844 L 124.035156 58.519531 L 124.433594 58.386719 L 124.636719 58.320312 L 124.835938 58.253906 L 125.035156 58.191406 L 125.441406 58.066406 L 125.640625 58.007812 L 126.046875 57.890625 L 126.65625 57.726562 L 126.863281 57.675781 L 127.066406 57.625 L 127.273438 57.574219 L 127.476562 57.527344 L 127.683594 57.480469 L 127.886719 57.433594 L 128.507812 57.304688 L 129.128906 57.1875 L 129.542969 57.117188 L 129.753906 57.082031 L 130.167969 57.019531 L 130.378906 56.988281 L 130.585938 56.960938 L 130.796875 56.933594 L 131.003906 56.90625 L 131.214844 56.882812 L 131.421875 56.859375 L 131.632812 56.835938 L 132.054688 56.796875 L 132.261719 56.777344 L 132.683594 56.746094 L 132.894531 56.734375 L 133.105469 56.71875 L 133.3125 56.710938 L 133.523438 56.699219 L 134.15625 56.675781 L 134.578125 56.667969 L 135 56.667969 L 135 73.332031 L 134.894531 73.332031 L 134.789062 73.335938 L 134.683594 73.335938 L 134.578125 73.339844 L 134.472656 73.339844 L 134.367188 73.34375 L 134.261719 73.351562 L 134.050781 73.359375 L 133.839844 73.375 L 133.738281 73.382812 L 133.527344 73.398438 L 133.421875 73.410156 L 133.316406 73.417969 L 133.105469 73.441406 L 133.003906 73.453125 L 132.898438 73.464844 L 132.6875 73.496094 L 132.585938 73.507812 L 132.480469 73.523438 L 132.375 73.542969 L 132.273438 73.558594 L 132.167969 73.574219 L 132.0625 73.59375 L 131.960938 73.613281 L 131.855469 73.632812 L 131.753906 73.652344 L 131.648438 73.671875 L 131.445312 73.71875 L 131.339844 73.738281 L 131.238281 73.761719 L 131.136719 73.789062 L 131.035156 73.8125 L 130.929688 73.835938 L 130.421875 73.972656 L 130.21875 74.035156 L 130.117188 74.0625 L 130.019531 74.09375 L 129.917969 74.128906 L 129.816406 74.160156 L 129.71875 74.191406 L 129.617188 74.226562 L 129.519531 74.261719 L 129.417969 74.296875 L 129.320312 74.332031 L 129.21875 74.367188 L 129.121094 74.40625 L 129.023438 74.441406 L 128.535156 74.636719 L 128.339844 74.722656 L 128.246094 74.765625 L 128.050781 74.851562 L 127.957031 74.894531 L 127.859375 74.941406 L 127.765625 74.984375 L 127.578125 75.078125 L 127.480469 75.125 L 127.386719 75.171875 L 127.292969 75.222656 L 127.203125 75.269531 L 126.921875 75.421875 L 126.832031 75.472656 L 126.738281 75.523438 L 126.648438 75.578125 L 126.558594 75.628906 L 126.464844 75.683594 L 126.105469 75.902344 L 126.019531 75.960938 L 125.929688 76.015625 L 125.839844 76.074219 L 125.667969 76.191406 L 125.578125 76.25 L 125.492188 76.3125 L 125.40625 76.371094 L 125.320312 76.433594 L 125.234375 76.492188 L 125.0625 76.617188 L 124.980469 76.683594 L 124.894531 76.746094 L 124.8125 76.808594 L 124.730469 76.875 L 124.644531 76.941406 L 124.5625 77.003906 L 124.398438 77.136719 L 124.320312 77.207031 L 124.238281 77.273438 L 124.160156 77.339844 L 124.078125 77.410156 L 123.921875 77.550781 L 123.839844 77.621094 L 123.761719 77.691406 L 123.6875 77.761719 L 123.609375 77.832031 L 123.53125 77.90625 L 123.457031 77.980469 L 123.378906 78.050781 L 123.15625 78.273438 L 123.082031 78.351562 L 122.933594 78.5 L 122.863281 78.578125 L 122.789062 78.65625 L 122.71875 78.730469 L 122.578125 78.886719 L 122.507812 78.96875 L 122.367188 79.125 L 122.300781 79.207031 L 122.234375 79.285156 L 122.164062 79.367188 L 121.898438 79.695312 L 121.835938 79.777344 L 121.769531 79.863281 L 121.707031 79.945312 L 121.644531 80.03125 L 121.582031 80.113281 L 121.394531 80.371094 L 121.335938 80.457031 L 121.273438 80.542969 L 121.214844 80.632812 L 121.097656 80.804688 L 121.039062 80.894531 L 120.984375 80.984375 L 120.925781 81.070312 L 120.816406 81.25 L 120.757812 81.339844 L 120.707031 81.429688 L 120.652344 81.519531 L 120.597656 81.613281 L 120.546875 81.703125 L 120.492188 81.792969 L 120.390625 81.980469 L 120.339844 82.070312 L 120.289062 82.164062 L 120.242188 82.257812 L 120.191406 82.351562 L 120.003906 82.726562 L 119.957031 82.824219 L 119.914062 82.917969 L 119.867188 83.015625 L 119.824219 83.109375 L 119.78125 83.207031 L 119.738281 83.300781 L 119.695312 83.398438 Z M 104.394531 76.796875 "/>
<path style=" stroke:none;fill-rule:nonzero;fill:rgb(0.784314%,24.705882%,64.705882%);fill-opacity:1;" d="M 225 90 L 225 69.585938 L 225.128906 69.589844 L 225.386719 69.589844 L 225.773438 69.601562 L 225.902344 69.609375 L 226.03125 69.613281 L 226.546875 69.644531 L 226.671875 69.65625 L 227.058594 69.691406 L 227.1875 69.707031 L 227.316406 69.71875 L 227.441406 69.734375 L 227.699219 69.765625 L 227.828125 69.785156 L 227.953125 69.800781 L 228.210938 69.839844 L 228.335938 69.863281 L 228.464844 69.882812 L 228.589844 69.90625 L 228.71875 69.929688 L 228.96875 69.976562 L 229.097656 70.003906 L 229.222656 70.027344 L 229.347656 70.054688 L 229.476562 70.085938 L 229.726562 70.140625 L 230.101562 70.234375 L 230.226562 70.269531 L 230.351562 70.300781 L 230.476562 70.335938 L 230.597656 70.371094 L 230.847656 70.441406 L 230.96875 70.480469 L 231.09375 70.519531 L 231.214844 70.558594 L 231.339844 70.597656 L 231.460938 70.636719 L 231.582031 70.679688 L 231.703125 70.71875 L 231.828125 70.761719 L 231.949219 70.804688 L 232.070312 70.851562 L 232.191406 70.894531 L 232.308594 70.941406 L 232.550781 71.035156 L 232.667969 71.082031 L 232.789062 71.132812 L 232.90625 71.183594 L 233.027344 71.230469 L 233.144531 71.28125 L 233.261719 71.335938 L 233.382812 71.386719 L 233.617188 71.496094 L 233.730469 71.550781 L 233.964844 71.660156 L 234.078125 71.71875 L 234.195312 71.777344 L 234.308594 71.835938 L 234.425781 71.894531 L 234.539062 71.953125 L 234.652344 72.015625 L 234.765625 72.074219 L 235.105469 72.261719 L 235.214844 72.328125 L 235.328125 72.390625 L 235.546875 72.523438 L 235.660156 72.589844 L 235.769531 72.660156 L 235.878906 72.726562 L 235.988281 72.796875 L 236.09375 72.867188 L 236.203125 72.9375 L 236.308594 73.007812 L 236.417969 73.078125 L 236.628906 73.226562 L 236.734375 73.296875 L 236.839844 73.375 L 237.050781 73.523438 L 237.152344 73.601562 L 237.257812 73.675781 L 237.460938 73.832031 L 237.5625 73.914062 L 237.664062 73.992188 L 237.765625 74.074219 L 237.867188 74.152344 L 237.964844 74.234375 L 238.066406 74.316406 L 238.164062 74.398438 L 238.261719 74.484375 L 238.359375 74.566406 L 238.652344 74.824219 L 238.839844 74.996094 L 238.9375 75.085938 L 239.03125 75.171875 L 239.121094 75.261719 L 239.308594 75.441406 L 239.582031 75.714844 L 239.761719 75.902344 L 239.847656 75.992188 L 239.9375 76.089844 L 240.023438 76.183594 L 240.113281 76.277344 L 240.199219 76.375 L 240.285156 76.46875 L 240.367188 76.566406 L 240.539062 76.761719 L 240.703125 76.957031 L 240.867188 77.160156 L 240.949219 77.257812 L 241.105469 77.460938 L 241.1875 77.5625 L 241.265625 77.664062 L 241.34375 77.769531 L 241.417969 77.871094 L 241.496094 77.976562 L 241.570312 78.082031 L 241.644531 78.183594 L 241.792969 78.394531 L 241.867188 78.503906 L 241.9375 78.609375 L 242.011719 78.714844 L 242.152344 78.933594 L 242.222656 79.039062 L 242.289062 79.148438 L 242.359375 79.257812 L 242.425781 79.367188 L 242.492188 79.480469 L 242.625 79.699219 L 242.6875 79.8125 L 242.753906 79.925781 L 242.816406 80.035156 L 242.941406 80.261719 L 243 80.375 L 243.0625 80.488281 L 243.121094 80.605469 L 243.238281 80.832031 L 243.296875 80.949219 L 243.351562 81.066406 L 243.410156 81.179688 L 243.574219 81.53125 L 243.625 81.648438 L 243.679688 81.765625 L 243.730469 81.882812 L 243.78125 82.003906 L 243.832031 82.121094 L 243.878906 82.242188 L 243.929688 82.359375 L 244.023438 82.601562 L 244.070312 82.71875 L 244.117188 82.839844 L 244.289062 83.324219 L 244.332031 83.449219 L 244.375 83.570312 L 244.414062 83.691406 Z M 225 90 "/>
<path style=" stroke:none;fill-rule:nonzero;fill:rgb(49.019608%,52.941176%,72.54902%);fill-opacity:1;" d="M 225 90 L 256.703125 79.699219 L 256.765625 79.898438 L 256.828125 80.101562 L 256.890625 80.300781 L 256.953125 80.503906 L 257.011719 80.707031 L 257.070312 80.90625 L 257.289062 81.71875 L 257.339844 81.925781 L 257.441406 82.332031 L 257.488281 82.539062 L 257.535156 82.742188 L 257.664062 83.363281 L 257.707031 83.566406 L 257.824219 84.1875 L 257.859375 84.394531 L 257.894531 84.605469 L 257.925781 84.8125 L 257.960938 85.019531 L 257.988281 85.226562 L 258.019531 85.4375 L 258.046875 85.644531 L 258.074219 85.855469 L 258.101562 86.0625 L 258.125 86.273438 L 258.148438 86.480469 L 258.167969 86.691406 L 258.1875 86.898438 L 258.226562 87.320312 L 258.242188 87.527344 L 258.257812 87.738281 L 258.292969 88.371094 L 258.304688 88.578125 L 258.3125 88.789062 L 258.316406 89 L 258.324219 89.210938 L 258.332031 89.632812 L 258.332031 90.261719 L 258.328125 90.472656 L 258.328125 90.683594 L 258.320312 90.894531 L 258.316406 91.105469 L 258.308594 91.316406 L 258.296875 91.527344 L 258.289062 91.734375 L 258.277344 91.945312 L 258.261719 92.15625 L 258.25 92.367188 L 258.234375 92.574219 L 258.214844 92.785156 L 258.199219 92.996094 L 258.179688 93.203125 L 258.15625 93.414062 L 258.136719 93.625 L 258.113281 93.832031 L 258.085938 94.042969 L 258.0625 94.25 L 258.035156 94.460938 L 258.003906 94.667969 L 257.976562 94.875 L 257.941406 95.085938 L 257.910156 95.292969 L 257.804688 95.914062 L 257.6875 96.535156 L 257.601562 96.949219 L 257.558594 97.152344 L 257.511719 97.359375 L 257.464844 97.5625 L 257.414062 97.769531 L 257.367188 97.972656 L 257.316406 98.175781 L 257.261719 98.382812 L 257.097656 98.992188 L 257.039062 99.195312 L 256.980469 99.394531 L 256.921875 99.597656 L 256.859375 99.800781 L 256.734375 100.199219 L 256.667969 100.402344 L 256.535156 100.800781 L 256.464844 101 L 256.394531 101.195312 L 256.253906 101.59375 L 256.179688 101.789062 L 256.105469 101.988281 L 255.871094 102.574219 L 255.789062 102.769531 L 255.710938 102.960938 L 255.628906 103.15625 L 255.542969 103.347656 L 255.457031 103.542969 L 255.285156 103.925781 L 255.105469 104.308594 L 255.015625 104.496094 L 254.921875 104.6875 L 254.832031 104.875 L 254.734375 105.0625 L 254.640625 105.25 L 254.445312 105.625 L 254.347656 105.808594 L 254.246094 105.992188 L 254.144531 106.179688 L 254.042969 106.363281 L 253.9375 106.546875 L 253.832031 106.726562 L 253.726562 106.910156 L 253.617188 107.089844 L 253.511719 107.269531 L 253.402344 107.449219 L 253.289062 107.628906 L 253.179688 107.808594 L 253.066406 107.984375 L 252.949219 108.160156 L 252.835938 108.339844 L 252.71875 108.511719 L 252.484375 108.863281 L 252 109.550781 L 251.875 109.71875 L 251.75 109.890625 L 251.621094 110.058594 L 251.496094 110.226562 L 251.367188 110.394531 L 251.109375 110.722656 L 250.710938 111.214844 L 250.574219 111.375 L 250.441406 111.539062 L 250.167969 111.859375 L 249.886719 112.171875 L 249.746094 112.332031 L 249.605469 112.484375 L 249.464844 112.640625 L 249.320312 112.796875 L 249.03125 113.101562 L 248.882812 113.25 L 248.738281 113.402344 L 248.441406 113.699219 L 248.136719 113.996094 L 247.988281 114.140625 L 247.832031 114.285156 L 247.679688 114.429688 L 247.523438 114.570312 L 247.371094 114.710938 L 247.214844 114.851562 L 247.054688 114.992188 L 246.898438 115.132812 L 246.417969 115.542969 L 246.253906 115.675781 L 246.09375 115.8125 L 245.929688 115.945312 L 245.765625 116.074219 L 245.601562 116.207031 L 245.433594 116.335938 L 245.269531 116.464844 L 245.101562 116.589844 L 244.933594 116.71875 L 244.761719 116.84375 L 244.59375 116.96875 Z M 225 90 "/>
<path style=" stroke:none;fill-rule:nonzero;fill:rgb(74.509804%,75.686275%,83.137255%);fill-opacity:1;" d="M 225 90 L 243.328125 115.226562 L 242.847656 115.566406 L 242.683594 115.679688 L 242.523438 115.792969 L 242.195312 116.011719 L 242.03125 116.117188 L 241.863281 116.226562 L 241.699219 116.332031 L 241.53125 116.4375 L 241.363281 116.539062 L 241.195312 116.644531 L 240.859375 116.847656 L 240.691406 116.945312 L 240.175781 117.238281 L 239.832031 117.425781 L 239.65625 117.519531 L 239.484375 117.613281 L 238.957031 117.882812 L 238.605469 118.054688 L 238.425781 118.140625 L 238.25 118.226562 L 237.710938 118.472656 L 237.171875 118.707031 L 236.988281 118.785156 L 236.808594 118.859375 L 236.625 118.933594 L 236.441406 119.003906 L 236.257812 119.078125 L 235.890625 119.21875 L 235.707031 119.285156 L 235.519531 119.351562 L 235.335938 119.417969 L 235.148438 119.484375 L 234.960938 119.546875 L 234.777344 119.609375 L 234.589844 119.667969 L 234.402344 119.730469 L 234.214844 119.789062 L 234.023438 119.847656 L 233.648438 119.957031 L 233.457031 120.011719 L 233.269531 120.0625 L 233.078125 120.117188 L 232.886719 120.167969 L 232.695312 120.214844 L 232.507812 120.261719 L 232.125 120.355469 L 231.929688 120.398438 L 231.738281 120.445312 L 231.546875 120.484375 L 231.355469 120.527344 L 231.160156 120.566406 L 230.96875 120.605469 L 230.773438 120.640625 L 230.582031 120.675781 L 230.386719 120.710938 L 230.195312 120.746094 L 229.804688 120.808594 L 229.609375 120.835938 L 229.414062 120.867188 L 229.21875 120.894531 L 229.023438 120.917969 L 228.828125 120.945312 L 228.4375 120.992188 L 227.851562 121.050781 L 227.65625 121.066406 L 227.457031 121.082031 L 227.066406 121.113281 L 226.871094 121.125 L 226.671875 121.136719 L 226.28125 121.152344 L 226.082031 121.160156 L 225.886719 121.167969 L 225.6875 121.171875 L 225.296875 121.179688 L 224.703125 121.179688 L 224.3125 121.171875 L 224.113281 121.167969 L 223.917969 121.160156 L 223.71875 121.152344 L 223.328125 121.136719 L 223.128906 121.125 L 222.933594 121.113281 L 222.542969 121.082031 L 222.34375 121.066406 L 222.148438 121.050781 L 221.5625 120.992188 L 221.171875 120.945312 L 220.976562 120.917969 L 220.78125 120.894531 L 220.585938 120.867188 L 220.390625 120.835938 L 220.195312 120.808594 L 219.804688 120.746094 L 219.613281 120.710938 L 219.417969 120.675781 L 219.226562 120.640625 L 219.03125 120.605469 L 218.839844 120.566406 L 218.644531 120.527344 L 218.453125 120.484375 L 218.261719 120.445312 L 218.070312 120.398438 L 217.875 120.355469 L 217.492188 120.261719 L 217.304688 120.214844 L 217.113281 120.167969 L 216.921875 120.117188 L 216.730469 120.0625 L 216.542969 120.011719 L 216.351562 119.957031 L 215.976562 119.847656 L 215.785156 119.789062 L 215.597656 119.730469 L 215.410156 119.667969 L 215.222656 119.609375 L 215.039062 119.546875 L 214.851562 119.484375 L 214.664062 119.417969 L 214.480469 119.351562 L 214.292969 119.285156 L 214.109375 119.21875 L 213.742188 119.078125 L 213.558594 119.003906 L 213.375 118.933594 L 213.191406 118.859375 L 213.011719 118.785156 L 212.828125 118.707031 L 212.289062 118.472656 L 211.75 118.226562 L 211.574219 118.140625 L 211.394531 118.054688 L 211.042969 117.882812 L 210.515625 117.613281 L 210.34375 117.519531 L 210.167969 117.425781 L 209.824219 117.238281 L 209.308594 116.945312 L 209.140625 116.847656 L 208.804688 116.644531 L 208.636719 116.539062 L 208.46875 116.4375 L 208.300781 116.332031 L 208.136719 116.226562 L 207.96875 116.117188 L 207.804688 116.011719 L 207.476562 115.792969 L 207.316406 115.679688 L 207.152344 115.566406 L 206.671875 115.226562 Z M 225 90 "/>
<path style=" stroke:none;fill-rule:nonzero;fill:rgb(83.921569%,73.72549%,75.294118%);fill-opacity:1;" d="M 225 90 L 211.144531 109.070312 L 211.027344 108.980469 L 210.90625 108.890625 L 210.785156 108.804688 L 210.667969 108.710938 L 210.433594 108.53125 L 210.199219 108.34375 L 210.085938 108.25 L 209.96875 108.15625 L 209.855469 108.0625 L 209.515625 107.769531 L 209.40625 107.671875 L 209.292969 107.574219 L 209.183594 107.472656 L 209.074219 107.375 L 208.746094 107.070312 L 208.636719 106.964844 L 208.53125 106.863281 L 208.109375 106.441406 L 208.007812 106.335938 L 207.5 105.789062 L 207.402344 105.679688 L 207.300781 105.566406 L 207.203125 105.457031 L 207.105469 105.34375 L 207.011719 105.230469 L 206.914062 105.117188 L 206.820312 105 L 206.726562 104.886719 L 206.539062 104.652344 L 206.445312 104.539062 L 206.355469 104.417969 L 206.175781 104.183594 L 206.085938 104.0625 L 205.996094 103.945312 L 205.652344 103.460938 L 205.566406 103.335938 L 205.484375 103.214844 L 205.398438 103.089844 L 205.316406 102.96875 L 205.234375 102.84375 L 205.15625 102.71875 L 205.074219 102.59375 L 204.996094 102.464844 L 204.917969 102.339844 L 204.839844 102.210938 L 204.761719 102.085938 L 204.390625 101.441406 L 204.320312 101.308594 L 204.25 101.179688 L 204.109375 100.914062 L 204.042969 100.785156 L 203.972656 100.652344 L 203.90625 100.519531 L 203.839844 100.382812 L 203.777344 100.25 L 203.710938 100.117188 L 203.648438 99.980469 L 203.585938 99.847656 L 203.460938 99.574219 L 203.402344 99.4375 L 203.34375 99.304688 L 203.285156 99.164062 L 203.226562 99.027344 L 203.171875 98.890625 L 203.113281 98.753906 L 203.058594 98.613281 L 203.007812 98.476562 L 202.953125 98.335938 L 202.902344 98.199219 L 202.699219 97.636719 L 202.605469 97.355469 L 202.558594 97.210938 L 202.472656 96.929688 L 202.429688 96.785156 L 202.386719 96.644531 L 202.34375 96.5 L 202.304688 96.359375 L 202.148438 95.78125 L 202.042969 95.347656 L 201.949219 94.914062 L 201.917969 94.765625 L 201.886719 94.621094 L 201.859375 94.476562 L 201.832031 94.328125 L 201.804688 94.183594 L 201.777344 94.035156 L 201.753906 93.890625 L 201.707031 93.59375 L 201.683594 93.449219 L 201.660156 93.300781 L 201.621094 93.003906 L 201.605469 92.859375 L 201.585938 92.710938 L 201.523438 92.117188 L 201.488281 91.671875 L 201.480469 91.523438 L 201.46875 91.375 L 201.453125 91.078125 L 201.449219 90.929688 L 201.441406 90.78125 L 201.433594 90.484375 L 201.433594 90.335938 L 201.429688 90.1875 L 201.429688 89.738281 L 201.445312 89.144531 L 201.453125 88.996094 L 201.457031 88.847656 L 201.472656 88.550781 L 201.53125 87.808594 L 201.59375 87.214844 L 201.613281 87.066406 L 201.632812 86.921875 L 201.671875 86.625 L 201.695312 86.476562 L 201.71875 86.332031 L 201.742188 86.183594 L 201.765625 86.039062 L 201.789062 85.890625 L 201.816406 85.746094 L 201.84375 85.597656 L 201.871094 85.453125 L 201.902344 85.304688 L 201.996094 84.871094 L 202.027344 84.722656 L 202.167969 84.144531 L 202.207031 84 L 202.246094 83.859375 L 202.363281 83.425781 L 202.40625 83.285156 L 202.449219 83.140625 L 202.492188 83 L 202.539062 82.859375 L 202.582031 82.714844 Z M 225 90 "/>
<path style=" stroke:none;fill-rule:nonzero;fill:rgb(73.333333%,46.666667%,51.764706%);fill-opacity:1;" d="M 225 90 L 199.9375 81.855469 L 199.988281 81.699219 L 200.042969 81.539062 L 200.207031 81.070312 L 200.265625 80.914062 L 200.320312 80.757812 L 200.378906 80.601562 L 200.441406 80.445312 L 200.5 80.292969 L 200.5625 80.136719 L 200.625 79.984375 L 200.691406 79.828125 L 200.753906 79.675781 L 200.953125 79.21875 L 201.09375 78.914062 L 201.164062 78.765625 L 201.234375 78.613281 L 201.304688 78.464844 L 201.453125 78.167969 L 201.53125 78.019531 L 201.605469 77.871094 L 201.761719 77.574219 L 201.839844 77.429688 L 201.917969 77.28125 L 202.246094 76.703125 L 202.332031 76.558594 L 202.417969 76.417969 L 202.503906 76.273438 L 202.589844 76.132812 L 202.949219 75.570312 L 203.039062 75.433594 L 203.132812 75.292969 L 203.414062 74.882812 L 203.511719 74.746094 L 203.605469 74.613281 L 203.703125 74.476562 L 203.804688 74.34375 L 203.902344 74.210938 L 204.308594 73.679688 L 204.410156 73.550781 L 204.832031 73.035156 L 204.941406 72.910156 L 205.050781 72.78125 L 205.378906 72.40625 L 205.492188 72.285156 L 205.601562 72.160156 L 205.828125 71.917969 L 205.945312 71.796875 L 206.058594 71.675781 L 206.292969 71.441406 L 206.410156 71.320312 L 206.527344 71.203125 L 206.648438 71.089844 L 206.765625 70.972656 L 207.007812 70.746094 L 207.132812 70.632812 L 207.253906 70.519531 L 207.378906 70.40625 L 207.5 70.296875 L 207.75 70.078125 L 207.878906 69.96875 L 208.003906 69.859375 L 208.519531 69.4375 L 208.648438 69.335938 L 208.78125 69.230469 L 208.910156 69.128906 L 209.175781 68.925781 L 209.441406 68.730469 L 209.714844 68.535156 L 209.847656 68.4375 L 210.121094 68.25 L 210.261719 68.15625 L 210.398438 68.0625 L 210.539062 67.972656 L 210.675781 67.878906 L 210.957031 67.699219 L 211.238281 67.527344 L 211.382812 67.4375 L 211.523438 67.355469 L 211.8125 67.183594 L 212.246094 66.9375 L 212.390625 66.859375 L 212.539062 66.78125 L 212.683594 66.703125 L 212.980469 66.546875 L 213.425781 66.324219 L 213.578125 66.253906 L 213.726562 66.179688 L 213.878906 66.109375 L 214.027344 66.039062 L 214.179688 65.972656 L 214.332031 65.902344 L 214.636719 65.769531 L 214.789062 65.707031 L 214.945312 65.640625 L 215.097656 65.578125 L 215.253906 65.515625 L 215.40625 65.457031 L 215.5625 65.394531 L 215.875 65.277344 L 216.03125 65.222656 L 216.1875 65.164062 L 216.5 65.054688 L 216.660156 65.003906 L 216.816406 64.949219 L 216.976562 64.898438 L 217.132812 64.847656 L 217.292969 64.800781 L 217.453125 64.75 L 217.613281 64.703125 L 217.773438 64.660156 L 217.933594 64.613281 L 218.574219 64.441406 L 218.738281 64.402344 L 218.898438 64.363281 L 219.0625 64.324219 L 219.222656 64.289062 L 219.386719 64.253906 L 219.546875 64.21875 L 219.710938 64.183594 L 220.039062 64.121094 L 220.199219 64.089844 L 220.363281 64.058594 L 221.019531 63.949219 L 221.1875 63.925781 L 221.515625 63.878906 L 221.679688 63.859375 L 221.847656 63.835938 L 222.011719 63.816406 L 222.175781 63.800781 L 222.34375 63.78125 L 222.671875 63.75 L 222.839844 63.738281 L 223.003906 63.722656 L 223.171875 63.710938 L 223.335938 63.699219 L 223.503906 63.691406 L 223.667969 63.679688 L 223.835938 63.671875 L 224 63.667969 L 224.167969 63.660156 L 224.335938 63.65625 L 224.5 63.652344 L 224.667969 63.648438 L 225 63.648438 Z M 225 90 "/>
</g>
</svg>
