<?xml version="1.0" encoding="UTF-8"?>
<svg xmlns="http://www.w3.org/2000/svg" xmlns:xlink="http://www.w3.org/1999/xlink" width="360pt" height="360pt" viewBox="0 0 360 360" version="1.1">
<g id="surface537">
<rect x="0" y="0" width="360" height="360" style="fill:rgb(100%,100%,100%);fill-opacity:1;stroke:none;"/>
<path style="fill-rule:nonzero;fill:rgb(100%,0%,0%);fill-opacity:1;stroke-width:0.75;stroke-linecap:round;stroke-linejoin:round;stroke:rgb(0%,0%,0%);stroke-opacity:1;stroke-miterlimit:10;" d="M 278.667969 172.800781 L 278.621094 170.085938 L 278.492188 167.375 L 278.273438 164.667969 L 277.96875 161.96875 L 277.574219 159.28125 L 277.097656 156.609375 L 276.53125 153.953125 L 275.882812 151.316406 L 275.148438 148.703125 L 274.328125 146.117188 L 273.429688 143.554688 L 272.445312 141.023438 L 271.382812 138.527344 L 270.238281 136.0625 L 269.015625 133.640625 L 267.714844 131.257812 L 266.335938 128.914062 L 264.886719 126.621094 L 263.363281 124.375 L 261.765625 122.175781 L 260.101562 120.035156 L 258.367188 117.945312 L 256.566406 115.910156 L 254.699219 113.9375 L 252.773438 112.027344 L 250.785156 110.175781 L 248.738281 108.394531 L 246.636719 106.675781 L 244.476562 105.027344 L 242.269531 103.449219 L 240.011719 101.945312 L 237.703125 100.511719 L 235.351562 99.152344 L 232.957031 97.871094 L 230.523438 96.667969 L 228.054688 95.546875 L 225.546875 94.5 L 223.007812 93.539062 L 220.441406 92.65625 L 217.84375 91.859375 L 215.226562 91.148438 L 212.582031 90.519531 L 209.921875 89.976562 L 207.246094 89.519531 L 204.558594 89.148438 L 201.855469 88.863281 L 199.148438 88.667969 L 196.4375 88.558594 L 193.722656 88.535156 L 191.007812 88.601562 L 188.296875 88.753906 L 185.589844 88.996094 L 182.894531 89.320312 L 180.214844 89.734375 L 177.542969 90.234375 L 174.894531 90.820312 L 172.261719 91.492188 L 169.65625 92.25 L 167.074219 93.085938 L 164.519531 94.007812 L 161.996094 95.011719 L 159.507812 96.097656 L 157.054688 97.261719 L 154.640625 98.503906 L 152.265625 99.824219 L 194.398438 172.800781 Z M 278.667969 172.800781 "/>
<path style="fill-rule:nonzero;fill:rgb(100%,100%,0%);fill-opacity:1;stroke-width:0.75;stroke-linecap:round;stroke-linejoin:round;stroke:rgb(0%,0%,0%);stroke-opacity:1;stroke-miterlimit:10;" d="M 152.265625 99.824219 L 149.972656 101.195312 L 147.722656 102.640625 L 145.519531 104.160156 L 143.367188 105.742188 L 141.265625 107.398438 L 139.21875 109.117188 L 137.222656 110.898438 L 135.289062 112.742188 L 133.414062 114.648438 L 131.597656 116.613281 L 129.847656 118.632812 L 128.160156 120.710938 L 126.542969 122.835938 L 124.992188 125.015625 L 123.511719 127.242188 L 122.101562 129.515625 L 120.761719 131.828125 L 119.5 134.1875 L 118.3125 136.582031 L 117.203125 139.015625 L 116.167969 141.480469 L 115.214844 143.980469 L 114.339844 146.507812 L 113.546875 149.058594 L 112.835938 151.636719 L 112.203125 154.234375 L 111.65625 156.851562 L 111.191406 159.484375 L 110.8125 162.132812 L 110.515625 164.789062 L 110.304688 167.457031 L 110.175781 170.125 L 110.132812 172.800781 L 110.175781 175.472656 L 110.304688 178.144531 L 110.515625 180.808594 L 110.8125 183.46875 L 111.191406 186.113281 L 111.65625 188.746094 L 112.203125 191.363281 L 112.835938 193.964844 L 113.546875 196.539062 L 114.339844 199.09375 L 115.214844 201.621094 L 116.167969 204.117188 L 117.203125 206.585938 L 118.3125 209.015625 L 119.5 211.414062 L 120.761719 213.769531 L 122.101562 216.085938 L 123.511719 218.359375 L 124.992188 220.585938 L 126.542969 222.761719 L 128.160156 224.890625 L 129.847656 226.964844 L 131.597656 228.988281 L 133.414062 230.949219 L 135.289062 232.855469 L 137.222656 234.703125 L 139.21875 236.484375 L 141.265625 238.203125 L 143.367188 239.855469 L 145.519531 241.441406 L 147.722656 242.957031 L 149.972656 244.402344 L 152.265625 245.777344 L 154.601562 247.078125 L 156.980469 248.300781 L 159.394531 249.453125 L 161.84375 250.523438 L 164.328125 251.515625 L 166.839844 252.433594 L 169.378906 253.265625 L 171.945312 254.019531 L 174.535156 254.691406 L 177.140625 255.28125 L 179.765625 255.785156 L 182.40625 256.207031 L 185.058594 256.546875 L 187.722656 256.800781 L 190.390625 256.972656 L 193.0625 257.054688 L 195.738281 257.054688 L 198.410156 256.972656 L 201.078125 256.800781 L 203.738281 256.546875 L 206.390625 256.207031 L 209.03125 255.785156 L 211.660156 255.28125 L 214.265625 254.691406 L 216.855469 254.019531 L 219.421875 253.265625 L 221.960938 252.433594 L 224.472656 251.515625 L 226.957031 250.523438 L 229.40625 249.453125 L 231.820312 248.300781 L 234.195312 247.078125 L 236.535156 245.777344 L 238.828125 244.402344 L 241.078125 242.957031 L 243.28125 241.441406 L 245.433594 239.855469 L 247.535156 238.203125 L 249.582031 236.484375 L 251.574219 234.703125 L 253.511719 232.855469 L 255.386719 230.949219 L 257.199219 228.988281 L 258.953125 226.964844 L 260.636719 224.890625 L 262.257812 222.761719 L 263.808594 220.585938 L 265.289062 218.359375 L 266.699219 216.085938 L 268.035156 213.769531 L 269.300781 211.414062 L 270.488281 209.015625 L 271.597656 206.585938 L 272.628906 204.117188 L 273.585938 201.621094 L 274.460938 199.09375 L 275.253906 196.539062 L 275.964844 193.964844 L 276.597656 191.363281 L 277.144531 188.746094 L 277.609375 186.113281 L 277.988281 183.46875 L 278.285156 180.808594 L 278.496094 178.144531 L 278.625 175.472656 L 278.667969 172.800781 L 194.398438 172.800781 Z M 152.265625 99.824219 "/>
</g>
</svg>
