<?xml version="1.0" encoding="UTF-8"?>
<svg xmlns="http://www.w3.org/2000/svg" xmlns:xlink="http://www.w3.org/1999/xlink" width="360pt" height="360pt" viewBox="0 0 360 360" version="1.1">
<g id="surface532">
<rect x="0" y="0" width="360" height="360" style="fill:rgb(100%,100%,100%);fill-opacity:1;stroke:none;"/>
<path style="fill-rule:nonzero;fill:rgb(100%,0%,0%);fill-opacity:1;stroke-width:0.75;stroke-linecap:round;stroke-linejoin:round;stroke:rgb(0%,0%,0%);stroke-opacity:1;stroke-miterlimit:10;" d="M 278.667969 172.800781 L 278.625 170.097656 L 278.492188 167.402344 L 278.277344 164.707031 L 277.976562 162.023438 L 277.585938 159.351562 L 277.113281 156.691406 L 276.554688 154.050781 L 275.910156 151.425781 L 275.183594 148.824219 L 274.375 146.246094 L 273.480469 143.695312 L 272.507812 141.175781 L 271.453125 138.691406 L 270.320312 136.238281 L 269.109375 133.824219 L 267.824219 131.449219 L 266.460938 129.117188 L 265.023438 126.828125 L 263.511719 124.589844 L 261.933594 122.398438 L 260.28125 120.261719 L 258.566406 118.175781 L 256.78125 116.148438 L 254.933594 114.175781 L 253.023438 112.265625 L 251.050781 110.417969 L 249.023438 108.636719 L 246.9375 106.917969 L 244.800781 105.265625 L 242.609375 103.6875 L 240.371094 102.175781 L 238.082031 100.738281 L 235.75 99.375 L 233.375 98.089844 L 230.960938 96.878906 L 228.507812 95.746094 L 226.023438 94.691406 L 223.503906 93.71875 L 220.953125 92.828125 L 218.375 92.015625 L 215.773438 91.289062 L 213.152344 90.644531 L 210.507812 90.085938 L 207.847656 89.613281 L 205.175781 89.226562 L 202.492188 88.921875 L 199.800781 88.707031 L 197.101562 88.578125 L 194.398438 88.535156 L 194.398438 172.800781 Z M 278.667969 172.800781 "/>
<path style="fill-rule:nonzero;fill:rgb(100%,100%,0%);fill-opacity:1;stroke-width:0.75;stroke-linecap:round;stroke-linejoin:round;stroke:rgb(0%,0%,0%);stroke-opacity:1;stroke-miterlimit:10;" d="M 194.398438 88.535156 L 191.734375 88.574219 L 189.074219 88.703125 L 186.417969 88.914062 L 183.769531 89.207031 L 181.128906 89.585938 L 178.503906 90.046875 L 175.894531 90.589844 L 173.304688 91.214844 L 170.738281 91.925781 L 168.191406 92.710938 L 165.671875 93.582031 L 163.179688 94.53125 L 160.722656 95.554688 L 158.296875 96.660156 L 155.90625 97.839844 L 153.554688 99.09375 L 151.246094 100.421875 L 148.976562 101.824219 L 146.757812 103.296875 L 144.582031 104.835938 L 142.457031 106.445312 L 140.386719 108.121094 L 138.367188 109.863281 L 136.40625 111.664062 L 134.5 113.53125 L 132.65625 115.453125 L 130.875 117.433594 L 129.15625 119.46875 L 127.5 121.558594 L 125.914062 123.703125 L 124.398438 125.890625 L 122.949219 128.128906 L 121.570312 130.410156 L 120.265625 132.734375 L 119.039062 135.097656 L 117.882812 137.5 L 116.804688 139.9375 L 115.804688 142.40625 L 114.882812 144.910156 L 114.039062 147.4375 L 113.277344 149.992188 L 112.597656 152.566406 L 112 155.164062 L 111.484375 157.777344 L 111.050781 160.40625 L 110.699219 163.050781 L 110.433594 165.703125 L 110.25 168.359375 L 110.152344 171.023438 L 110.136719 173.6875 L 110.207031 176.351562 L 110.363281 179.011719 L 110.601562 181.667969 L 110.921875 184.3125 L 111.328125 186.945312 L 111.816406 189.566406 L 112.390625 192.167969 L 113.042969 194.753906 L 113.777344 197.3125 L 114.59375 199.851562 L 115.488281 202.363281 L 116.464844 204.84375 L 117.515625 207.289062 L 118.644531 209.703125 L 119.847656 212.082031 L 121.128906 214.417969 L 122.480469 216.714844 L 123.90625 218.96875 L 125.402344 221.171875 L 126.964844 223.332031 L 128.597656 225.4375 L 130.292969 227.492188 L 132.054688 229.492188 L 133.878906 231.4375 L 135.765625 233.320312 L 137.707031 235.144531 L 139.707031 236.90625 L 141.761719 238.601562 L 143.867188 240.234375 L 146.027344 241.800781 L 148.230469 243.292969 L 150.484375 244.71875 L 152.78125 246.070312 L 155.117188 247.351562 L 157.496094 248.554688 L 159.910156 249.683594 L 162.359375 250.738281 L 164.839844 251.710938 L 167.347656 252.605469 L 169.886719 253.421875 L 172.445312 254.15625 L 175.03125 254.808594 L 177.632812 255.382812 L 180.253906 255.871094 L 182.886719 256.277344 L 185.53125 256.597656 L 188.1875 256.835938 L 190.847656 256.992188 L 193.511719 257.0625 L 196.175781 257.046875 L 198.839844 256.949219 L 201.5 256.765625 L 204.148438 256.5 L 206.792969 256.152344 L 209.421875 255.71875 L 212.035156 255.199219 L 214.632812 254.601562 L 217.210938 253.921875 L 219.761719 253.160156 L 222.292969 252.316406 L 224.792969 251.394531 L 227.261719 250.394531 L 229.699219 249.316406 L 232.101562 248.164062 L 234.464844 246.933594 L 236.789062 245.628906 L 239.070312 244.25 L 241.308594 242.804688 L 243.5 241.285156 L 245.640625 239.699219 L 247.730469 238.042969 L 249.765625 236.324219 L 251.746094 234.542969 L 253.671875 232.699219 L 255.535156 230.792969 L 257.339844 228.832031 L 259.078125 226.8125 L 260.753906 224.742188 L 262.363281 222.617188 L 263.90625 220.445312 L 265.375 218.222656 L 266.777344 215.953125 L 268.105469 213.644531 L 269.359375 211.292969 L 270.539062 208.902344 L 271.644531 206.476562 L 272.671875 204.019531 L 273.617188 201.527344 L 274.488281 199.007812 L 275.277344 196.464844 L 275.984375 193.894531 L 276.609375 191.304688 L 277.152344 188.695312 L 277.617188 186.070312 L 277.992188 183.433594 L 278.289062 180.785156 L 278.5 178.125 L 278.625 175.464844 L 278.667969 172.800781 L 194.398438 172.800781 Z M 194.398438 88.535156 "/>
</g>
</svg>
