<?xml version="1.0" encoding="UTF-8"?>
<svg xmlns="http://www.w3.org/2000/svg" xmlns:xlink="http://www.w3.org/1999/xlink" width="360pt" height="360pt" viewBox="0 0 360 360" version="1.1">
<g id="surface527">
<rect x="0" y="0" width="360" height="360" style="fill:rgb(100%,100%,100%);fill-opacity:1;stroke:none;"/>
<path style="fill-rule:nonzero;fill:rgb(100%,0%,0%);fill-opacity:1;stroke-width:0.75;stroke-linecap:round;stroke-linejoin:round;stroke:rgb(0%,0%,0%);stroke-opacity:1;stroke-miterlimit:10;" d="M 278.667969 172.800781 L 278.621094 170 L 278.480469 167.203125 L 278.246094 164.410156 L 277.921875 161.628906 L 277.503906 158.859375 L 276.996094 156.101562 L 276.394531 153.367188 L 275.703125 150.652344 L 274.921875 147.960938 L 274.054688 145.300781 L 273.09375 142.667969 L 272.050781 140.066406 L 270.917969 137.503906 L 269.703125 134.980469 L 268.40625 132.5 L 267.023438 130.0625 L 265.5625 127.671875 L 264.023438 125.332031 L 262.40625 123.042969 L 260.714844 120.808594 L 258.953125 118.632812 L 257.117188 116.519531 L 255.210938 114.464844 L 253.238281 112.476562 L 251.199219 110.554688 L 249.101562 108.699219 L 246.9375 106.917969 L 194.398438 172.800781 Z M 278.667969 172.800781 "/>
<path style="fill-rule:nonzero;fill:rgb(100%,100%,0%);fill-opacity:1;stroke-width:0.75;stroke-linecap:round;stroke-linejoin:round;stroke:rgb(0%,0%,0%);stroke-opacity:1;stroke-miterlimit:10;" d="M 246.9375 106.917969 L 244.828125 105.285156 L 242.664062 103.722656 L 240.449219 102.230469 L 238.191406 100.804688 L 235.890625 99.453125 L 233.546875 98.175781 L 231.164062 96.976562 L 228.742188 95.847656 L 226.289062 94.800781 L 223.800781 93.828125 L 221.285156 92.9375 L 218.742188 92.125 L 216.175781 91.394531 L 213.585938 90.746094 L 210.976562 90.179688 L 208.351562 89.695312 L 205.710938 89.296875 L 203.0625 88.980469 L 200.402344 88.746094 L 197.734375 88.597656 L 195.066406 88.535156 L 192.398438 88.558594 L 189.730469 88.664062 L 187.066406 88.851562 L 184.414062 89.128906 L 181.765625 89.484375 L 179.136719 89.925781 L 176.515625 90.453125 L 173.917969 91.058594 L 171.339844 91.75 L 168.785156 92.519531 L 166.253906 93.371094 L 163.753906 94.304688 L 161.28125 95.316406 L 158.84375 96.402344 L 156.441406 97.566406 L 154.078125 98.808594 L 151.753906 100.121094 L 149.472656 101.507812 L 147.238281 102.96875 L 145.050781 104.496094 L 142.910156 106.09375 L 140.824219 107.757812 L 138.789062 109.488281 L 136.8125 111.28125 L 134.894531 113.136719 L 133.03125 115.050781 L 131.234375 117.023438 L 129.5 119.050781 L 127.828125 121.136719 L 126.226562 123.269531 L 124.691406 125.453125 L 123.226562 127.683594 L 121.835938 129.960938 L 120.515625 132.28125 L 119.265625 134.644531 L 118.097656 137.042969 L 117.003906 139.476562 L 115.984375 141.945312 L 115.046875 144.445312 L 114.1875 146.972656 L 113.410156 149.527344 L 112.714844 152.101562 L 112.101562 154.699219 L 111.566406 157.316406 L 111.121094 159.949219 L 110.753906 162.59375 L 110.472656 165.246094 L 110.277344 167.910156 L 110.164062 170.574219 L 110.132812 173.246094 L 110.191406 175.914062 L 110.332031 178.578125 L 110.558594 181.238281 L 110.867188 183.890625 L 111.257812 186.53125 L 111.734375 189.15625 L 112.296875 191.769531 L 112.9375 194.359375 L 113.660156 196.929688 L 114.464844 199.472656 L 115.351562 201.992188 L 116.316406 204.480469 L 117.359375 206.9375 L 118.476562 209.363281 L 119.675781 211.75 L 120.945312 214.097656 L 122.289062 216.402344 L 123.707031 218.664062 L 125.195312 220.878906 L 126.753906 223.046875 L 128.378906 225.164062 L 130.070312 227.230469 L 131.828125 229.242188 L 133.644531 231.195312 L 135.527344 233.089844 L 137.464844 234.921875 L 139.460938 236.695312 L 141.511719 238.402344 L 143.617188 240.046875 L 145.773438 241.621094 L 147.976562 243.125 L 150.230469 244.5625 L 152.523438 245.925781 L 154.859375 247.214844 L 157.238281 248.429688 L 159.652344 249.570312 L 162.101562 250.632812 L 164.582031 251.613281 L 167.09375 252.519531 L 169.632812 253.34375 L 172.195312 254.089844 L 174.78125 254.75 L 177.386719 255.332031 L 180.011719 255.828125 L 182.648438 256.242188 L 185.296875 256.574219 L 187.953125 256.820312 L 190.621094 256.980469 L 193.289062 257.058594 L 195.957031 257.050781 L 198.625 256.960938 L 201.289062 256.785156 L 203.945312 256.523438 L 206.59375 256.179688 L 209.226562 255.75 L 211.847656 255.242188 L 214.449219 254.648438 L 217.03125 253.96875 L 219.59375 253.210938 L 222.125 252.375 L 224.632812 251.457031 L 227.109375 250.460938 L 229.554688 249.382812 L 231.960938 248.234375 L 234.332031 247.003906 L 236.660156 245.703125 L 238.949219 244.328125 L 241.191406 242.878906 L 243.390625 241.363281 L 245.535156 239.777344 L 247.632812 238.125 L 249.675781 236.40625 L 251.660156 234.621094 L 253.589844 232.777344 L 255.460938 230.871094 L 257.269531 228.910156 L 259.015625 226.890625 L 260.695312 224.816406 L 262.3125 222.691406 L 263.855469 220.515625 L 265.332031 218.289062 L 266.738281 216.019531 L 268.070312 213.707031 L 269.328125 211.351562 L 270.511719 208.960938 L 271.621094 206.53125 L 272.652344 204.070312 L 273.601562 201.574219 L 274.472656 199.050781 L 275.265625 196.5 L 275.976562 193.929688 L 276.601562 191.335938 L 277.148438 188.722656 L 277.613281 186.09375 L 277.992188 183.449219 L 278.285156 180.796875 L 278.496094 178.136719 L 278.625 175.46875 L 278.667969 172.800781 L 194.398438 172.800781 Z M 246.9375 106.917969 "/>
</g>
</svg>
