<?xml version="1.0" encoding="UTF-8"?>
<svg xmlns="http://www.w3.org/2000/svg" xmlns:xlink="http://www.w3.org/1999/xlink" width="360pt" height="360pt" viewBox="0 0 360 360" version="1.1">
<g id="surface547">
<rect x="0" y="0" width="360" height="360" style="fill:rgb(100%,100%,100%);fill-opacity:1;stroke:none;"/>
<path style="fill-rule:nonzero;fill:rgb(100%,0%,0%);fill-opacity:1;stroke-width:0.75;stroke-linecap:round;stroke-linejoin:round;stroke:rgb(0%,0%,0%);stroke-opacity:1;stroke-miterlimit:10;" d="M 278.667969 172.800781 L 278.625 170.097656 L 278.492188 167.394531 L 278.277344 164.699219 L 277.972656 162.011719 L 277.585938 159.335938 L 277.109375 156.675781 L 276.550781 154.03125 L 275.90625 151.402344 L 275.175781 148.800781 L 274.363281 146.21875 L 273.472656 143.667969 L 272.496094 141.148438 L 271.441406 138.65625 L 270.304688 136.203125 L 269.089844 133.785156 L 267.800781 131.410156 L 266.4375 129.078125 L 264.996094 126.789062 L 263.484375 124.546875 L 261.898438 122.355469 L 260.246094 120.214844 L 258.523438 118.128906 L 256.738281 116.101562 L 254.886719 114.128906 L 252.972656 112.21875 L 251 110.371094 L 248.96875 108.585938 L 246.878906 106.871094 L 244.738281 105.21875 L 242.542969 103.640625 L 240.296875 102.128906 L 238.007812 100.695312 L 235.671875 99.332031 L 233.292969 98.046875 L 230.875 96.835938 L 228.417969 95.707031 L 225.929688 94.652344 L 223.40625 93.683594 L 220.851562 92.792969 L 218.269531 91.984375 L 215.664062 91.261719 L 213.039062 90.621094 L 210.390625 90.066406 L 207.730469 89.59375 L 205.050781 89.210938 L 202.363281 88.910156 L 199.667969 88.699219 L 196.96875 88.574219 L 194.265625 88.535156 L 191.5625 88.582031 L 188.859375 88.714844 L 186.164062 88.9375 L 183.480469 89.242188 L 180.804688 89.636719 L 178.144531 90.117188 L 175.5 90.679688 L 172.875 91.328125 L 170.269531 92.0625 L 167.691406 92.878906 L 165.140625 93.777344 L 162.621094 94.753906 L 160.132812 95.816406 L 157.679688 96.953125 L 155.265625 98.171875 L 152.894531 99.464844 L 150.5625 100.835938 L 148.273438 102.277344 L 146.035156 103.792969 L 143.847656 105.382812 L 141.710938 107.039062 L 139.625 108.761719 L 137.601562 110.554688 L 135.632812 112.40625 L 133.726562 114.324219 L 131.878906 116.300781 L 130.101562 118.335938 L 128.386719 120.425781 L 126.738281 122.570312 L 125.164062 124.769531 L 123.65625 127.015625 L 122.222656 129.308594 L 120.867188 131.644531 L 119.582031 134.027344 L 118.378906 136.445312 L 117.25 138.90625 L 116.203125 141.398438 L 115.234375 143.921875 L 114.351562 146.476562 L 113.546875 149.058594 L 194.398438 172.800781 Z M 278.667969 172.800781 "/>
<path style="fill-rule:nonzero;fill:rgb(100%,100%,0%);fill-opacity:1;stroke-width:0.75;stroke-linecap:round;stroke-linejoin:round;stroke:rgb(0%,0%,0%);stroke-opacity:1;stroke-miterlimit:10;" d="M 113.546875 149.058594 L 112.835938 151.636719 L 112.203125 154.234375 L 111.65625 156.851562 L 111.191406 159.484375 L 110.8125 162.132812 L 110.515625 164.789062 L 110.304688 167.457031 L 110.175781 170.125 L 110.132812 172.800781 L 110.175781 175.472656 L 110.304688 178.144531 L 110.515625 180.808594 L 110.8125 183.46875 L 111.191406 186.113281 L 111.65625 188.746094 L 112.203125 191.363281 L 112.835938 193.964844 L 113.546875 196.539062 L 114.339844 199.09375 L 115.214844 201.621094 L 116.167969 204.117188 L 117.203125 206.585938 L 118.3125 209.015625 L 119.5 211.414062 L 120.761719 213.769531 L 122.101562 216.085938 L 123.511719 218.359375 L 124.992188 220.585938 L 126.542969 222.761719 L 128.160156 224.890625 L 129.847656 226.964844 L 131.597656 228.988281 L 133.414062 230.949219 L 135.289062 232.855469 L 137.222656 234.703125 L 139.21875 236.484375 L 141.265625 238.203125 L 143.367188 239.855469 L 145.519531 241.441406 L 147.722656 242.957031 L 149.972656 244.402344 L 152.265625 245.777344 L 154.601562 247.078125 L 156.980469 248.300781 L 159.394531 249.453125 L 161.84375 250.523438 L 164.328125 251.515625 L 166.839844 252.433594 L 169.378906 253.265625 L 171.945312 254.019531 L 174.535156 254.691406 L 177.140625 255.28125 L 179.765625 255.785156 L 182.40625 256.207031 L 185.058594 256.546875 L 187.722656 256.800781 L 190.390625 256.972656 L 193.0625 257.054688 L 195.738281 257.054688 L 198.410156 256.972656 L 201.078125 256.800781 L 203.738281 256.546875 L 206.390625 256.207031 L 209.03125 255.785156 L 211.660156 255.28125 L 214.265625 254.691406 L 216.855469 254.019531 L 219.421875 253.265625 L 221.960938 252.433594 L 224.472656 251.515625 L 226.957031 250.523438 L 229.40625 249.453125 L 231.820312 248.300781 L 234.195312 247.078125 L 236.535156 245.777344 L 238.828125 244.402344 L 241.078125 242.957031 L 243.28125 241.441406 L 245.433594 239.855469 L 247.535156 238.203125 L 249.582031 236.484375 L 251.574219 234.703125 L 253.511719 232.855469 L 255.386719 230.949219 L 257.199219 228.988281 L 258.953125 226.964844 L 260.636719 224.890625 L 262.257812 222.761719 L 263.808594 220.585938 L 265.289062 218.359375 L 266.699219 216.085938 L 268.035156 213.769531 L 269.300781 211.414062 L 270.488281 209.015625 L 271.597656 206.585938 L 272.628906 204.117188 L 273.585938 201.621094 L 274.460938 199.09375 L 275.253906 196.539062 L 275.964844 193.964844 L 276.597656 191.363281 L 277.144531 188.746094 L 277.609375 186.113281 L 277.988281 183.46875 L 278.285156 180.808594 L 278.496094 178.144531 L 278.625 175.472656 L 278.667969 172.800781 L 194.398438 172.800781 Z M 113.546875 149.058594 "/>
</g>
</svg>
