<?xml version="1.0" encoding="UTF-8"?>
<svg xmlns="http://www.w3.org/2000/svg" xmlns:xlink="http://www.w3.org/1999/xlink" width="360pt" height="360pt" viewBox="0 0 360 360" version="1.1">
<g id="surface522">
<rect x="0" y="0" width="360" height="360" style="fill:rgb(100%,100%,100%);fill-opacity:1;stroke:none;"/>
<path style="fill:none;stroke-width:0.75;stroke-linecap:round;stroke-linejoin:round;stroke:rgb(0%,0%,0%);stroke-opacity:1;stroke-miterlimit:10;" d="M 278.667969 172.800781 L 194.398438 172.800781 Z M 278.667969 172.800781 "/>
<path style="fill-rule:nonzero;fill:rgb(100%,100%,0%);fill-opacity:1;stroke-width:0.75;stroke-linecap:round;stroke-linejoin:round;stroke:rgb(0%,0%,0%);stroke-opacity:1;stroke-miterlimit:10;" d="M 278.667969 172.800781 L 278.625 170.140625 L 278.5 167.480469 L 278.289062 164.828125 L 277.996094 162.1875 L 277.617188 159.550781 L 277.160156 156.929688 L 276.617188 154.328125 L 275.992188 151.742188 L 275.289062 149.175781 L 274.5 146.632812 L 273.636719 144.117188 L 272.691406 141.632812 L 271.667969 139.175781 L 270.566406 136.753906 L 269.390625 134.367188 L 268.140625 132.019531 L 266.816406 129.710938 L 265.421875 127.445312 L 263.953125 125.226562 L 262.417969 123.054688 L 260.8125 120.933594 L 259.140625 118.859375 L 257.40625 116.84375 L 255.609375 114.882812 L 253.75 112.980469 L 251.832031 111.136719 L 249.855469 109.355469 L 247.824219 107.632812 L 245.742188 105.980469 L 243.605469 104.394531 L 241.421875 102.875 L 239.191406 101.425781 L 236.917969 100.046875 L 234.597656 98.738281 L 232.242188 97.507812 L 229.84375 96.351562 L 227.414062 95.269531 L 224.949219 94.265625 L 222.457031 93.339844 L 219.933594 92.496094 L 217.386719 91.730469 L 214.816406 91.042969 L 212.222656 90.441406 L 209.613281 89.917969 L 206.992188 89.480469 L 204.355469 89.125 L 201.707031 88.851562 L 199.054688 88.660156 L 196.394531 88.558594 L 193.734375 88.535156 L 191.074219 88.597656 L 188.417969 88.746094 L 185.769531 88.976562 L 183.125 89.289062 L 180.496094 89.6875 L 177.878906 90.167969 L 175.277344 90.730469 L 172.699219 91.375 L 170.136719 92.101562 L 167.601562 92.90625 L 165.09375 93.792969 L 162.613281 94.757812 L 160.167969 95.800781 L 157.753906 96.917969 L 155.375 98.113281 L 153.035156 99.382812 L 150.738281 100.726562 L 148.488281 102.140625 L 146.277344 103.625 L 144.117188 105.179688 L 142.007812 106.800781 L 139.953125 108.484375 L 137.949219 110.238281 L 136 112.050781 L 134.113281 113.925781 L 132.285156 115.855469 L 130.519531 117.847656 L 128.816406 119.890625 L 127.175781 121.988281 L 125.605469 124.132812 L 124.105469 126.332031 L 122.671875 128.574219 L 121.3125 130.859375 L 120.023438 133.1875 L 118.8125 135.554688 L 117.671875 137.960938 L 116.613281 140.398438 L 115.628906 142.871094 L 114.722656 145.371094 L 113.894531 147.902344 L 113.148438 150.457031 L 112.484375 153.03125 L 111.902344 155.628906 L 111.402344 158.238281 L 110.984375 160.867188 L 110.648438 163.507812 L 110.394531 166.15625 L 110.226562 168.8125 L 110.144531 171.46875 L 110.144531 174.128906 L 110.226562 176.789062 L 110.394531 179.445312 L 110.648438 182.09375 L 110.984375 184.734375 L 111.402344 187.359375 L 111.902344 189.972656 L 112.484375 192.570312 L 113.148438 195.144531 L 113.894531 197.699219 L 114.722656 200.226562 L 115.628906 202.730469 L 116.613281 205.199219 L 117.671875 207.640625 L 118.8125 210.046875 L 120.023438 212.414062 L 121.3125 214.742188 L 122.671875 217.027344 L 124.105469 219.269531 L 125.605469 221.464844 L 127.175781 223.613281 L 128.816406 225.710938 L 130.519531 227.753906 L 132.285156 229.742188 L 134.113281 231.675781 L 136 233.550781 L 137.949219 235.363281 L 139.953125 237.113281 L 142.007812 238.800781 L 144.117188 240.421875 L 146.277344 241.976562 L 148.488281 243.460938 L 150.738281 244.875 L 153.035156 246.214844 L 155.375 247.484375 L 157.753906 248.679688 L 160.167969 249.800781 L 162.613281 250.839844 L 165.09375 251.804688 L 167.601562 252.691406 L 170.136719 253.5 L 172.699219 254.222656 L 175.277344 254.867188 L 177.878906 255.429688 L 180.496094 255.910156 L 183.125 256.308594 L 185.769531 256.625 L 188.417969 256.855469 L 191.074219 257 L 193.734375 257.0625 L 196.394531 257.042969 L 199.054688 256.9375 L 201.707031 256.75 L 204.355469 256.476562 L 206.992188 256.121094 L 209.613281 255.683594 L 212.222656 255.160156 L 214.816406 254.554688 L 217.386719 253.871094 L 219.933594 253.105469 L 222.457031 252.257812 L 224.949219 251.332031 L 227.414062 250.332031 L 229.84375 249.25 L 232.242188 248.09375 L 234.597656 246.859375 L 236.917969 245.554688 L 239.191406 244.175781 L 241.421875 242.726562 L 243.605469 241.207031 L 245.742188 239.621094 L 247.824219 237.964844 L 249.855469 236.246094 L 251.832031 234.464844 L 253.75 232.621094 L 255.609375 230.71875 L 257.40625 228.753906 L 259.140625 226.738281 L 260.8125 224.667969 L 262.417969 222.546875 L 263.953125 220.375 L 265.421875 218.15625 L 266.816406 215.890625 L 268.140625 213.582031 L 269.390625 211.234375 L 270.566406 208.847656 L 271.667969 206.425781 L 272.691406 203.96875 L 273.636719 201.480469 L 274.5 198.964844 L 275.289062 196.425781 L 275.992188 193.859375 L 276.617188 191.273438 L 277.160156 188.667969 L 277.617188 186.046875 L 277.996094 183.414062 L 278.289062 180.769531 L 278.5 178.117188 L 278.625 175.460938 L 278.667969 172.800781 L 194.398438 172.800781 Z M 278.667969 172.800781 "/>
</g>
</svg>
