<?xml version="1.0" encoding="ASCII"?>
<svg xmlns="http://www.w3.org/2000/svg" xmlns:xlink="http://www.w3.org/1999/xlink" id="grid-pkgs" width="556px" height="468px" viewBox="0 0 556 468" version="1.1">
  <metadata xmlns:gridsvg="http://www.stat.auckland.ac.nz/~paul/R/gridSVG/">
    <gridsvg:generator name="gridSVG" version="1.4-4" time="2015-03-13 10:56:12"/>
    <gridsvg:argument name="name" value="grid-pkgs.svg"/>
    <gridsvg:argument name="exportCoords" value="none"/>
    <gridsvg:argument name="exportMappings" value="none"/>
    <gridsvg:argument name="exportJS" value="none"/>
    <gridsvg:argument name="res" value="72"/>
    <gridsvg:argument name="prefix" value="grid-pkgs"/>
    <gridsvg:argument name="addClasses" value="FALSE"/>
    <gridsvg:argument name="indent" value="TRUE"/>
    <gridsvg:argument name="htmlWrapper" value="FALSE"/>
    <gridsvg:argument name="usePaths" value="vpPaths"/>
    <gridsvg:argument name="uniqueNames" value="TRUE"/>
    <gridsvg:separator name="id.sep" value="."/>
    <gridsvg:separator name="gPath.sep" value="::"/>
    <gridsvg:separator name="vpPath.sep" value="::"/>
  </metadata>
  <g transform="translate(0, 468) scale(1, -1)">
    <g id="grid-pkgsgridSVG" fill="none" stroke="rgb(0,0,0)" stroke-dasharray="none" stroke-width="0.75" font-size="12" font-family="Helvetica, Arial, FreeSans, Liberation Sans, Nimbus Sans L, sans-serif" opacity="1" stroke-linecap="round" stroke-linejoin="round" stroke-miterlimit="10" stroke-opacity="1" fill-opacity="0" font-weight="normal" font-style="normal">
      <g id="grid-pkgsgraphSizeVP.1">
        <g id="grid-pkgsgraphSizeVP::graphScaleVP.1">
          <g id="grid-pkgsedge-grDevices~SVG.1">
            <g id="grid-pkgscurve-grDevices~SVG-1.1">
              <polyline id="grid-pkgscurve-grDevices~SVG-1.1.1" points="349.73,109.47 347.23,107.67 344.59,105.77 341.78,103.75 338.81,101.6 335.69,99.33 332.43,96.96 329.08,94.51 325.67,92.02 322.26,89.52 318.89,87.06 315.61,84.65 312.44,82.32 309.41,80.1 306.52,77.98 303.77,75.97 301.91,74.6" stroke="rgb(0,0,0)" stroke-width="0.75" stroke-dasharray="none" stroke-opacity="1" fill="none"/>
            </g>
            <g id="grid-pkgsarrowhead-grDevices~SVG.1">
              <defs>
                <marker id="grid-pkgsarrowhead-grDevices~SVG.1.1.markerStart" refX="-9.36" refY="-3.41" overflow="visible" markerUnits="userSpaceOnUse" markerWidth="9.36" markerHeight="6.81" orient="auto">
                  <path d="M 0 0 L 9.36 3.41 L 0 6.81 Z" stroke="rgb(0,0,0)" fill="rgb(0,0,0)" stroke-width="0.75" stroke-dasharray="none" stroke-opacity="1" fill-opacity="1" transform="rotate(180)"/>
                </marker>
                <marker id="grid-pkgsarrowhead-grDevices~SVG.1.1.markerEnd" refX="9.36" refY="3.41" overflow="visible" markerUnits="userSpaceOnUse" markerWidth="9.36" markerHeight="6.81" orient="auto">
                  <path d="M 0 0 L 9.36 3.41 L 0 6.81 Z" stroke="rgb(0,0,0)" fill="rgb(0,0,0)" stroke-width="0.75" stroke-dasharray="none" stroke-opacity="1" fill-opacity="1"/>
                </marker>
              </defs>
              <polyline id="grid-pkgsarrowhead-grDevices~SVG.1.1" points="301.91,74.6 292.94,68.62" marker-end="url(#grid-pkgsarrowhead-grDevices~SVG.1.1.markerEnd)" stroke="rgb(0,0,0)" fill="none" stroke-width="0.75" stroke-dasharray="none" stroke-opacity="1" fill-opacity="1"/>
            </g>
          </g>
          <g id="grid-pkgsedge-grDevices~PNG.1">
            <g id="grid-pkgscurve-grDevices~PNG-1.1">
              <polyline id="grid-pkgscurve-grDevices~PNG-1.1.1" points="368.66,107.47 368.39,105.29 368.11,102.99 367.82,100.54 367.51,97.97 367.2,95.32 366.89,92.66 366.58,90.06 366.28,87.59 366,85.25 365.73,83.05 365.67,82.57" stroke="rgb(0,0,0)" stroke-width="0.75" stroke-dasharray="none" stroke-opacity="1" fill="none"/>
            </g>
            <g id="grid-pkgsarrowhead-grDevices~PNG.1">
              <defs>
                <marker id="grid-pkgsarrowhead-grDevices~PNG.1.1.markerStart" refX="-9.36" refY="-3.41" overflow="visible" markerUnits="userSpaceOnUse" markerWidth="9.36" markerHeight="6.81" orient="auto">
                  <path d="M 0 0 L 9.36 3.41 L 0 6.81 Z" stroke="rgb(0,0,0)" fill="rgb(0,0,0)" stroke-width="0.75" stroke-dasharray="none" stroke-opacity="1" fill-opacity="1" transform="rotate(180)"/>
                </marker>
                <marker id="grid-pkgsarrowhead-grDevices~PNG.1.1.markerEnd" refX="9.36" refY="3.41" overflow="visible" markerUnits="userSpaceOnUse" markerWidth="9.36" markerHeight="6.81" orient="auto">
                  <path d="M 0 0 L 9.36 3.41 L 0 6.81 Z" stroke="rgb(0,0,0)" fill="rgb(0,0,0)" stroke-width="0.75" stroke-dasharray="none" stroke-opacity="1" fill-opacity="1"/>
                </marker>
              </defs>
              <polyline id="grid-pkgsarrowhead-grDevices~PNG.1.1" points="365.67,82.57 364.67,72.61" marker-end="url(#grid-pkgsarrowhead-grDevices~PNG.1.1.markerEnd)" stroke="rgb(0,0,0)" fill="none" stroke-width="0.75" stroke-dasharray="none" stroke-opacity="1" fill-opacity="1"/>
            </g>
          </g>
          <g id="grid-pkgsedge-grDevices~PDF.1">
            <g id="grid-pkgscurve-grDevices~PDF-1.1">
              <polyline id="grid-pkgscurve-grDevices~PDF-1.1.1" points="386.59,108.47 388.47,106.59 390.47,104.59 392.61,102.46 394.88,100.18 397.29,97.78 399.78,95.28 402.33,92.74 404.88,90.19 407.39,87.68 409.82,85.24 412.15,82.91 414.36,80.7 416.47,78.59 417.48,77.59" stroke="rgb(0,0,0)" stroke-width="0.75" stroke-dasharray="none" stroke-opacity="1" fill="none"/>
            </g>
            <g id="grid-pkgsarrowhead-grDevices~PDF.1">
              <defs>
                <marker id="grid-pkgsarrowhead-grDevices~PDF.1.1.markerStart" refX="-9.36" refY="-3.41" overflow="visible" markerUnits="userSpaceOnUse" markerWidth="9.36" markerHeight="6.81" orient="auto">
                  <path d="M 0 0 L 9.36 3.41 L 0 6.81 Z" stroke="rgb(0,0,0)" fill="rgb(0,0,0)" stroke-width="0.75" stroke-dasharray="none" stroke-opacity="1" fill-opacity="1" transform="rotate(180)"/>
                </marker>
                <marker id="grid-pkgsarrowhead-grDevices~PDF.1.1.markerEnd" refX="9.36" refY="3.41" overflow="visible" markerUnits="userSpaceOnUse" markerWidth="9.36" markerHeight="6.81" orient="auto">
                  <path d="M 0 0 L 9.36 3.41 L 0 6.81 Z" stroke="rgb(0,0,0)" fill="rgb(0,0,0)" stroke-width="0.75" stroke-dasharray="none" stroke-opacity="1" fill-opacity="1"/>
                </marker>
              </defs>
              <polyline id="grid-pkgsarrowhead-grDevices~PDF.1.1" points="417.48,77.59 424.45,69.62" marker-end="url(#grid-pkgsarrowhead-grDevices~PDF.1.1.markerEnd)" stroke="rgb(0,0,0)" fill="none" stroke-width="0.75" stroke-dasharray="none" stroke-opacity="1" fill-opacity="1"/>
            </g>
          </g>
          <g id="grid-pkgsedge-grid~grDevices.1">
            <g id="grid-pkgscurve-grid~grDevices-1.1">
              <polyline id="grid-pkgscurve-grid~grDevices-1.1.1" points="277,185.18 279.76,183.41 282.69,181.55 285.8,179.58 289.12,177.51 292.62,175.33 296.3,173.05 300.13,170.7 304.06,168.29 308.06,165.85 312.08,163.41 316.06,160.99 319.97,158.63 323.77,156.34 327.44,154.13 330.96,152.01 334.34,149.99 337.59,148.04 338.77,147.33" stroke="rgb(0,0,0)" stroke-width="0.75" stroke-dasharray="none" stroke-opacity="1" fill="none"/>
            </g>
            <g id="grid-pkgsarrowhead-grid~grDevices.1">
              <defs>
                <marker id="grid-pkgsarrowhead-grid~grDevices.1.1.markerStart" refX="-9.36" refY="-3.41" overflow="visible" markerUnits="userSpaceOnUse" markerWidth="9.36" markerHeight="6.81" orient="auto">
                  <path d="M 0 0 L 9.36 3.41 L 0 6.81 Z" stroke="rgb(0,0,0)" fill="rgb(0,0,0)" stroke-width="0.75" stroke-dasharray="none" stroke-opacity="1" fill-opacity="1" transform="rotate(180)"/>
                </marker>
                <marker id="grid-pkgsarrowhead-grid~grDevices.1.1.markerEnd" refX="9.36" refY="3.41" overflow="visible" markerUnits="userSpaceOnUse" markerWidth="9.36" markerHeight="6.81" orient="auto">
                  <path d="M 0 0 L 9.36 3.41 L 0 6.81 Z" stroke="rgb(0,0,0)" fill="rgb(0,0,0)" stroke-width="0.75" stroke-dasharray="none" stroke-opacity="1" fill-opacity="1"/>
                </marker>
              </defs>
              <polyline id="grid-pkgsarrowhead-grid~grDevices.1.1" points="338.77,147.33 346.74,141.35" marker-end="url(#grid-pkgsarrowhead-grid~grDevices.1.1.markerEnd)" stroke="rgb(0,0,0)" fill="none" stroke-width="0.75" stroke-dasharray="none" stroke-opacity="1" fill-opacity="1"/>
            </g>
          </g>
          <g id="grid-pkgsedge-graphics~grDevices.1">
            <g id="grid-pkgscurve-graphics~grDevices-1.1">
              <polyline id="grid-pkgscurve-graphics~grDevices-1.1.1" points="417.48,323.66 418.78,321.45 420.14,319.06 421.55,316.47 423.01,313.7 424.49,310.75 425.96,307.68 427.39,304.55 428.74,301.42 429.98,298.34 431.08,295.38 432.05,292.55 432.87,289.85 433.42,287.8" stroke="rgb(0,0,0)" stroke-width="0.75" stroke-dasharray="none" stroke-opacity="1" fill="none"/>
            </g>
            <g id="grid-pkgscurve-graphics~grDevices-2.1">
              <polyline id="grid-pkgscurve-graphics~grDevices-2.1.1" points="433.42,287.8 434.04,284.38 434.56,281.23 434.98,278.24 435.3,275.37 435.5,272.57 435.58,269.81 435.53,267.08 435.35,264.35 435.06,261.59 434.66,258.77 434.16,255.83 433.57,252.68 433.42,251.93" stroke="rgb(0,0,0)" stroke-width="0.75" stroke-dasharray="none" stroke-opacity="1" fill="none"/>
            </g>
            <g id="grid-pkgscurve-graphics~grDevices-3.1">
              <polyline id="grid-pkgscurve-graphics~grDevices-3.1.1" points="433.42,251.93 432.19,247.16 430.82,242.33 429.3,237.42 427.62,232.42 425.8,227.31 423.83,222.12 421.74,216.86 419.52,211.56 417.2,206.24 414.8,200.94 412.34,195.71 409.85,190.58 407.35,185.59 404.86,180.78 402.41,176.17 400.02,171.78 397.7,167.62 395.45,163.71 393.3,160.04 391.22,156.59 389.24,153.35 388.59,152.31" stroke="rgb(0,0,0)" stroke-width="0.75" stroke-dasharray="none" stroke-opacity="1" fill="none"/>
            </g>
            <g id="grid-pkgsarrowhead-graphics~grDevices.1">
              <defs>
                <marker id="grid-pkgsarrowhead-graphics~grDevices.1.1.markerStart" refX="-9.36" refY="-3.41" overflow="visible" markerUnits="userSpaceOnUse" markerWidth="9.36" markerHeight="6.81" orient="auto">
                  <path d="M 0 0 L 9.36 3.41 L 0 6.81 Z" stroke="rgb(0,0,0)" fill="rgb(0,0,0)" stroke-width="0.75" stroke-dasharray="none" stroke-opacity="1" fill-opacity="1" transform="rotate(180)"/>
                </marker>
                <marker id="grid-pkgsarrowhead-graphics~grDevices.1.1.markerEnd" refX="9.36" refY="3.41" overflow="visible" markerUnits="userSpaceOnUse" markerWidth="9.36" markerHeight="6.81" orient="auto">
                  <path d="M 0 0 L 9.36 3.41 L 0 6.81 Z" stroke="rgb(0,0,0)" fill="rgb(0,0,0)" stroke-width="0.75" stroke-dasharray="none" stroke-opacity="1" fill-opacity="1"/>
                </marker>
              </defs>
              <polyline id="grid-pkgsarrowhead-graphics~grDevices.1.1" points="388.59,152.31 382.61,143.34" marker-end="url(#grid-pkgsarrowhead-graphics~grDevices.1.1.markerEnd)" stroke="rgb(0,0,0)" fill="none" stroke-width="0.75" stroke-dasharray="none" stroke-opacity="1" fill-opacity="1"/>
            </g>
          </g>
          <g id="grid-pkgsedge-lattice~grid.1">
            <g id="grid-pkgscurve-lattice~grid-1.1">
              <polyline id="grid-pkgscurve-lattice~grid-1.1.1" points="105.65,257.91 107.53,257.27 109.44,256.6 111.42,255.9 113.45,255.16 115.5,254.42 117.51,253.7 119.46,253 121.36,252.35 122.58,251.93" stroke="rgb(0,0,0)" stroke-width="0.75" stroke-dasharray="none" stroke-opacity="1" fill="none"/>
            </g>
            <g id="grid-pkgscurve-lattice~grid-2.1">
              <polyline id="grid-pkgscurve-lattice~grid-2.1.1" points="122.58,251.93 127.09,250.13 131.68,248.29 136.4,246.41 141.24,244.47 146.21,242.48 151.31,240.45 156.52,238.37 161.81,236.25 167.16,234.12 172.52,231.98 177.87,229.85 183.16,227.74 188.35,225.67 193.41,223.66 198.31,221.71 203.03,219.84 207.54,218.06 211.84,216.35 215.94,214.73 219.84,213.19 223.57,211.73 225.2,211.09" stroke="rgb(0,0,0)" stroke-width="0.75" stroke-dasharray="none" stroke-opacity="1" fill="none"/>
            </g>
            <g id="grid-pkgsarrowhead-lattice~grid.1">
              <defs>
                <marker id="grid-pkgsarrowhead-lattice~grid.1.1.markerStart" refX="-9.36" refY="-3.41" overflow="visible" markerUnits="userSpaceOnUse" markerWidth="9.36" markerHeight="6.81" orient="auto">
                  <path d="M 0 0 L 9.36 3.41 L 0 6.81 Z" stroke="rgb(0,0,0)" fill="rgb(0,0,0)" stroke-width="0.75" stroke-dasharray="none" stroke-opacity="1" fill-opacity="1" transform="rotate(180)"/>
                </marker>
                <marker id="grid-pkgsarrowhead-lattice~grid.1.1.markerEnd" refX="9.36" refY="3.41" overflow="visible" markerUnits="userSpaceOnUse" markerWidth="9.36" markerHeight="6.81" orient="auto">
                  <path d="M 0 0 L 9.36 3.41 L 0 6.81 Z" stroke="rgb(0,0,0)" fill="rgb(0,0,0)" stroke-width="0.75" stroke-dasharray="none" stroke-opacity="1" fill-opacity="1"/>
                </marker>
              </defs>
              <polyline id="grid-pkgsarrowhead-lattice~grid.1.1" points="225.2,211.09 234.16,207.1" marker-end="url(#grid-pkgsarrowhead-lattice~grid.1.1.markerEnd)" stroke="rgb(0,0,0)" fill="none" stroke-width="0.75" stroke-dasharray="none" stroke-opacity="1" fill-opacity="1"/>
            </g>
          </g>
          <g id="grid-pkgsedge-ggplot2~grid.1">
            <g id="grid-pkgscurve-ggplot2~grid-1.1">
              <polyline id="grid-pkgscurve-ggplot2~grid-1.1.1" points="190.33,252.93 192.73,251.07 195.24,249.12 197.88,247.05 200.66,244.86 203.57,242.56 206.59,240.17 209.69,237.7 212.82,235.21 215.95,232.72 219.03,230.26 222.03,227.87 224.93,225.57 227.7,223.37 230.37,221.26 232.95,219.23 233.17,219.06" stroke="rgb(0,0,0)" stroke-width="0.75" stroke-dasharray="none" stroke-opacity="1" fill="none"/>
            </g>
            <g id="grid-pkgsarrowhead-ggplot2~grid.1">
              <defs>
                <marker id="grid-pkgsarrowhead-ggplot2~grid.1.1.markerStart" refX="-9.36" refY="-3.41" overflow="visible" markerUnits="userSpaceOnUse" markerWidth="9.36" markerHeight="6.81" orient="auto">
                  <path d="M 0 0 L 9.36 3.41 L 0 6.81 Z" stroke="rgb(0,0,0)" fill="rgb(0,0,0)" stroke-width="0.75" stroke-dasharray="none" stroke-opacity="1" fill-opacity="1" transform="rotate(180)"/>
                </marker>
                <marker id="grid-pkgsarrowhead-ggplot2~grid.1.1.markerEnd" refX="9.36" refY="3.41" overflow="visible" markerUnits="userSpaceOnUse" markerWidth="9.36" markerHeight="6.81" orient="auto">
                  <path d="M 0 0 L 9.36 3.41 L 0 6.81 Z" stroke="rgb(0,0,0)" fill="rgb(0,0,0)" stroke-width="0.75" stroke-dasharray="none" stroke-opacity="1" fill-opacity="1"/>
                </marker>
              </defs>
              <polyline id="grid-pkgsarrowhead-ggplot2~grid.1.1" points="233.17,219.06 241.14,212.08" marker-end="url(#grid-pkgsarrowhead-ggplot2~grid.1.1.markerEnd)" stroke="rgb(0,0,0)" fill="none" stroke-width="0.75" stroke-dasharray="none" stroke-opacity="1" fill-opacity="1"/>
            </g>
          </g>
          <g id="grid-pkgsedge-othergrid~grid.1">
            <g id="grid-pkgscurve-othergrid~grid-1.1">
              <polyline id="grid-pkgscurve-othergrid~grid-1.1.1" points="258.07,250.94 258.07,248.75 258.07,246.43 258.07,243.98 258.07,241.4 258.07,238.73 258.07,236.06 258.07,233.46 258.07,230.98 258.07,228.64 258.07,226.43 258.07,226.03" stroke="rgb(0,0,0)" stroke-width="0.75" stroke-dasharray="none" stroke-opacity="1" fill="none"/>
            </g>
            <g id="grid-pkgsarrowhead-othergrid~grid.1">
              <defs>
                <marker id="grid-pkgsarrowhead-othergrid~grid.1.1.markerStart" refX="-9.36" refY="-3.41" overflow="visible" markerUnits="userSpaceOnUse" markerWidth="9.36" markerHeight="6.81" orient="auto">
                  <path d="M 0 0 L 9.36 3.41 L 0 6.81 Z" stroke="rgb(0,0,0)" fill="rgb(0,0,0)" stroke-width="0.75" stroke-dasharray="none" stroke-opacity="1" fill-opacity="1" transform="rotate(180)"/>
                </marker>
                <marker id="grid-pkgsarrowhead-othergrid~grid.1.1.markerEnd" refX="9.36" refY="3.41" overflow="visible" markerUnits="userSpaceOnUse" markerWidth="9.36" markerHeight="6.81" orient="auto">
                  <path d="M 0 0 L 9.36 3.41 L 0 6.81 Z" stroke="rgb(0,0,0)" fill="rgb(0,0,0)" stroke-width="0.75" stroke-dasharray="none" stroke-opacity="1" fill-opacity="1"/>
                </marker>
              </defs>
              <polyline id="grid-pkgsarrowhead-othergrid~grid.1.1" points="258.07,226.03 258.07,216.07" marker-end="url(#grid-pkgsarrowhead-othergrid~grid.1.1.markerEnd)" stroke="rgb(0,0,0)" fill="none" stroke-width="0.75" stroke-dasharray="none" stroke-opacity="1" fill-opacity="1"/>
            </g>
          </g>
          <g id="grid-pkgsedge-plotrix~graphics.1">
            <g id="grid-pkgscurve-plotrix~graphics-1.1">
              <polyline id="grid-pkgscurve-plotrix~graphics-1.1.1" points="339.77,397.39 342.02,395.5 344.39,393.52 346.88,391.41 349.52,389.19 352.3,386.85 355.19,384.41 358.16,381.91 361.18,379.38 364.21,376.85 367.2,374.37 370.13,371.96 372.96,369.64 375.7,367.42 378.36,365.3 380.62,363.51" stroke="rgb(0,0,0)" stroke-width="0.75" stroke-dasharray="none" stroke-opacity="1" fill="none"/>
            </g>
            <g id="grid-pkgsarrowhead-plotrix~graphics.1">
              <defs>
                <marker id="grid-pkgsarrowhead-plotrix~graphics.1.1.markerStart" refX="-9.36" refY="-3.41" overflow="visible" markerUnits="userSpaceOnUse" markerWidth="9.36" markerHeight="6.81" orient="auto">
                  <path d="M 0 0 L 9.36 3.41 L 0 6.81 Z" stroke="rgb(0,0,0)" fill="rgb(0,0,0)" stroke-width="0.75" stroke-dasharray="none" stroke-opacity="1" fill-opacity="1" transform="rotate(180)"/>
                </marker>
                <marker id="grid-pkgsarrowhead-plotrix~graphics.1.1.markerEnd" refX="9.36" refY="3.41" overflow="visible" markerUnits="userSpaceOnUse" markerWidth="9.36" markerHeight="6.81" orient="auto">
                  <path d="M 0 0 L 9.36 3.41 L 0 6.81 Z" stroke="rgb(0,0,0)" fill="rgb(0,0,0)" stroke-width="0.75" stroke-dasharray="none" stroke-opacity="1" fill-opacity="1"/>
                </marker>
              </defs>
              <polyline id="grid-pkgsarrowhead-plotrix~graphics.1.1" points="380.62,363.51 388.59,357.54" marker-end="url(#grid-pkgsarrowhead-plotrix~graphics.1.1.markerEnd)" stroke="rgb(0,0,0)" fill="none" stroke-width="0.75" stroke-dasharray="none" stroke-opacity="1" fill-opacity="1"/>
            </g>
          </g>
          <g id="grid-pkgsedge-maps~graphics.1">
            <g id="grid-pkgscurve-maps~graphics-1.1">
              <polyline id="grid-pkgscurve-maps~graphics-1.1.1" points="407.51,394.4 407.51,392.21 407.51,389.9 407.51,387.44 407.51,384.86 407.51,382.2 407.51,379.53 407.51,376.92 407.51,374.44 407.51,372.1 407.51,369.9 407.51,369.49" stroke="rgb(0,0,0)" stroke-width="0.75" stroke-dasharray="none" stroke-opacity="1" fill="none"/>
            </g>
            <g id="grid-pkgsarrowhead-maps~graphics.1">
              <defs>
                <marker id="grid-pkgsarrowhead-maps~graphics.1.1.markerStart" refX="-9.36" refY="-3.41" overflow="visible" markerUnits="userSpaceOnUse" markerWidth="9.36" markerHeight="6.81" orient="auto">
                  <path d="M 0 0 L 9.36 3.41 L 0 6.81 Z" stroke="rgb(0,0,0)" fill="rgb(0,0,0)" stroke-width="0.75" stroke-dasharray="none" stroke-opacity="1" fill-opacity="1" transform="rotate(180)"/>
                </marker>
                <marker id="grid-pkgsarrowhead-maps~graphics.1.1.markerEnd" refX="9.36" refY="3.41" overflow="visible" markerUnits="userSpaceOnUse" markerWidth="9.36" markerHeight="6.81" orient="auto">
                  <path d="M 0 0 L 9.36 3.41 L 0 6.81 Z" stroke="rgb(0,0,0)" fill="rgb(0,0,0)" stroke-width="0.75" stroke-dasharray="none" stroke-opacity="1" fill-opacity="1"/>
                </marker>
              </defs>
              <polyline id="grid-pkgsarrowhead-maps~graphics.1.1" points="407.51,369.49 407.51,359.53" marker-end="url(#grid-pkgsarrowhead-maps~graphics.1.1.markerEnd)" stroke="rgb(0,0,0)" fill="none" stroke-width="0.75" stroke-dasharray="none" stroke-opacity="1" fill-opacity="1"/>
            </g>
          </g>
          <g id="grid-pkgsedge-othergraphics~graphics.1">
            <g id="grid-pkgscurve-othergraphics~graphics-1.1">
              <polyline id="grid-pkgscurve-othergraphics~graphics-1.1.1" points="467.29,397.39 465.31,395.6 463.19,393.67 460.91,391.6 458.48,389.38 455.9,387.01 453.2,384.53 450.41,381.98 447.59,379.38 444.78,376.8 442.03,374.26 439.36,371.8 436.79,369.44 434.34,367.18 431.98,365.02 431.42,364.51" stroke="rgb(0,0,0)" stroke-width="0.75" stroke-dasharray="none" stroke-opacity="1" fill="none"/>
            </g>
            <g id="grid-pkgsarrowhead-othergraphics~graphics.1">
              <defs>
                <marker id="grid-pkgsarrowhead-othergraphics~graphics.1.1.markerStart" refX="-9.36" refY="-3.41" overflow="visible" markerUnits="userSpaceOnUse" markerWidth="9.36" markerHeight="6.81" orient="auto">
                  <path d="M 0 0 L 9.36 3.41 L 0 6.81 Z" stroke="rgb(0,0,0)" fill="rgb(0,0,0)" stroke-width="0.75" stroke-dasharray="none" stroke-opacity="1" fill-opacity="1" transform="rotate(180)"/>
                </marker>
                <marker id="grid-pkgsarrowhead-othergraphics~graphics.1.1.markerEnd" refX="9.36" refY="3.41" overflow="visible" markerUnits="userSpaceOnUse" markerWidth="9.36" markerHeight="6.81" orient="auto">
                  <path d="M 0 0 L 9.36 3.41 L 0 6.81 Z" stroke="rgb(0,0,0)" fill="rgb(0,0,0)" stroke-width="0.75" stroke-dasharray="none" stroke-opacity="1" fill-opacity="1"/>
                </marker>
              </defs>
              <polyline id="grid-pkgsarrowhead-othergraphics~graphics.1.1" points="431.42,364.51 423.45,357.54" marker-end="url(#grid-pkgsarrowhead-othergraphics~graphics.1.1.markerEnd)" stroke="rgb(0,0,0)" fill="none" stroke-width="0.75" stroke-dasharray="none" stroke-opacity="1" fill-opacity="1"/>
            </g>
          </g>
          <g id="grid-pkgsgrDevices.1">
            <g id="grid-pkgsbox-grDevices.1">
              <polygon id="grid-pkgsbox-grDevices.1.1" points="421.46,126.4 421.36,127.53 421.07,128.65 420.58,129.76 419.9,130.86 419.02,131.95 417.96,133 416.72,134.04 415.3,135.04 413.71,136.01 411.95,136.94 410.03,137.83 407.96,138.68 405.75,139.48 403.4,140.22 400.93,140.91 398.34,141.54 395.65,142.12 392.86,142.63 389.99,143.08 387.04,143.46 384.04,143.77 380.98,144.02 377.89,144.19 374.78,144.3 371.65,144.34 368.52,144.3 365.41,144.19 362.31,144.02 359.26,143.77 356.26,143.46 353.31,143.08 350.44,142.63 347.65,142.12 344.96,141.54 342.37,140.91 339.9,140.22 337.55,139.48 335.34,138.68 333.27,137.83 331.35,136.94 329.59,136.01 328,135.04 326.58,134.04 325.33,133 324.27,131.95 323.4,130.86 322.72,129.76 322.23,128.65 321.93,127.53 321.84,126.4 321.93,125.28 322.23,124.16 322.72,123.04 323.4,121.94 324.27,120.86 325.33,119.8 326.58,118.77 328,117.76 329.59,116.79 331.35,115.86 333.27,114.97 335.34,114.13 337.55,113.33 339.9,112.59 342.37,111.9 344.96,111.26 347.65,110.69 350.44,110.18 353.31,109.73 356.26,109.35 359.26,109.03 362.31,108.79 365.41,108.61 368.52,108.51 371.65,108.47 374.78,108.51 377.89,108.61 380.98,108.79 384.04,109.03 387.04,109.35 389.99,109.73 392.86,110.18 395.65,110.69 398.34,111.26 400.93,111.9 403.4,112.59 405.75,113.33 407.96,114.13 410.03,114.97 411.95,115.86 413.71,116.79 415.3,117.76 416.72,118.77 417.96,119.8 419.02,120.86 419.9,121.94 420.58,123.04 421.07,124.16 421.36,125.28 421.46,126.4" stroke="rgb(0,0,0)" fill="rgb(255,255,255)" stroke-opacity="1" fill-opacity="1"/>
            </g>
            <g id="grid-pkgslabel-grDevices.1">
              <g id="grid-pkgslabel-grDevices.1.1" transform="translate(371.65, 126.4)" stroke-width="0.1">
                <g id="grid-pkgslabel-grDevices.1.1.scale" transform="scale(1, -1)">
                  <text x="0" y="0" id="grid-pkgslabel-grDevices.1.1.text" text-anchor="middle" stroke="rgb(0,0,0)" font-size="14" fill="rgb(0,0,0)" stroke-opacity="1" fill-opacity="1">
                    <tspan id="grid-pkgslabel-grDevices.1.1.tspan.1" dy="5.03" x="0">grDevices</tspan>
                  </text>
                </g>
              </g>
            </g>
          </g>
          <g id="grid-pkgsgrid.1">
            <g id="grid-pkgsbox-grid.1">
              <polygon id="grid-pkgsbox-grid.1.1" points="284.97,198.13 284.92,199.26 284.76,200.38 284.5,201.49 284.13,202.59 283.66,203.68 283.08,204.74 282.41,205.77 281.65,206.77 280.79,207.74 279.84,208.68 278.8,209.57 277.68,210.41 276.49,211.21 275.22,211.95 273.89,212.64 272.49,213.28 271.03,213.85 269.53,214.36 267.98,214.81 266.39,215.19 264.76,215.5 263.12,215.75 261.45,215.93 259.76,216.03 258.07,216.07 256.39,216.03 254.7,215.93 253.03,215.75 251.39,215.5 249.76,215.19 248.17,214.81 246.62,214.36 245.12,213.85 243.66,213.28 242.26,212.64 240.93,211.95 239.66,211.21 238.47,210.41 237.35,209.57 236.31,208.68 235.36,207.74 234.5,206.77 233.74,205.77 233.06,204.74 232.49,203.68 232.02,202.59 231.65,201.49 231.39,200.38 231.23,199.26 231.18,198.13 231.23,197.01 231.39,195.89 231.65,194.77 232.02,193.67 232.49,192.59 233.06,191.53 233.74,190.5 234.5,189.5 235.36,188.53 236.31,187.59 237.35,186.7 238.47,185.86 239.66,185.06 240.93,184.32 242.26,183.63 243.66,182.99 245.12,182.42 246.62,181.91 248.17,181.46 249.76,181.08 251.39,180.77 253.03,180.52 254.7,180.34 256.39,180.24 258.07,180.2 259.76,180.24 261.45,180.34 263.12,180.52 264.76,180.77 266.39,181.08 267.98,181.46 269.53,181.91 271.03,182.42 272.49,182.99 273.89,183.63 275.22,184.32 276.49,185.06 277.68,185.86 278.8,186.7 279.84,187.59 280.79,188.53 281.65,189.5 282.41,190.5 283.08,191.53 283.66,192.59 284.13,193.67 284.5,194.77 284.76,195.89 284.92,197.01 284.97,198.13" stroke="rgb(0,0,0)" fill="rgb(190,190,190)" stroke-opacity="1" fill-opacity="1"/>
            </g>
            <g id="grid-pkgslabel-grid.1">
              <g id="grid-pkgslabel-grid.1.1" transform="translate(258.07, 198.13)" stroke-width="0.1">
                <g id="grid-pkgslabel-grid.1.1.scale" transform="scale(1, -1)">
                  <text x="0" y="0" id="grid-pkgslabel-grid.1.1.text" text-anchor="middle" stroke="rgb(0,0,0)" font-size="14" fill="rgb(0,0,0)" stroke-opacity="1" fill-opacity="1">
                    <tspan id="grid-pkgslabel-grid.1.1.tspan.1" dy="5.03" x="0">grid</tspan>
                  </text>
                </g>
              </g>
            </g>
          </g>
          <g id="grid-pkgsgraphics.1">
            <g id="grid-pkgsbox-graphics.1">
              <polygon id="grid-pkgsbox-graphics.1.1" points="450.35,341.6 450.27,342.72 450.02,343.84 449.59,344.96 449.01,346.06 448.26,347.14 447.35,348.2 446.28,349.23 445.05,350.24 443.68,351.21 442.17,352.14 440.52,353.03 438.74,353.87 436.84,354.67 434.82,355.41 432.69,356.1 430.47,356.74 428.15,357.31 425.75,357.82 423.28,358.27 420.75,358.65 418.17,358.97 415.54,359.21 412.88,359.39 410.2,359.49 407.51,359.53 404.82,359.49 402.15,359.39 399.49,359.21 396.86,358.97 394.28,358.65 391.74,358.27 389.27,357.82 386.88,357.31 384.56,356.74 382.33,356.1 380.21,355.41 378.19,354.67 376.29,353.87 374.51,353.03 372.86,352.14 371.34,351.21 369.97,350.24 368.75,349.23 367.68,348.2 366.77,347.14 366.02,346.06 365.43,344.96 365.01,343.84 364.76,342.72 364.67,341.6 364.76,340.47 365.01,339.35 365.43,338.24 366.02,337.14 366.77,336.05 367.68,335 368.75,333.96 369.97,332.96 371.34,331.99 372.86,331.06 374.51,330.17 376.29,329.32 378.19,328.52 380.21,327.78 382.33,327.09 384.56,326.46 386.88,325.88 389.27,325.37 391.74,324.92 394.28,324.54 396.86,324.23 399.49,323.98 402.15,323.81 404.82,323.7 407.51,323.66 410.2,323.7 412.88,323.81 415.54,323.98 418.17,324.23 420.75,324.54 423.28,324.92 425.75,325.37 428.15,325.88 430.47,326.46 432.69,327.09 434.82,327.78 436.84,328.52 438.74,329.32 440.52,330.17 442.17,331.06 443.68,331.99 445.05,332.96 446.28,333.96 447.35,335 448.26,336.05 449.01,337.14 449.59,338.24 450.02,339.35 450.27,340.47 450.35,341.6" stroke="rgb(0,0,0)" fill="rgb(190,190,190)" stroke-opacity="1" fill-opacity="1"/>
            </g>
            <g id="grid-pkgslabel-graphics.1">
              <g id="grid-pkgslabel-graphics.1.1" transform="translate(407.51, 341.6)" stroke-width="0.1">
                <g id="grid-pkgslabel-graphics.1.1.scale" transform="scale(1, -1)">
                  <text x="0" y="0" id="grid-pkgslabel-graphics.1.1.text" text-anchor="middle" stroke="rgb(0,0,0)" font-size="14" fill="rgb(0,0,0)" stroke-opacity="1" fill-opacity="1">
                    <tspan id="grid-pkgslabel-graphics.1.1.tspan.1" dy="5.03" x="0">graphics</tspan>
                  </text>
                </g>
              </g>
            </g>
          </g>
          <g id="grid-pkgslattice.1">
            <g id="grid-pkgsbox-lattice.1">
              <polygon id="grid-pkgsbox-lattice.1.1" points="113.62,269.87 113.55,270.99 113.35,272.11 113.02,273.23 112.55,274.33 111.96,275.41 111.24,276.47 110.39,277.5 109.43,278.5 108.34,279.47 107.15,280.41 105.84,281.3 104.44,282.14 102.93,282.94 101.33,283.68 99.65,284.37 97.89,285.01 96.06,285.58 94.17,286.09 92.21,286.54 90.21,286.92 88.17,287.23 86.09,287.48 83.99,287.66 81.87,287.76 79.74,287.8 77.62,287.76 75.5,287.66 73.4,287.48 71.32,287.23 69.28,286.92 67.27,286.54 65.32,286.09 63.43,285.58 61.59,285.01 59.83,284.37 58.15,283.68 56.56,282.94 55.05,282.14 53.64,281.3 52.34,280.41 51.14,279.47 50.06,278.5 49.09,277.5 48.25,276.47 47.53,275.41 46.93,274.33 46.47,273.23 46.14,272.11 45.94,270.99 45.87,269.87 45.94,268.74 46.14,267.62 46.47,266.51 46.93,265.41 47.53,264.32 48.25,263.26 49.09,262.23 50.06,261.23 51.14,260.26 52.34,259.32 53.64,258.43 55.05,257.59 56.56,256.79 58.15,256.05 59.83,255.36 61.59,254.72 63.43,254.15 65.32,253.64 67.27,253.19 69.28,252.81 71.32,252.5 73.4,252.25 75.5,252.07 77.62,251.97 79.74,251.93 81.87,251.97 83.99,252.07 86.09,252.25 88.17,252.5 90.21,252.81 92.21,253.19 94.17,253.64 96.06,254.15 97.89,254.72 99.65,255.36 101.33,256.05 102.93,256.79 104.44,257.59 105.84,258.43 107.15,259.32 108.34,260.26 109.43,261.23 110.39,262.23 111.24,263.26 111.96,264.32 112.55,265.41 113.02,266.51 113.35,267.62 113.55,268.74 113.62,269.87" stroke="rgb(0,0,0)" fill="rgb(255,255,255)" stroke-opacity="1" fill-opacity="1"/>
            </g>
            <g id="grid-pkgslabel-lattice.1">
              <g id="grid-pkgslabel-lattice.1.1" transform="translate(79.74, 269.87)" stroke-width="0.1">
                <g id="grid-pkgslabel-lattice.1.1.scale" transform="scale(1, -1)">
                  <text x="0" y="0" id="grid-pkgslabel-lattice.1.1.text" text-anchor="middle" stroke="rgb(0,0,0)" font-size="14" fill="rgb(0,0,0)" stroke-opacity="1" fill-opacity="1">
                    <tspan id="grid-pkgslabel-lattice.1.1.tspan.1" dy="5.03" x="0">lattice</tspan>
                  </text>
                </g>
              </g>
            </g>
          </g>
          <g id="grid-pkgsggplot2.1">
            <g id="grid-pkgsbox-ggplot2.1">
              <polygon id="grid-pkgsbox-ggplot2.1.1" points="212.25,269.87 212.17,270.99 211.93,272.11 211.54,273.23 210.99,274.33 210.3,275.41 209.45,276.47 208.45,277.5 207.32,278.5 206.04,279.47 204.64,280.41 203.1,281.3 201.45,282.14 199.68,282.94 197.8,283.68 195.82,284.37 193.75,285.01 191.59,285.58 189.36,286.09 187.07,286.54 184.71,286.92 182.31,287.23 179.86,287.48 177.39,287.66 174.9,287.76 172.4,287.8 169.89,287.76 167.4,287.66 164.93,287.48 162.49,287.23 160.08,286.92 157.73,286.54 155.43,286.09 153.2,285.58 151.04,285.01 148.97,284.37 146.99,283.68 145.12,282.94 143.35,282.14 141.69,281.3 140.16,280.41 138.75,279.47 137.47,278.5 136.34,277.5 135.34,276.47 134.5,275.41 133.8,274.33 133.25,273.23 132.86,272.11 132.62,270.99 132.55,269.87 132.62,268.74 132.86,267.62 133.25,266.51 133.8,265.41 134.5,264.32 135.34,263.26 136.34,262.23 137.47,261.23 138.75,260.26 140.16,259.32 141.69,258.43 143.35,257.59 145.12,256.79 146.99,256.05 148.97,255.36 151.04,254.72 153.2,254.15 155.43,253.64 157.73,253.19 160.08,252.81 162.49,252.5 164.93,252.25 167.4,252.07 169.89,251.97 172.4,251.93 174.9,251.97 177.39,252.07 179.86,252.25 182.31,252.5 184.71,252.81 187.07,253.19 189.36,253.64 191.59,254.15 193.75,254.72 195.82,255.36 197.8,256.05 199.68,256.79 201.45,257.59 203.1,258.43 204.64,259.32 206.04,260.26 207.32,261.23 208.45,262.23 209.45,263.26 210.3,264.32 210.99,265.41 211.54,266.51 211.93,267.62 212.17,268.74 212.25,269.87" stroke="rgb(0,0,0)" fill="rgb(255,255,255)" stroke-opacity="1" fill-opacity="1"/>
            </g>
            <g id="grid-pkgslabel-ggplot2.1">
              <g id="grid-pkgslabel-ggplot2.1.1" transform="translate(172.4, 269.87)" stroke-width="0.1">
                <g id="grid-pkgslabel-ggplot2.1.1.scale" transform="scale(1, -1)">
                  <text x="0" y="0" id="grid-pkgslabel-ggplot2.1.1.text" text-anchor="middle" stroke="rgb(0,0,0)" font-size="14" fill="rgb(0,0,0)" stroke-opacity="1" fill-opacity="1">
                    <tspan id="grid-pkgslabel-ggplot2.1.1.tspan.1" dy="5.03" x="0">ggplot2</tspan>
                  </text>
                </g>
              </g>
            </g>
          </g>
          <g id="grid-pkgsothergrid.1">
            <g id="grid-pkgsbox-othergrid.1">
              <polygon id="grid-pkgsbox-othergrid.1.1" points="284.97,269.87 284.92,270.99 284.76,272.11 284.5,273.23 284.13,274.33 283.66,275.41 283.08,276.47 282.41,277.5 281.65,278.5 280.79,279.47 279.84,280.41 278.8,281.3 277.68,282.14 276.49,282.94 275.22,283.68 273.89,284.37 272.49,285.01 271.03,285.58 269.53,286.09 267.98,286.54 266.39,286.92 264.76,287.23 263.12,287.48 261.45,287.66 259.76,287.76 258.07,287.8 256.39,287.76 254.7,287.66 253.03,287.48 251.39,287.23 249.76,286.92 248.17,286.54 246.62,286.09 245.12,285.58 243.66,285.01 242.26,284.37 240.93,283.68 239.66,282.94 238.47,282.14 237.35,281.3 236.31,280.41 235.36,279.47 234.5,278.5 233.74,277.5 233.06,276.47 232.49,275.41 232.02,274.33 231.65,273.23 231.39,272.11 231.23,270.99 231.18,269.87 231.23,268.74 231.39,267.62 231.65,266.51 232.02,265.41 232.49,264.32 233.06,263.26 233.74,262.23 234.5,261.23 235.36,260.26 236.31,259.32 237.35,258.43 238.47,257.59 239.66,256.79 240.93,256.05 242.26,255.36 243.66,254.72 245.12,254.15 246.62,253.64 248.17,253.19 249.76,252.81 251.39,252.5 253.03,252.25 254.7,252.07 256.39,251.97 258.07,251.93 259.76,251.97 261.45,252.07 263.12,252.25 264.76,252.5 266.39,252.81 267.98,253.19 269.53,253.64 271.03,254.15 272.49,254.72 273.89,255.36 275.22,256.05 276.49,256.79 277.68,257.59 278.8,258.43 279.84,259.32 280.79,260.26 281.65,261.23 282.41,262.23 283.08,263.26 283.66,264.32 284.13,265.41 284.5,266.51 284.76,267.62 284.92,268.74 284.97,269.87" stroke="rgb(0,0,0)" fill="rgb(255,255,255)" stroke-opacity="1" fill-opacity="1"/>
            </g>
            <g id="grid-pkgslabel-othergrid.1">
              <g id="grid-pkgslabel-othergrid.1.1" transform="translate(258.07, 269.87)" stroke-width="0.1">
                <g id="grid-pkgslabel-othergrid.1.1.scale" transform="scale(1, -1)">
                  <text x="0" y="0" id="grid-pkgslabel-othergrid.1.1.text" text-anchor="middle" stroke="rgb(0,0,0)" font-size="14" fill="rgb(0,0,0)" stroke-opacity="1" fill-opacity="1">
                    <tspan id="grid-pkgslabel-othergrid.1.1.tspan.1" dy="5.03" x="0">...</tspan>
                  </text>
                </g>
              </g>
            </g>
          </g>
          <g id="grid-pkgsplotrix.1">
            <g id="grid-pkgsbox-plotrix.1">
              <polygon id="grid-pkgsbox-plotrix.1.1" points="357.7,413.33 357.63,414.45 357.42,415.58 357.07,416.69 356.57,417.79 355.95,418.87 355.18,419.93 354.29,420.96 353.26,421.97 352.12,422.94 350.85,423.87 349.47,424.76 347.98,425.6 346.39,426.4 344.7,427.14 342.92,427.84 341.05,428.47 339.11,429.04 337.11,429.55 335.04,430 332.92,430.38 330.76,430.7 328.56,430.94 326.33,431.12 324.09,431.22 321.84,431.26 319.58,431.22 317.34,431.12 315.12,430.94 312.92,430.7 310.75,430.38 308.63,430 306.56,429.55 304.56,429.04 302.62,428.47 300.75,427.84 298.97,427.14 297.28,426.4 295.69,425.6 294.2,424.76 292.82,423.87 291.55,422.94 290.41,421.97 289.38,420.96 288.49,419.93 287.73,418.87 287.1,417.79 286.61,416.69 286.25,415.58 286.04,414.45 285.97,413.33 286.04,412.2 286.25,411.08 286.61,409.97 287.1,408.87 287.73,407.79 288.49,406.73 289.38,405.69 290.41,404.69 291.55,403.72 292.82,402.79 294.2,401.9 295.69,401.05 297.28,400.26 298.97,399.51 300.75,398.82 302.62,398.19 304.56,397.61 306.56,397.1 308.63,396.65 310.75,396.27 312.92,395.96 315.12,395.71 317.34,395.54 319.58,395.43 321.84,395.39 324.09,395.43 326.33,395.54 328.56,395.71 330.76,395.96 332.92,396.27 335.04,396.65 337.11,397.1 339.11,397.61 341.05,398.19 342.92,398.82 344.7,399.51 346.39,400.26 347.98,401.05 349.47,401.9 350.85,402.79 352.12,403.72 353.26,404.69 354.29,405.69 355.18,406.73 355.95,407.79 356.57,408.87 357.07,409.97 357.42,411.08 357.63,412.2 357.7,413.33" stroke="rgb(0,0,0)" fill="rgb(255,255,255)" stroke-opacity="1" fill-opacity="1"/>
            </g>
            <g id="grid-pkgslabel-plotrix.1">
              <g id="grid-pkgslabel-plotrix.1.1" transform="translate(321.84, 413.33)" stroke-width="0.1">
                <g id="grid-pkgslabel-plotrix.1.1.scale" transform="scale(1, -1)">
                  <text x="0" y="0" id="grid-pkgslabel-plotrix.1.1.text" text-anchor="middle" stroke="rgb(0,0,0)" font-size="14" fill="rgb(0,0,0)" stroke-opacity="1" fill-opacity="1">
                    <tspan id="grid-pkgslabel-plotrix.1.1.tspan.1" dy="5.03" x="0">plotrix</tspan>
                  </text>
                </g>
              </g>
            </g>
          </g>
          <g id="grid-pkgsmaps.1">
            <g id="grid-pkgsbox-maps.1">
              <polygon id="grid-pkgsbox-maps.1.1" points="438.4,413.33 438.34,414.45 438.15,415.58 437.85,416.69 437.43,417.79 436.89,418.87 436.23,419.93 435.46,420.96 434.58,421.97 433.59,422.94 432.5,423.87 431.31,424.76 430.03,425.6 428.66,426.4 427.2,427.14 425.67,427.84 424.06,428.47 422.39,429.04 420.66,429.55 418.88,430 417.06,430.38 415.19,430.7 413.3,430.94 411.39,431.12 409.45,431.22 407.51,431.26 405.58,431.22 403.64,431.12 401.73,430.94 399.83,430.7 397.97,430.38 396.15,430 394.36,429.55 392.64,429.04 390.97,428.47 389.36,427.84 387.83,427.14 386.37,426.4 385,425.6 383.72,424.76 382.53,423.87 381.44,422.94 380.45,421.97 379.57,420.96 378.8,419.93 378.14,418.87 377.6,417.79 377.18,416.69 376.87,415.58 376.69,414.45 376.63,413.33 376.69,412.2 376.87,411.08 377.18,409.97 377.6,408.87 378.14,407.79 378.8,406.73 379.57,405.69 380.45,404.69 381.44,403.72 382.53,402.79 383.72,401.9 385,401.05 386.37,400.26 387.83,399.51 389.36,398.82 390.97,398.19 392.64,397.61 394.36,397.1 396.15,396.65 397.97,396.27 399.83,395.96 401.73,395.71 403.64,395.54 405.58,395.43 407.51,395.39 409.45,395.43 411.39,395.54 413.3,395.71 415.19,395.96 417.06,396.27 418.88,396.65 420.66,397.1 422.39,397.61 424.06,398.19 425.67,398.82 427.2,399.51 428.66,400.26 430.03,401.05 431.31,401.9 432.5,402.79 433.59,403.72 434.58,404.69 435.46,405.69 436.23,406.73 436.89,407.79 437.43,408.87 437.85,409.97 438.15,411.08 438.34,412.2 438.4,413.33" stroke="rgb(0,0,0)" fill="rgb(255,255,255)" stroke-opacity="1" fill-opacity="1"/>
            </g>
            <g id="grid-pkgslabel-maps.1">
              <g id="grid-pkgslabel-maps.1.1" transform="translate(407.51, 413.33)" stroke-width="0.1">
                <g id="grid-pkgslabel-maps.1.1.scale" transform="scale(1, -1)">
                  <text x="0" y="0" id="grid-pkgslabel-maps.1.1.text" text-anchor="middle" stroke="rgb(0,0,0)" font-size="14" fill="rgb(0,0,0)" stroke-opacity="1" fill-opacity="1">
                    <tspan id="grid-pkgslabel-maps.1.1.tspan.1" dy="5.03" x="0">maps</tspan>
                  </text>
                </g>
              </g>
            </g>
          </g>
          <g id="grid-pkgsothergraphics.1">
            <g id="grid-pkgsbox-othergraphics.1">
              <polygon id="grid-pkgsbox-othergraphics.1.1" points="510.13,413.33 510.08,414.45 509.92,415.58 509.65,416.69 509.28,417.79 508.81,418.87 508.24,419.93 507.57,420.96 506.8,421.97 505.94,422.94 504.99,423.87 503.96,424.76 502.84,425.6 501.64,426.4 500.38,427.14 499.04,427.84 497.64,428.47 496.19,429.04 494.68,429.55 493.13,430 491.54,430.38 489.92,430.7 488.27,430.94 486.6,431.12 484.92,431.22 483.23,431.26 481.54,431.22 479.86,431.12 478.19,430.94 476.54,430.7 474.92,430.38 473.33,430 471.78,429.55 470.27,429.04 468.82,428.47 467.42,427.84 466.08,427.14 464.82,426.4 463.62,425.6 462.5,424.76 461.47,423.87 460.52,422.94 459.66,421.97 458.89,420.96 458.22,419.93 457.65,418.87 457.18,417.79 456.81,416.69 456.54,415.58 456.38,414.45 456.33,413.33 456.38,412.2 456.54,411.08 456.81,409.97 457.18,408.87 457.65,407.79 458.22,406.73 458.89,405.69 459.66,404.69 460.52,403.72 461.47,402.79 462.5,401.9 463.62,401.05 464.82,400.26 466.08,399.51 467.42,398.82 468.82,398.19 470.27,397.61 471.78,397.1 473.33,396.65 474.92,396.27 476.54,395.96 478.19,395.71 479.86,395.54 481.54,395.43 483.23,395.39 484.92,395.43 486.6,395.54 488.27,395.71 489.92,395.96 491.54,396.27 493.13,396.65 494.68,397.1 496.19,397.61 497.64,398.19 499.04,398.82 500.38,399.51 501.64,400.26 502.84,401.05 503.96,401.9 504.99,402.79 505.94,403.72 506.8,404.69 507.57,405.69 508.24,406.73 508.81,407.79 509.28,408.87 509.65,409.97 509.92,411.08 510.08,412.2 510.13,413.33" stroke="rgb(0,0,0)" fill="rgb(255,255,255)" stroke-opacity="1" fill-opacity="1"/>
            </g>
            <g id="grid-pkgslabel-othergraphics.1">
              <g id="grid-pkgslabel-othergraphics.1.1" transform="translate(483.23, 413.33)" stroke-width="0.1">
                <g id="grid-pkgslabel-othergraphics.1.1.scale" transform="scale(1, -1)">
                  <text x="0" y="0" id="grid-pkgslabel-othergraphics.1.1.text" text-anchor="middle" stroke="rgb(0,0,0)" font-size="14" fill="rgb(0,0,0)" stroke-opacity="1" fill-opacity="1">
                    <tspan id="grid-pkgslabel-othergraphics.1.1.tspan.1" dy="5.03" x="0">...</tspan>
                  </text>
                </g>
              </g>
            </g>
          </g>
          <g id="grid-pkgsSVG.1">
            <g id="grid-pkgsbox-SVG.1">
              <polygon id="grid-pkgsbox-SVG.1.1" points="304.9,54.67 304.84,55.8 304.66,56.92 304.37,58.03 303.96,59.13 303.44,60.21 302.8,61.27 302.05,62.31 301.2,63.31 300.25,64.28 299.19,65.21 298.04,66.1 296.8,66.95 295.47,67.74 294.06,68.49 292.58,69.18 291.03,69.81 289.41,70.39 287.74,70.9 286.01,71.35 284.25,71.73 282.44,72.04 280.61,72.29 278.76,72.46 276.89,72.57 275.01,72.61 273.13,72.57 271.27,72.46 269.41,72.29 267.58,72.04 265.78,71.73 264.01,71.35 262.29,70.9 260.61,70.39 259,69.81 257.44,69.18 255.96,68.49 254.55,67.74 253.22,66.95 251.98,66.1 250.83,65.21 249.78,64.28 248.82,63.31 247.97,62.31 247.22,61.27 246.59,60.21 246.06,59.13 245.65,58.03 245.36,56.92 245.18,55.8 245.12,54.67 245.18,53.55 245.36,52.42 245.65,51.31 246.06,50.21 246.59,49.13 247.22,48.07 247.97,47.04 248.82,46.03 249.78,45.06 250.83,44.13 251.98,43.24 253.22,42.4 254.55,41.6 255.96,40.86 257.44,40.16 259,39.53 260.61,38.96 262.29,38.45 264.01,38 265.78,37.62 267.58,37.3 269.41,37.06 271.27,36.88 273.13,36.78 275.01,36.74 276.89,36.78 278.76,36.88 280.61,37.06 282.44,37.3 284.25,37.62 286.01,38 287.74,38.45 289.41,38.96 291.03,39.53 292.58,40.16 294.06,40.86 295.47,41.6 296.8,42.4 298.04,43.24 299.19,44.13 300.25,45.06 301.2,46.03 302.05,47.04 302.8,48.07 303.44,49.13 303.96,50.21 304.37,51.31 304.66,52.42 304.84,53.55 304.9,54.67" stroke="rgb(0,0,0)" fill="rgb(255,255,255)" stroke-opacity="1" fill-opacity="1"/>
            </g>
            <g id="grid-pkgslabel-SVG.1">
              <g id="grid-pkgslabel-SVG.1.1" transform="translate(275.01, 54.67)" stroke-width="0.1">
                <g id="grid-pkgslabel-SVG.1.1.scale" transform="scale(1, -1)">
                  <text x="0" y="0" id="grid-pkgslabel-SVG.1.1.text" text-anchor="middle" stroke="rgb(0,0,0)" font-size="14" fill="rgb(0,0,0)" stroke-opacity="1" fill-opacity="1">
                    <tspan id="grid-pkgslabel-SVG.1.1.tspan.1" dy="5.03" x="0">SVG</tspan>
                  </text>
                </g>
              </g>
            </g>
          </g>
          <g id="grid-pkgsPNG.1">
            <g id="grid-pkgsbox-PNG.1">
              <polygon id="grid-pkgsbox-PNG.1.1" points="392.57,54.67 392.51,55.8 392.33,56.92 392.04,58.03 391.63,59.13 391.11,60.21 390.47,61.27 389.73,62.31 388.87,63.31 387.92,64.28 386.86,65.21 385.71,66.1 384.47,66.95 383.14,67.74 381.73,68.49 380.25,69.18 378.7,69.81 377.08,70.39 375.41,70.9 373.68,71.35 371.92,71.73 370.12,72.04 368.28,72.29 366.43,72.46 364.56,72.57 362.68,72.61 360.81,72.57 358.94,72.46 357.08,72.29 355.25,72.04 353.45,71.73 351.68,71.35 349.96,70.9 348.28,70.39 346.67,69.81 345.11,69.18 343.63,68.49 342.22,67.74 340.9,66.95 339.65,66.1 338.5,65.21 337.45,64.28 336.49,63.31 335.64,62.31 334.89,61.27 334.26,60.21 333.73,59.13 333.32,58.03 333.03,56.92 332.85,55.8 332.79,54.67 332.85,53.55 333.03,52.42 333.32,51.31 333.73,50.21 334.26,49.13 334.89,48.07 335.64,47.04 336.49,46.03 337.45,45.06 338.5,44.13 339.65,43.24 340.9,42.4 342.22,41.6 343.63,40.86 345.11,40.16 346.67,39.53 348.28,38.96 349.96,38.45 351.68,38 353.45,37.62 355.25,37.3 357.08,37.06 358.94,36.88 360.81,36.78 362.68,36.74 364.56,36.78 366.43,36.88 368.28,37.06 370.12,37.3 371.92,37.62 373.68,38 375.41,38.45 377.08,38.96 378.7,39.53 380.25,40.16 381.73,40.86 383.14,41.6 384.47,42.4 385.71,43.24 386.86,44.13 387.92,45.06 388.87,46.03 389.73,47.04 390.47,48.07 391.11,49.13 391.63,50.21 392.04,51.31 392.33,52.42 392.51,53.55 392.57,54.67" stroke="rgb(0,0,0)" fill="rgb(255,255,255)" stroke-opacity="1" fill-opacity="1"/>
            </g>
            <g id="grid-pkgslabel-PNG.1">
              <g id="grid-pkgslabel-PNG.1.1" transform="translate(362.68, 54.67)" stroke-width="0.1">
                <g id="grid-pkgslabel-PNG.1.1.scale" transform="scale(1, -1)">
                  <text x="0" y="0" id="grid-pkgslabel-PNG.1.1.text" text-anchor="middle" stroke="rgb(0,0,0)" font-size="14" fill="rgb(0,0,0)" stroke-opacity="1" fill-opacity="1">
                    <tspan id="grid-pkgslabel-PNG.1.1.tspan.1" dy="5.03" x="0">PNG</tspan>
                  </text>
                </g>
              </g>
            </g>
          </g>
          <g id="grid-pkgsPDF.1">
            <g id="grid-pkgsbox-PDF.1">
              <polygon id="grid-pkgsbox-PDF.1.1" points="467.29,54.67 467.24,55.8 467.07,56.92 466.8,58.03 466.41,59.13 465.92,60.21 465.33,61.27 464.64,62.31 463.84,63.31 462.95,64.28 461.96,65.21 460.89,66.1 459.73,66.95 458.49,67.74 457.18,68.49 455.79,69.18 454.34,69.81 452.83,70.39 451.27,70.9 449.66,71.35 448.01,71.73 446.33,72.04 444.62,72.29 442.89,72.46 441.15,72.57 439.39,72.61 437.64,72.57 435.9,72.46 434.17,72.29 432.46,72.04 430.77,71.73 429.13,71.35 427.52,70.9 425.96,70.39 424.45,69.81 423,69.18 421.61,68.49 420.3,67.74 419.06,66.95 417.9,66.1 416.83,65.21 415.84,64.28 414.95,63.31 414.15,62.31 413.46,61.27 412.86,60.21 412.38,59.13 411.99,58.03 411.72,56.92 411.55,55.8 411.5,54.67 411.55,53.55 411.72,52.42 411.99,51.31 412.38,50.21 412.86,49.13 413.46,48.07 414.15,47.04 414.95,46.03 415.84,45.06 416.83,44.13 417.9,43.24 419.06,42.4 420.3,41.6 421.61,40.86 423,40.16 424.45,39.53 425.96,38.96 427.52,38.45 429.13,38 430.77,37.62 432.46,37.3 434.17,37.06 435.9,36.88 437.64,36.78 439.39,36.74 441.15,36.78 442.89,36.88 444.62,37.06 446.33,37.3 448.01,37.62 449.66,38 451.27,38.45 452.83,38.96 454.34,39.53 455.79,40.16 457.18,40.86 458.49,41.6 459.73,42.4 460.89,43.24 461.96,44.13 462.95,45.06 463.84,46.03 464.64,47.04 465.33,48.07 465.92,49.13 466.41,50.21 466.8,51.31 467.07,52.42 467.24,53.55 467.29,54.67" stroke="rgb(0,0,0)" fill="rgb(255,255,255)" stroke-opacity="1" fill-opacity="1"/>
            </g>
            <g id="grid-pkgslabel-PDF.1">
              <g id="grid-pkgslabel-PDF.1.1" transform="translate(439.39, 54.67)" stroke-width="0.1">
                <g id="grid-pkgslabel-PDF.1.1.scale" transform="scale(1, -1)">
                  <text x="0" y="0" id="grid-pkgslabel-PDF.1.1.text" text-anchor="middle" stroke="rgb(0,0,0)" font-size="14" fill="rgb(0,0,0)" stroke-opacity="1" fill-opacity="1">
                    <tspan id="grid-pkgslabel-PDF.1.1.tspan.1" dy="5.03" x="0">PDF</tspan>
                  </text>
                </g>
              </g>
            </g>
          </g>
        </g>
      </g>
    </g>
  </g>
</svg>